# Blender 4.4.0
# www.blender.org
mtllib Cottage2.mtl
o Front
v 10.695137 4.162337 -10.407685
v 10.695137 -1.835222 -10.407685
v 10.695137 4.162337 -10.223756
v 10.695137 -1.835222 -10.223756
v -3.209378 4.162337 -10.407685
v -3.209378 -1.835222 -10.407685
v -3.209378 4.162337 -10.223756
v -3.209378 -1.835222 -10.223756
v -1.052011 3.368977 -10.223756
v 1.627208 3.368977 -10.223756
v -1.052011 0.342422 -10.223756
v 1.627208 0.342422 -10.223756
v -1.053219 0.342422 -10.407685
v -1.053219 3.368977 -10.407685
v 1.625999 3.368977 -10.407685
v 1.625999 0.342422 -10.407685
v 5.146540 0.342422 -10.223756
v 7.825758 0.342422 -10.223756
v 7.825758 3.368977 -10.223756
v 5.146540 3.368977 -10.223756
v 5.145332 0.342422 -10.407685
v 7.824551 0.342422 -10.407685
v 5.145332 3.368977 -10.407685
v 7.824551 3.368977 -10.407685
vn -0.0000 1.0000 -0.0000
vn -0.0000 -0.0000 1.0000
vn -1.0000 -0.0000 -0.0000
vn -0.0000 -1.0000 -0.0000
vn 1.0000 -0.0000 -0.0000
vn -0.0000 -0.0000 -1.0000
vn -1.0000 -0.0000 0.0066
vn 1.0000 -0.0000 -0.0066
vt -0.055806 0.666126
vt -1.053212 0.665648
vt -1.053062 -0.331758
vt -0.055656 -0.331280
vt -0.055506 -1.328685
vt 0.941899 -1.328208
vt 0.579730 -1.173628
vt 0.076408 -1.173869
vt 0.076312 -0.537044
vt 0.076379 -0.981682
vt 0.076341 -0.729232
vt 0.579701 -0.981441
vt 0.941750 -0.330802
vt 0.579634 -0.536803
vt 0.579663 -0.728990
vt 0.941300 2.661415
vt -0.056106 2.660937
vt -0.055956 1.663532
vt 0.941450 1.664010
vt 1.939005 0.667082
vt 0.941600 0.666604
vt 1.939155 -0.330324
vt 0.579326 1.509169
vt 0.076005 1.508928
vt 0.076101 0.872103
vt 0.076071 1.064290
vt 0.076034 1.316741
vt 0.579356 1.316982
vt 0.579393 1.064532
vt 0.579422 0.872345
vt 0.606641 1.663849
vt 0.423015 1.663761
vt 0.422865 2.661167
vt 0.606491 2.661255
vt 0.941450 1.663190
vt -0.055806 0.667706
vt -0.055806 0.667256
vt 0.941450 1.662740
vt 0.589222 0.666435
vt 0.589372 -0.330971
vt 0.405746 -0.331059
vt 0.405596 0.666347
vt 0.405740 -0.331059
vt 0.589374 -0.330971
vt 0.941899 -1.327388
vt 0.941899 -1.326938
vt 0.605831 1.663849
vt 0.422204 1.663761
vt 0.422054 2.661166
vt 0.605681 2.661254
vt 0.941450 1.663188
vt -0.055806 0.667704
vt -0.055806 0.667254
vt 0.941450 1.662738
vt 0.588412 0.666435
vt 0.588562 -0.330971
vt 0.404936 -0.331059
vt 0.404786 0.666346
vt 0.404924 -0.331059
vt 0.588577 -0.330971
vt 0.941899 -1.327386
vt 0.941899 -1.326936
s 0
usemtl Material.019
f 1/1/1 5/2/1 7/3/1 3/4/1
f 7/5/2 8/6/2 11/7/2 9/8/2
f 19/9/2 3/4/2 7/5/2 9/8/2 10/10/2 20/11/2
f 10/10/2 12/12/2 11/7/2 8/6/2 4/13/2 3/4/2 19/9/2 18/14/2 17/15/2 20/11/2
f 8/16/3 7/17/3 5/18/3 6/19/3
f 6/20/4 2/21/4 4/13/4 8/22/4
f 2/21/5 1/1/5 3/4/5 4/13/5
f 13/23/6 6/19/6 5/18/6 14/24/6
f 5/18/6 1/1/6 24/25/6 23/26/6 15/27/6 14/24/6
f 1/1/6 2/21/6 6/19/6 13/23/6 16/28/6 15/27/6 23/26/6 21/29/6 22/30/6 24/25/6
f 10/31/7 15/32/7 16/33/7 12/34/7
f 10/35/4 9/36/4 14/37/4 15/38/4
f 9/39/8 11/40/8 13/41/8 14/42/8
f 13/43/1 11/44/1 12/45/1 16/46/1
f 19/47/7 24/48/7 22/49/7 18/50/7
f 19/51/4 20/52/4 23/53/4 24/54/4
f 20/55/8 17/56/8 21/57/8 23/58/8
f 21/59/1 17/60/1 18/61/1 22/62/1
o Left
v 10.484272 -1.815410 -10.228647
v 10.668190 -1.815410 -10.261102
v 10.414198 -1.815410 5.612112
v 10.598115 -1.815410 5.614207
v 10.598115 4.157272 5.614207
v 10.632429 7.189167 -2.130290
v 10.668190 4.113126 -10.221588
vn 1.0000 -0.0000 0.0044
vn -0.0000 -1.0000 -0.0000
vt 0.004814 1.856176
vt 0.334328 1.382586
vt 0.979221 1.391819
vt 0.974836 2.368520
vt 0.334709 2.359355
vt 1.947152 3.359206
vt 0.970451 3.345222
vt 1.951537 2.382504
s 0
usemtl Material.001
f 30/63/9 29/64/9 28/65/9 26/66/9 31/67/9
f 27/68/10 25/69/10 26/66/10 28/70/10
o Right
v -3.306170 4.564719 -9.249352
v -3.202381 -1.815410 -10.219278
v -3.015367 4.564719 -9.251818
v -2.911577 -1.815410 -10.226553
v -3.272456 -1.815410 5.612112
v -2.981652 -1.815410 5.614208
v -2.954206 3.085155 -0.590128
v -2.945194 2.797348 -2.627323
v -2.945190 3.076002 -2.628168
v -2.954199 -1.770434 -0.591846
v -2.953322 -1.774205 -0.789871
v -2.957617 -1.774710 -0.868046
v -2.953771 -1.774263 -0.688510
v -2.954192 0.255704 -0.593292
v -2.945208 -1.449146 -2.624327
v -2.712010 -1.771359 -2.618920
v -2.945214 0.255966 -2.622813
v -2.712461 -1.773627 -2.517072
v -2.952606 -1.774157 -0.951790
v -2.952528 3.082529 -0.592725
v -2.940203 2.797060 -2.627892
v -2.940198 3.075869 -2.628529
v -3.024251 -1.772058 -0.594068
v -2.963973 0.253077 -0.595890
v -3.022151 -1.780840 -0.940915
v -3.022745 -1.776776 -0.842891
v -3.021518 -1.776690 -1.045420
v -3.023515 -1.776865 -0.715684
v -2.989340 -1.369887 -2.627103
v -3.019284 0.253489 -2.625208
v -2.990154 -1.776019 -2.492688
v -2.989380 -1.773164 -2.620336
v -3.236043 7.126045 -2.616855
v -2.945244 7.126045 -2.616103
v -2.911577 4.059547 -10.226553
v -2.911577 4.254922 -10.226553
v -3.202382 4.061110 -10.222440
v -3.011174 4.060494 -10.224061
v -3.202381 4.256732 -10.222544
v -3.004870 4.255901 -10.224218
v -3.210701 5.412504 -7.091208
v -3.239975 7.142423 -1.728345
v -2.949178 7.142423 -1.726766
v -2.981652 4.025134 5.614208
v -2.968649 5.193030 2.674739
v -2.969495 5.319859 2.865983
v -2.981652 4.227629 5.614208
v -2.947226 7.174428 -2.167965
v -3.272456 4.025334 5.612112
v -3.272456 4.226625 5.612112
v -3.237949 7.173729 -2.167797
v -2.951079 7.174041 -2.167013
v -2.948029 7.174427 -2.167967
vn 0.0011 -0.9329 0.3602
vn 1.0000 -0.0000 0.0044
vn 0.1177 -0.9931 -0.0000
vn 1.0000 -0.0033 0.0039
vn 0.4781 -0.8210 0.3119
vn 0.0704 0.9975 -0.0040
vn -0.0072 -0.0000 1.0000
vn -0.0000 -1.0000 -0.0000
vn 0.0004 -0.9532 0.3023
vn -0.0196 -0.0002 -0.9998
vn -0.4287 0.8472 -0.3138
vn -0.1814 0.9180 -0.3526
vn -0.0323 0.0039 0.9995
vn 0.0604 -0.0017 -0.9982
vn -0.0161 0.9999 0.0006
vn 0.3816 0.9243 -0.0016
vn 0.5399 -0.0001 -0.8417
vn -0.0430 0.0021 0.9991
vn -0.0929 -0.0026 -0.9957
vn -0.0405 0.9348 -0.3528
vn 0.0325 0.9264 0.3751
vn -0.0056 0.9294 0.3691
vt 2.580487 2.746425
vt 2.580373 0.985939
vt 1.734689 0.985939
vt 1.734689 2.746425
vt -0.012564 3.817192
vt 0.583579 3.817032
vt 1.416077 3.817384
vt 1.583738 4.180229
vt 1.125942 4.506911
vt -0.025797 4.506911
vt 0.018230 3.786484
vt -0.013674 3.795184
vt -0.013691 3.806449
vt -0.025797 2.746425
vt -0.013503 3.603229
vt -0.013659 3.777190
vt 1.131564 2.746425
vt 1.729828 3.642027
vt 1.413383 3.590882
vt 1.331397 3.590976
vt 0.583656 3.591477
vt 0.081967 3.591309
vt -0.012836 3.591910
vt 1.169717 2.746425
vt 1.734689 3.592223
vt -0.025797 -0.774547
vt -0.025797 -2.535033
vt 1.125942 -2.535033
vt 1.125981 -0.774547
vt -1.786283 0.985939
vt -0.025797 0.985939
vt -1.786283 2.746425
vt 1.170070 0.985939
vt 1.169908 2.181542
vt 1.131749 2.143375
vt 1.131869 0.985939
vt 1.602147 0.776920
vt 1.734689 0.140255
vt 3.846990 3.808820
vt 3.843721 4.220635
vt 3.874320 4.219142
vt 3.876566 3.889957
vt 3.892129 2.151164
vt 3.861598 2.153316
vt 4.148968 2.166562
vt 4.167276 4.233762
vt 4.201164 4.235054
vt 4.182834 2.168872
vt -2.578882 2.519719
vt -2.532514 2.638919
vt -1.242939 3.159210
vt -2.641873 2.764875
vt -2.595130 4.370447
vt -2.541809 4.492332
vt -2.511068 4.493951
vt -2.562963 4.346365
vt -2.578447 2.870764
vt -2.096041 2.918600
vt -2.499272 2.692854
vt -2.539664 2.549445
vt -2.498555 2.439797
vt -2.532666 2.437384
vt -2.305607 4.502768
vt -2.314740 2.435759
vt -2.348859 2.438672
vt -2.336328 4.503124
vt 4.123777 -0.720158
vt 4.157648 -0.717848
vt 3.914428 -0.441169
vt 3.883799 -0.441201
vt 3.916897 -0.725419
vt 3.886256 -0.725603
vt 1.655202 -0.628804
vt 0.346693 -0.640641
vt 0.347112 -0.650823
vt 0.347437 -0.672388
vt 0.885899 -0.666824
vt 1.655280 -0.660373
vt 0.352521 2.859649
vt 0.870233 2.871435
vt 1.722898 2.892415
vt 1.722898 2.892327
vt 1.722727 2.891989
vt 1.722578 2.860725
vt 0.352210 2.830355
vt 1.657966 0.863984
vt 0.365125 0.890285
vt 0.365458 0.857012
vt 0.849417 0.844797
vt 1.657999 0.832653
s 0
usemtl Material.002
f 65/71/11 64/72/11 32/73/11 34/74/11
f 41/75/12 45/76/12 38/77/12 76/78/12 75/79/12 37/80/12
f 43/81/13 42/82/13 44/83/13
f 44/83/12 41/75/12 37/80/12 35/84/12
f 49/85/14 50/86/14 43/81/14 35/84/14 66/87/14 79/88/14 76/78/14 38/77/14 40/89/14 39/90/14 48/91/14 46/92/14 47/93/14
f 67/94/15 65/95/15 34/74/15
f 43/81/16 44/83/16 35/84/16
f 36/96/17 37/97/17 75/98/17 80/99/17
f 36/100/18 33/101/18 35/84/18 37/102/18
f 32/73/19 70/103/19 71/104/19 67/94/19 34/74/19
f 69/105/20 66/87/20 35/84/20 33/101/20 68/106/20
f 70/103/21 32/73/21 72/107/21
f 72/107/22 32/73/22 64/108/22
f 60/109/23 63/110/23 47/111/23 46/112/23 48/113/23 61/114/23
f 45/115/24 41/116/24 54/117/24 55/118/24
f 44/119/25 42/120/25 43/121/25 50/122/25 49/123/25 47/124/25 63/125/25 62/126/25 58/127/25 56/128/25 57/129/25 59/130/25 54/131/25 41/132/25
f 40/133/26 38/134/26 51/135/26 53/136/26
f 38/137/27 45/115/27 55/118/27 51/138/27
f 39/139/28 52/140/28 61/114/28 48/113/28
f 40/141/29 53/142/29 52/140/29 39/139/29
f 65/143/30 67/144/30 71/145/30 70/146/30 72/147/30 64/148/30
f 75/149/31 76/150/31 79/151/31 84/152/31 83/153/31 82/154/31 80/155/31
f 73/156/32 81/157/32 78/158/32 77/159/32 74/160/32
l 33 63
o Back
v 10.607673 4.163886 5.603943
v 10.607673 -1.815410 5.603943
v 10.607673 4.163886 5.787872
v 10.607673 -1.815410 5.787872
v -3.296842 4.163886 5.603943
v -3.296842 -1.815410 5.603943
v -3.296842 4.163886 5.787872
v -3.296842 -1.815410 5.787872
v -1.077714 3.343200 5.787872
v 1.601504 3.343200 5.787872
v -1.077714 0.316645 5.787872
v 1.601504 0.316645 5.787872
v -1.078923 0.316645 5.603943
v -1.078923 3.343200 5.603943
v 1.600296 3.343200 5.603943
v 1.600296 0.316645 5.603943
v 5.043173 0.316645 5.787872
v 7.722392 0.316645 5.787872
v 5.043173 3.343200 5.787872
v 7.722392 3.343200 5.787872
v 5.041965 0.316645 5.603943
v 7.721183 0.316645 5.603943
v 5.041965 3.343200 5.603943
v 7.721183 3.343200 5.603943
vn -0.0000 1.0000 -0.0000
vn -0.0000 -0.0000 1.0000
vn -1.0000 -0.0000 -0.0000
vn -0.0000 -1.0000 -0.0000
vn 1.0000 -0.0000 -0.0000
vn -0.0000 -0.0000 -1.0000
vn -1.0000 -0.0000 0.0066
vn 1.0000 -0.0000 -0.0066
vt 1.020867 0.195678
vt -0.518712 0.191970
vt -0.517548 -1.347608
vt 1.022030 -1.343900
vt 1.023193 -2.883478
vt 2.562772 -2.879769
vt 2.013614 -2.635378
vt 1.234322 -2.637256
vt 1.233810 -1.959521
vt 1.234098 -2.340599
vt 2.013390 -2.338722
vt 2.561609 -1.340191
vt 1.233586 -1.662864
vt 2.012878 -1.660986
vt 2.013103 -1.957643
vt 2.558119 3.278543
vt 1.018541 3.274835
vt 1.019704 1.735257
vt 2.559282 1.738966
vt 4.100024 0.203096
vt 2.560445 0.199387
vt 4.101187 -1.336482
vt 2.010496 1.492064
vt 1.231204 1.490187
vt 1.231940 0.515794
vt 1.231716 0.812451
vt 1.231428 1.193529
vt 2.010720 1.195407
vt 2.011008 0.814328
vt 2.011231 0.517671
vt 1.626373 1.736718
vt 1.342930 1.736035
vt 1.341767 3.275614
vt 1.625210 3.276295
vt 2.559284 1.736681
vt 1.020866 0.197098
vt 1.020866 0.196404
vt 2.559285 1.735986
vt 1.600417 0.197075
vt 1.601580 -1.342503
vt 1.318138 -1.343186
vt 1.316975 0.196392
vt 2.562770 -2.877483
vt 2.562769 -2.876789
vt 1.318154 -1.343186
vt 1.601526 -1.342503
s 0
usemtl Material.003
f 85/161/33 89/162/33 91/163/33 87/164/33
f 91/165/34 92/166/34 95/167/34 93/168/34
f 103/169/34 94/170/34 96/171/34 95/167/34 92/166/34 88/172/34 87/164/34 104/173/34 102/174/34 101/175/34
f 104/173/34 87/164/34 91/165/34 93/168/34 94/170/34 103/169/34
f 92/176/35 91/177/35 89/178/35 90/179/35
f 90/180/36 86/181/36 88/172/36 92/182/36
f 86/181/37 85/161/37 87/164/37 88/172/37
f 97/183/38 90/179/38 89/178/38 98/184/38
f 89/178/38 85/161/38 108/185/38 107/186/38 99/187/38 98/184/38
f 85/161/38 86/181/38 90/179/38 97/183/38 100/188/38 99/187/38 107/186/38 105/189/38 106/190/38 108/185/38
f 94/191/39 99/192/39 100/193/39 96/194/39
f 94/195/36 93/196/36 98/197/36 99/198/36
f 93/199/40 95/200/40 97/201/40 98/202/40
f 97/201/33 95/200/33 96/203/33 100/204/33
f 104/191/39 108/192/39 106/193/39 102/194/39
f 104/195/36 103/196/36 107/197/36 108/198/36
f 103/199/40 101/200/40 105/201/40 107/202/40
f 105/205/33 101/206/33 102/203/33 106/204/33
o RoofFront
v 11.927608 7.385909 -2.087906
v 11.679561 3.484146 -12.393162
v 11.804250 7.205732 -2.086719
v 11.679561 3.315275 -12.320274
v -4.296778 7.374603 -2.159607
v -4.095177 3.484146 -12.393162
v -4.296778 7.205732 -2.086719
v -4.095177 3.315275 -12.320274
vn -0.0022 0.2084 0.9781
vn -0.0000 -0.9347 0.3554
vn -0.9998 -0.0073 -0.0169
vn -0.0000 -0.3963 -0.9181
vn 0.9446 -0.3123 0.1013
vn 0.0005 0.9350 -0.3547
vt 0.625000 0.500000
vt 0.875000 0.500000
vt 0.875000 0.750000
vt 0.625000 0.750000
vt 0.375000 0.750000
vt 0.625000 1.000000
vt 0.375000 1.000000
vt 0.375000 0.000000
vt 0.625000 0.000000
vt 0.625000 0.250000
vt 0.375000 0.250000
vt 0.125000 0.500000
vt 0.375000 0.500000
vt 0.125000 0.750000
s 0
usemtl Material.007
f 109/207/41 113/208/41 115/209/41 111/210/41
f 112/211/42 111/210/42 115/212/42 116/213/42
f 116/214/43 115/215/43 113/216/43 114/217/43
f 114/218/44 110/219/44 112/211/44 116/220/44
f 110/219/45 109/207/45 111/210/45 112/211/45
f 114/217/46 113/216/46 109/207/46 110/219/46
o RoofBack
v -4.290621 7.370018 -2.114604
v -4.056860 3.402131 7.597058
v -4.289468 7.201148 -2.111929
v -4.055708 3.233260 7.524179
v 11.944399 7.347039 -1.985471
v 11.633339 3.322679 8.040367
v 11.812994 7.150236 -2.017231
v 11.648575 3.153808 7.967490
vn 0.0071 0.0768 -0.9970
vn 0.0026 -0.9266 -0.3761
vn 0.9563 -0.2784 -0.0889
vn -0.0279 -0.3972 0.9173
vn -0.9997 -0.0109 0.0197
vn -0.0038 0.9269 0.3753
vt 0.625000 0.500000
vt 0.875000 0.500000
vt 0.875000 0.750000
vt 0.625000 0.750000
vt 0.375000 0.750000
vt 0.625000 1.000000
vt 0.375000 1.000000
vt 0.375000 0.000000
vt 0.625000 0.000000
vt 0.625000 0.250000
vt 0.375000 0.250000
vt 0.125000 0.500000
vt 0.375000 0.500000
vt 0.125000 0.750000
s 0
usemtl Material.008
f 117/221/47 121/222/47 123/223/47 119/224/47
f 120/225/48 119/224/48 123/226/48 124/227/48
f 124/228/49 123/229/49 121/230/49 122/231/49
f 122/232/50 118/233/50 120/225/50 124/234/50
f 118/233/51 117/221/51 119/224/51 120/225/51
f 122/231/52 121/230/52 117/221/52 118/233/52
o Cube
v 11.988374 7.372925 -2.273651
v 12.000769 7.278767 -2.405933
v -4.290657 7.396983 -2.243873
v -4.325062 7.262403 -2.453142
v 12.022643 7.350598 -1.904933
v 11.994361 7.262041 -1.783463
v -4.317131 7.321476 -1.933480
v -4.326239 7.241242 -1.840032
v 11.987613 7.346814 -2.305917
v 11.996160 7.291030 -1.833300
v 11.997930 7.445027 -2.096748
v 11.996985 7.380227 -2.095743
v 11.999902 7.408355 -2.096168
v 11.994358 7.405760 -1.999045
v 11.993371 7.419013 -2.195316
v 11.996646 7.350873 -2.187871
v 11.997490 7.324762 -1.968189
v 11.993367 7.394152 -2.191252
v 12.001437 7.371404 -1.997967
v -4.289333 7.395748 -2.025834
v -4.309374 7.349412 -2.135152
v -4.311378 7.329075 -2.343426
v -4.273860 7.438480 -2.132837
v -4.316449 7.318858 -2.030748
v -4.307111 7.341973 -2.200950
vn 0.0004 0.8309 -0.5564
vn -0.9578 0.2874 0.0019
vn -0.0026 0.7867 0.6174
vn 0.9874 0.1434 -0.0671
vn -0.0010 0.9897 0.1429
vn 0.0013 -0.9995 -0.0307
vn 0.9976 0.0251 -0.0640
vn 0.9759 -0.1700 -0.1367
vn 0.9944 -0.1007 -0.0332
vt 0.375000 0.000000
vt 0.500000 0.000000
vt 0.625000 0.000000
vt 0.625000 0.250000
vt 0.500000 0.250000
vt 0.375000 0.250000
vt 0.625000 0.312500
vt 0.625000 0.375000
vt 0.625000 0.437500
vt 0.625000 0.500000
vt 0.375000 0.500000
vt 0.375000 0.375000
vt 0.375000 0.312500
vt 0.625000 0.750000
vt 0.500000 0.750000
vt 0.375000 0.750000
vt 0.500000 0.875000
vt 0.625000 0.875000
vt 0.625000 0.937500
vt 0.625000 1.000000
vt 0.500000 1.000000
vt 0.500000 0.937500
vt 0.125000 0.500000
vt 0.187500 0.500000
vt 0.250000 0.500000
vt 0.312500 0.750000
vt 0.250000 0.750000
vt 0.187500 0.750000
vt 0.125000 0.750000
vt 0.687500 0.500000
vt 0.750000 0.500000
vt 0.812500 0.500000
vt 0.875000 0.500000
vt 0.875000 0.750000
vt 0.812500 0.750000
vt 0.750000 0.750000
vt 0.687500 0.750000
vt 0.375000 0.875000
vt 0.375000 1.000000
vt 0.375000 0.937500
vt 0.500000 0.812500
vt 0.375000 0.812500
vt 0.625000 0.812500
s 0
usemtl Material.024
f 125/235/53 133/236/53 126/237/53 128/238/53 146/239/53 127/240/53
f 127/240/54 146/239/54 128/238/54 149/241/54 145/242/54 148/243/54 132/244/54 131/245/54 144/246/54 147/247/54
f 131/245/55 132/244/55 130/248/55 134/249/55 129/250/55
f 137/251/56 136/252/56 140/253/56 126/254/56 133/255/56 142/256/56
f 127/257/57 147/258/57 144/259/57 131/245/57 129/250/57 138/260/57 135/261/57 139/262/57 125/263/57
f 132/244/58 148/264/58 145/265/58 149/266/58 128/267/58 126/268/58 140/269/58 136/270/58 141/271/58 130/248/58
f 135/272/59 137/251/59 142/256/59 133/255/59 125/273/59 139/274/59
f 129/250/60 134/249/60 143/275/60 137/251/60 135/272/60 138/276/60
f 134/249/61 130/248/61 141/277/61 136/252/61 137/251/61 143/275/61
o Floor
v 10.560522 -1.989770 -10.369864
v 10.560522 -1.805929 -10.369864
v 10.560524 -1.989770 5.737311
v 10.560524 -1.805929 5.737311
v -3.177333 -1.989770 -10.369862
v -3.177333 -1.805929 -10.369862
v -3.177332 -1.989770 5.737313
v -3.177332 -1.805929 5.737313
vn 1.0000 -0.0000 -0.0000
vn -0.0000 -0.0000 1.0000
vn -1.0000 -0.0000 -0.0000
vn -0.0000 -0.0000 -1.0000
vn -0.0000 -1.0000 -0.0000
vn -0.0000 1.0000 -0.0000
vt -0.523447 -3.593788
vt 1.523447 -3.593788
vt 1.523447 -1.546894
vt -0.523447 -1.546894
vt 1.523447 0.500000
vt -0.523447 0.500000
vt 1.523447 2.546894
vt -0.523447 2.546894
vt 1.523447 4.593788
vt -0.523447 4.593788
vt -2.570341 0.500000
vt -2.570341 2.546894
vt 3.570341 0.500000
vt 3.570341 2.546894
s 0
usemtl Material.017
f 150/278/62 151/279/62 153/280/62 152/281/62
f 152/281/63 153/280/63 157/282/63 156/283/63
f 156/283/64 157/282/64 155/284/64 154/285/64
f 154/285/65 155/284/65 151/286/65 150/287/65
f 152/288/66 156/283/66 154/285/66 150/289/66
f 157/282/67 153/290/67 151/291/67 155/284/67
