# Blender 4.4.0
# www.blender.org
mtllib floor.mtl
o Floor
v 10.560522 -1.989770 -10.369864
v 10.560522 -1.805929 -10.369864
v 10.560524 -1.989770 5.737311
v 10.560524 -1.805929 5.737311
v -3.177333 -1.989770 -10.369862
v -3.177333 -1.805929 -10.369862
v -3.177332 -1.989770 5.737313
v -3.177332 -1.805929 5.737313
vn 1.0000 -0.0000 -0.0000
vn -0.0000 -0.0000 1.0000
vn -1.0000 -0.0000 -0.0000
vn -0.0000 -0.0000 -1.0000
vn -0.0000 -1.0000 -0.0000
vn -0.0000 1.0000 -0.0000
vt -0.523447 -3.593788
vt 1.523447 -3.593788
vt 1.523447 -1.546894
vt -0.523447 -1.546894
vt 1.523447 0.500000
vt -0.523447 0.500000
vt 1.523447 2.546894
vt -0.523447 2.546894
vt 1.523447 4.593788
vt -0.523447 4.593788
vt -2.570341 0.500000
vt -2.570341 2.546894
vt 3.570341 0.500000
vt 3.570341 2.546894
s 0
usemtl Material.017
f 1/1/1 2/2/1 4/3/1 3/4/1
f 3/4/2 4/3/2 8/5/2 7/6/2
f 7/6/3 8/5/3 6/7/3 5/8/3
f 5/8/4 6/7/4 2/9/4 1/10/4
f 3/11/5 7/6/5 5/8/5 1/12/5
f 8/5/6 4/13/6 2/14/6 6/7/6
