# Blender 4.4.0
# www.blender.org
mtllib maincottage.mtl
o Leftt
v 10.695137 4.162337 -10.407685
v 10.695137 -1.835222 -10.407685
v 10.695137 4.162337 -10.223756
v 10.695137 -1.835222 -10.223756
v -3.209378 4.162337 -10.407685
v -3.209378 -1.835222 -10.407685
v -3.209378 4.162337 -10.223756
v -3.209378 -1.835222 -10.223756
v -1.052011 3.368977 -10.223756
v 1.627097 3.368867 -10.223534
v -1.050788 0.343653 -10.221298
v 1.584492 0.385030 -10.180994
v -1.052021 0.343628 -10.410110
v -1.053219 3.368977 -10.407685
v 1.625893 3.368871 -10.407898
v 1.583387 0.384970 -10.449830
v 5.195874 0.391804 -10.175016
v 7.811332 0.357033 -10.209033
v 7.825758 3.368977 -10.223756
v 5.146540 3.368977 -10.223756
v 5.194250 0.391234 -10.456684
v 7.809706 0.357476 -10.422676
v 5.145332 3.368977 -10.407685
v 7.824551 3.368977 -10.407685
vn -0.0000 1.0000 -0.0000
vn -0.0007 0.0003 1.0000
vn -0.0000 0.0001 1.0000
vn 0.0003 -0.0030 1.0000
vn -1.0000 -0.0000 -0.0000
vn -0.0000 -1.0000 -0.0000
vn 1.0000 -0.0000 -0.0000
vn -0.0006 0.0003 -1.0000
vn -0.0000 0.0001 -1.0000
vn 0.0003 -0.0030 -1.0000
vn -0.9999 0.0143 0.0051
vn 1.0000 0.0004 -0.0065
vn -0.0157 0.9999 -0.0001
vn -1.0000 0.0049 0.0071
vn 0.9998 0.0165 -0.0061
vn 0.0131 0.9999 -0.0003
vt 0.538115 1.057603
vt 0.525034 1.119946
vt 0.482886 1.119098
vt 0.483462 1.056548
vt 0.180613 1.034783
vt 0.189311 0.051074
vt 0.232026 0.409032
vt 0.228535 0.905457
vt 0.421857 0.925350
vt 0.286798 0.923043
vt 0.363480 0.924353
vt 0.290289 0.426618
vt 0.490350 0.077213
vt 0.425348 0.428926
vt 0.366971 0.427928
vt 0.874348 0.079627
vt 0.867430 1.063366
vt 0.847117 1.062880
vt 0.854035 0.079142
vt 0.532971 0.030406
vt 0.532528 0.073657
vt 0.490823 0.029558
vt 0.804543 0.435523
vt 0.801052 0.931948
vt 0.603129 0.928568
vt 0.661506 0.929566
vt 0.738189 0.930876
vt 0.741679 0.434451
vt 0.664997 0.433141
vt 0.606620 0.432143
vt 0.851713 0.409363
vt 0.850440 0.590473
vt 0.870752 0.590958
vt 0.872026 0.409848
vt 0.853786 0.079138
vt 0.364186 1.054716
vt 0.538458 1.057609
vt 0.853650 0.079136
vt 0.534081 -0.159378
vt 0.491933 -0.160225
vt 0.490660 0.020885
vt 0.532807 0.021732
vt 0.490660 0.020891
vt 0.491933 -0.160227
vt 0.189560 0.051079
vt 0.189697 0.051081
vt 0.851708 0.410162
vt 0.850434 0.591273
vt 0.870747 0.591757
vt 0.872020 0.410647
vt 0.853786 0.079138
vt 0.538594 1.057611
vt 0.538457 1.057609
vt 0.853649 0.079136
vt 0.534075 -0.158579
vt 0.491928 -0.159426
vt 0.490654 0.021684
vt 0.532801 0.022531
vt 0.490654 0.021695
vt 0.491928 -0.159441
vt 0.189561 0.051079
vt 0.189697 0.051081
s 0
usemtl Material.019
f 1/1/1 5/2/1 7/3/1 3/4/1
f 7/5/2 8/6/2 11/7/2 9/8/2
f 19/9/3 3/4/3 7/5/3 9/8/3 10/10/3 20/11/3
f 10/10/4 12/12/4 11/7/4 8/6/4 4/13/4 3/4/4 19/9/4 18/14/4 17/15/4 20/11/4
f 8/16/5 7/17/5 5/18/5 6/19/5
f 6/20/6 2/21/6 4/13/6 8/22/6
f 2/21/7 1/1/7 3/4/7 4/13/7
f 13/23/8 6/19/8 5/18/8 14/24/8
f 5/18/9 1/1/9 24/25/9 23/26/9 15/27/9 14/24/9
f 1/1/10 2/21/10 6/19/10 13/23/10 16/28/10 15/27/10 23/26/10 21/29/10 22/30/10 24/25/10
f 10/31/11 15/32/11 16/33/11 12/34/11
f 10/35/6 9/36/6 14/37/6 15/38/6
f 9/39/12 11/40/12 13/41/12 14/42/12
f 13/43/13 11/44/13 12/45/13 16/46/13
f 19/47/14 24/48/14 22/49/14 18/50/14
f 19/51/6 20/52/6 23/53/6 24/54/6
f 20/55/15 17/56/15 21/57/15 23/58/15
f 21/59/16 17/60/16 18/61/16 22/62/16
o Right
v 10.695137 4.162337 5.532956
v 10.695137 -1.835222 5.532956
v 10.695137 4.162337 5.716886
v 10.695137 -1.835222 5.716886
v -3.209378 4.162337 5.532956
v -3.209378 -1.835222 5.532956
v -3.209378 4.162337 5.716886
v -3.209378 -1.835222 5.716886
v -1.052011 3.368977 5.716886
v 1.627208 3.368977 5.716886
v -1.052011 0.342422 5.716886
v 1.627208 0.342422 5.716886
v -1.053219 0.342422 5.532956
v -1.053219 3.368977 5.532956
v 1.625999 3.368977 5.532956
v 1.625999 0.342422 5.532956
v 5.146540 0.342422 5.716886
v 7.825758 0.342422 5.716886
v 7.825758 3.368977 5.716886
v 5.146540 3.368977 5.716886
v 5.145332 0.342422 5.532956
v 7.824551 0.342422 5.532956
v 5.145332 3.368977 5.532956
v 7.824551 3.368977 5.532956
vn -0.0000 1.0000 -0.0000
vn -0.0000 -0.0000 1.0000
vn -1.0000 -0.0000 -0.0000
vn -0.0000 -1.0000 -0.0000
vn 1.0000 -0.0000 -0.0000
vn -0.0000 -0.0000 -1.0000
vn -1.0000 -0.0000 0.0066
vn 1.0000 -0.0000 -0.0066
vt 0.444430 1.440853
vt 0.447347 2.989596
vt -0.194987 2.992588
vt -0.197903 1.443845
vt -0.840237 1.446837
vt -0.843154 -0.101906
vt -0.742433 0.459959
vt -0.740961 1.241503
vt -0.330843 1.239593
vt -0.617191 1.240927
vt -0.454612 1.240170
vt -0.618663 0.459384
vt -0.200820 -0.104898
vt -0.332315 0.458050
vt -0.456084 0.458626
vt 1.726180 -0.113874
vt 1.729097 1.434869
vt 1.086764 1.437861
vt 1.083847 -0.110882
vt 0.438597 -1.656633
vt 0.441514 -0.107890
vt -0.203737 -1.653641
vt 0.985300 0.451913
vt 0.986772 1.233456
vt 0.576654 1.235366
vt 0.700423 1.234791
vt 0.863003 1.234033
vt 0.861531 0.452489
vt 0.698952 0.453246
vt 0.575182 0.453822
vt 1.084826 0.408999
vt 1.085363 0.694129
vt 1.727697 0.691137
vt 1.727160 0.406008
vt 1.083319 -0.110880
vt 0.445448 1.440848
vt 0.445158 1.440850
vt 1.083029 -0.110878
vt 0.442544 0.439271
vt -0.199790 0.442263
vt -0.199253 0.727393
vt 0.443081 0.724400
vt -0.199253 0.727402
vt -0.199790 0.442260
vt -0.842625 -0.101909
vt -0.842336 -0.101910
vt 1.084828 0.410258
vt 1.085366 0.695388
vt 1.727699 0.692396
vt 1.727162 0.407266
vt 1.083318 -0.110880
vt 0.445447 1.440848
vt 0.445157 1.440850
vt 1.083028 -0.110878
vt 0.442546 0.440529
vt -0.199787 0.443521
vt -0.199250 0.728650
vt 0.443083 0.725659
vt -0.199250 0.728668
vt -0.199787 0.443498
vt -0.842624 -0.101909
vt -0.842335 -0.101910
s 0
usemtl Material.011
f 25/63/17 29/64/17 31/65/17 27/66/17
f 31/67/18 32/68/18 35/69/18 33/70/18
f 43/71/18 27/66/18 31/67/18 33/70/18 34/72/18 44/73/18
f 34/72/18 36/74/18 35/69/18 32/68/18 28/75/18 27/66/18 43/71/18 42/76/18 41/77/18 44/73/18
f 32/78/19 31/79/19 29/80/19 30/81/19
f 30/82/20 26/83/20 28/75/20 32/84/20
f 26/83/21 25/63/21 27/66/21 28/75/21
f 37/85/22 30/81/22 29/80/22 38/86/22
f 29/80/22 25/63/22 48/87/22 47/88/22 39/89/22 38/86/22
f 25/63/22 26/83/22 30/81/22 37/85/22 40/90/22 39/89/22 47/88/22 45/91/22 46/92/22 48/87/22
f 34/93/23 39/94/23 40/95/23 36/96/23
f 34/97/20 33/98/20 38/99/20 39/100/20
f 33/101/24 35/102/24 37/103/24 38/104/24
f 37/105/17 35/106/17 36/107/17 40/108/17
f 43/109/23 48/110/23 46/111/23 42/112/23
f 43/113/20 44/114/20 47/115/20 48/116/20
f 44/117/24 41/118/24 45/119/24 47/120/24
f 45/121/17 41/122/17 42/123/17 46/124/17
o Cube.001
v 10.600754 -1.805930 -10.344163
v 10.600754 4.230713 -10.344163
v 10.600757 -1.805930 5.671584
v 10.600757 4.355925 5.671584
v 10.411801 -1.805930 -10.344163
v 10.411801 4.230713 -10.344163
v 10.411804 -1.805930 5.671584
v 10.411804 4.355925 5.671584
v 10.600756 7.142867 -2.336289
v 10.506280 4.355925 5.671584
v 10.411802 7.142867 -2.336289
v 10.506278 4.230713 -10.344163
v 10.506279 7.142867 -2.336289
vn 1.0000 -0.0000 -0.0000
vn -0.0000 -0.0000 1.0000
vn -1.0000 -0.0000 -0.0000
vn -0.0000 -0.0000 -1.0000
vn -0.0000 -1.0000 -0.0000
vn -0.0000 0.9398 -0.3418
vn -0.0000 0.9444 0.3287
vt 0.840894 -0.134409
vt 0.828488 0.498752
vt 0.683588 0.897129
vt 0.565888 0.486346
vt 0.578294 -0.146815
vt 0.669081 0.491221
vt 0.537781 0.485018
vt 0.550187 -0.148142
vt 0.393661 0.843569
vt 0.275181 0.472612
vt 0.287587 -0.160549
vt 0.257463 0.471775
vt 0.228754 0.470418
vt 0.241160 -0.162742
vt 0.550888 -0.183925
vt 0.288288 -0.196331
vt 0.392698 0.892751
vt 0.392291 0.913487
vt 0.273811 0.542530
vt 0.274217 0.521794
vt 0.536817 0.534200
vt 0.536411 0.554936
s 0
usemtl Material.014
f 49/125/25 50/126/25 57/127/25 52/128/25 51/129/25
f 51/129/26 52/128/26 58/130/26 56/131/26 55/132/26
f 55/132/27 56/131/27 59/133/27 54/134/27 53/135/27
f 53/135/28 54/134/28 60/136/28 50/137/28 49/138/28
f 51/139/29 55/132/29 53/135/29 49/140/29
f 61/141/30 57/142/30 50/143/30 60/144/30
f 59/133/30 61/141/30 60/144/30 54/134/30
f 56/131/31 58/145/31 61/141/31 59/133/31
f 58/145/31 52/146/31 57/142/31 61/141/31
o Cube.003
v -3.096765 -1.805930 -10.254205
v -3.096765 4.230713 -10.254205
v -3.096763 -1.805930 5.761542
v -3.096763 4.355925 5.761542
v -3.285718 -1.805930 -10.254205
v -3.285718 4.230713 -10.254205
v -3.285715 -1.805930 5.761542
v -3.285715 4.355925 5.761542
v -3.096764 7.142867 -2.246331
v -3.191239 4.355925 5.761542
v -3.285717 7.142867 -2.246331
v -3.096764 -1.668469 -2.613212
v -3.096764 -1.668469 -0.541937
v -3.096764 3.200464 -2.613212
v -3.096764 3.200464 -0.541936
v -3.285717 -1.668554 -2.613215
v -3.285716 -1.668554 -0.541939
v -3.285717 3.200378 -2.613215
v -3.285716 3.200378 -0.541939
v -3.096764 -1.805930 -2.246331
v -3.285717 -1.805930 -2.246331
vn 1.0000 -0.0000 -0.0000
vn -0.0000 -0.0000 1.0000
vn -1.0000 -0.0000 -0.0000
vn -0.0000 -0.0000 -1.0000
vn -0.0000 -1.0000 -0.0000
vn -0.0000 0.9398 -0.3418
vn -0.0000 0.9444 0.3287
vn -0.0004 1.0000 -0.0000
vn 0.0005 -1.0000 -0.0000
vt 0.505355 0.990690
vt 0.347303 0.988674
vt 0.340138 0.974117
vt 0.381019 0.974578
vt 0.509386 0.265883
vt 0.383575 0.392551
vt 0.514536 0.226661
vt 0.521167 0.228677
vt 0.517136 0.990840
vt 0.641625 0.995490
vt 0.644180 0.349736
vt 0.679219 -0.065956
vt 0.685024 0.355028
vt 0.380143 1.001819
vt 0.380143 0.968607
vt 0.375000 0.968607
vt 0.833239 0.994872
vt 0.517053 1.006519
vt 0.675188 0.992856
vt 0.833156 1.010550
vt 0.675105 1.008535
vt 0.679496 0.178338
vt 0.679737 0.132832
vt 0.837788 0.134848
vt 0.837548 0.180354
vt 0.521444 0.176322
vt 0.521685 0.130816
vt 0.191357 0.588585
vt 0.191018 0.652562
vt 0.507118 0.657333
vt 0.507456 0.593460
vt 0.507456 0.593358
vt 0.507118 0.657335
vt 0.835007 0.660762
vt 0.835345 0.596786
vt 0.519237 0.593612
vt 0.518899 0.657484
vt 0.835007 0.660763
vt 0.835345 0.596787
vt 0.342657 0.390207
vt 0.351334 -0.371181
vt 0.837271 0.232709
vt 0.682505 0.996071
vt 0.193283 0.261851
vt 0.189251 0.986658
s 0
usemtl Material.013
f 64/147/32 81/148/32 73/149/32 74/150/32
f 65/151/32 64/147/32 74/150/32 76/152/32
f 71/153/33 69/154/33 68/155/33 64/147/33 65/151/33
f 78/156/34 68/155/34 69/154/34 80/157/34
f 80/157/34 69/154/34 72/158/34 79/159/34
f 67/160/35 63/161/35 62/162/35 66/163/35
f 64/164/36 68/155/36 82/165/36 66/163/36 62/166/36 81/167/36
f 72/168/37 70/169/37 63/170/37 67/171/37
f 69/154/38 71/172/38 72/158/38
f 71/172/38 65/173/38 70/169/38 72/168/38
f 75/174/33 79/175/33 77/176/33 73/177/33
f 74/178/39 73/178/39 77/179/39 78/179/39
f 80/180/35 76/181/35 74/182/35 78/183/35
f 76/181/40 80/180/40 79/184/40 75/185/40
f 75/186/32 70/187/32 65/151/32 76/152/32
f 79/159/34 72/158/34 67/188/34
f 67/188/34 66/163/34 82/165/34 77/189/34 79/159/34
f 75/186/32 63/190/32 70/187/32
f 77/189/34 82/165/34 68/155/34 78/156/34
f 73/149/32 81/148/32 62/191/32 63/190/32 75/186/32
