# Blender 4.4.0
# www.blender.org
mtllib maincottage.mtl
o Cube.005
v -2.400342 -2.880769 4.615537
v -2.400342 6.683403 4.615537
v -2.400342 -2.880769 4.306642
v -2.400342 6.683403 4.306642
v 17.126909 -2.880769 4.615538
v 17.126909 6.683403 4.615537
v 17.126909 -2.880769 4.306641
v 17.126909 6.683403 4.306642
v 5.525061 5.166691 4.632323
v 0.662996 5.163008 4.631077
v 0.666225 -0.259073 4.626247
v 5.508564 -0.277351 4.628079
v 5.473464 5.207610 4.290239
v 0.664560 5.208664 4.289456
v 0.692054 -0.129405 4.320019
v 5.434245 -0.140588 4.328725
v 14.790032 5.254430 4.289089
v 11.330366 5.272746 4.313209
v 11.267826 1.195821 4.292558
v 14.451334 1.210158 4.304958
v 14.748773 5.249427 4.631415
v 11.262993 5.283319 4.621603
v 11.196434 1.157217 4.633696
v 14.412110 1.184872 4.615482
v -2.371475 -2.851901 4.586670
v -2.371475 6.654535 4.586670
v -2.371475 -2.851901 4.335508
v -2.371475 6.654535 4.335508
v 17.098042 -2.851901 4.586670
v 17.098042 6.654535 4.586670
v 17.098042 -2.851901 4.335508
v 17.098042 6.654535 4.335508
v 5.541116 5.179264 4.586670
v 0.645668 5.178099 4.586670
v 0.647133 -0.282931 4.586670
v 5.527045 -0.298416 4.586670
v 5.486523 5.224347 4.335508
v 0.651629 5.223225 4.335508
v 0.653038 -0.156568 4.335508
v 5.472964 -0.171488 4.335508
v 14.804293 5.266342 4.335508
v 11.302240 5.307555 4.335508
v 11.250593 1.176893 4.335508
v 14.480673 1.183589 4.335508
v 14.764444 5.265308 4.586670
v 11.236183 5.307003 4.586670
v 11.183931 1.145717 4.586670
v 14.437038 1.152492 4.586670
vn -1.0000 -0.0000 -0.0000
vn 0.0013 -0.0023 -1.0000
vn 1.0000 -0.0000 -0.0000
vn 0.0013 -0.0027 1.0000
vn -0.0000 -1.0000 -0.0000
vn -0.0000 1.0000 -0.0000
vn -0.0001 0.0108 0.9999
vn 0.0003 -0.9921 -0.1256
vn -0.0000 0.0113 -0.9999
vn -0.9810 0.0057 0.1941
vn -0.0012 0.0015 -1.0000
vn -0.0075 -0.9999 0.0073
vn -0.0014 0.0001 1.0000
vn 0.9780 -0.0156 0.2083
vn -0.9896 0.0824 -0.1182
vn -0.0064 0.9953 0.0965
vn 0.9991 0.0030 0.0430
vn 0.0024 0.9154 0.4025
vn -0.0000 -0.0000 1.0000
vn -0.0000 -0.0000 -1.0000
vn -0.0002 0.9843 0.1768
vn 0.9772 -0.0025 -0.2123
vn 0.0118 0.9999 0.0056
vn -0.9669 0.0121 -0.2547
vn 0.9842 -0.0782 0.1586
vn 0.0021 -0.9925 -0.1226
vn -0.9997 -0.0003 -0.0237
vn -0.0028 -0.8930 -0.4500
vt 0.025653 0.000060
vt 0.345600 0.000060
vt 0.345600 0.040098
vt 0.025653 0.040098
vt 0.161245 0.263953
vt 0.161471 0.296268
vt 0.247884 0.301586
vt 0.345600 0.360045
vt 0.025653 0.360045
vt 0.345600 0.679993
vt 0.025653 0.679993
vt 0.247850 0.739106
vt 0.160424 0.744487
vt 0.160196 0.777181
vt 0.025653 0.999940
vt 0.000060 0.360045
vt 0.000060 0.679993
vt 0.362065 0.360045
vt 0.362065 0.679993
vt 0.345600 0.999940
vt 0.259354 0.950358
vt 0.259393 0.923112
vt 0.260873 0.089777
vt 0.260911 0.116028
vt 0.188244 0.115805
vt 0.183972 0.923344
vt 0.249271 0.264801
vt 0.188746 0.089800
vt 0.249253 0.776322
vt 0.184493 0.950334
s 0
usemtl Material.016
f 1/1/1 2/2/1 4/3/1 3/4/1
f 3/4/2 19/5/2 20/6/2 17/7/2 8/8/2 7/9/2
f 7/9/3 8/8/3 6/10/3 5/11/3
f 5/11/4 6/10/4 21/12/4 24/13/4 23/14/4 1/15/4
f 3/16/5 7/9/5 5/11/5 1/17/5
f 8/8/6 4/18/6 2/19/6 6/10/6
f 2/20/7 10/21/7 9/22/7 6/10/7
f 10/21/8 14/23/8 13/24/8 9/22/8
f 8/8/9 13/24/9 14/23/9 4/3/9
f 9/22/10 13/24/10 16/25/10 12/26/10
f 8/8/11 17/7/11 18/27/11 19/5/11 3/4/11 4/3/11 14/23/11 15/28/11 16/25/11 13/24/11
f 18/27/12 17/7/12 21/12/12 22/29/12
f 1/15/13 23/14/13 22/29/13 21/12/13 6/10/13 9/22/13 12/26/13 11/30/13 10/21/13 2/20/13
f 19/5/14 18/27/14 22/29/14 23/14/14
f 17/7/15 20/6/15 24/13/15 21/12/15
f 20/6/16 19/5/16 23/14/16 24/13/16
f 11/30/17 15/28/17 14/23/17 10/21/17
f 12/26/18 16/25/18 15/28/18 11/30/18
f 25/1/3 27/4/3 28/3/3 26/2/3
f 27/4/19 31/9/19 32/8/19 41/7/19 44/6/19 43/5/19
f 31/9/1 29/11/1 30/10/1 32/8/1
f 29/11/20 25/15/20 47/14/20 48/13/20 45/12/20 30/10/20
f 27/16/6 25/17/6 29/11/6 31/9/6
f 32/8/5 30/10/5 26/19/5 28/18/5
f 26/20/20 30/10/20 33/22/20 34/21/20
f 34/21/21 33/22/21 37/24/21 38/23/21
f 32/8/19 28/3/19 38/23/19 37/24/19
f 33/22/22 36/26/22 40/25/22 37/24/22
f 32/8/19 37/24/19 40/25/19 39/28/19 38/23/19 28/3/19 27/4/19 43/5/19 42/27/19 41/7/19
f 42/27/23 46/29/23 45/12/23 41/7/23
f 25/15/20 26/20/20 34/21/20 35/30/20 36/26/20 33/22/20 30/10/20 45/12/20 46/29/20 47/14/20
f 43/5/24 47/14/24 46/29/24 42/27/24
f 41/7/25 45/12/25 48/13/25 44/6/25
f 44/6/26 48/13/26 47/14/26 43/5/26
f 35/30/27 34/21/27 38/23/27 39/28/27
f 36/26/28 35/30/28 39/28/28 40/25/28
