# Blender 4.4.0
# www.blender.org
mtllib ball.mtl
o Cube.001
v 0.547181 -0.638582 -0.017355
v 0.528402 -1.159522 0.089699
v 0.530956 -0.633176 0.104818
v 0.512178 -1.154116 0.211873
v 0.692455 -0.638582 -0.017355
v 0.673677 -1.159522 0.089699
v 0.676231 -0.633176 0.104818
v 0.657452 -1.154116 0.211873
v 0.528402 -1.546616 0.106828
v 0.512178 -1.541209 0.229001
v 0.673677 -1.546616 0.106828
v 0.657452 -1.541209 0.229001
v 0.528402 -1.648972 0.111357
v 0.512178 -1.643566 0.233531
v 0.673677 -1.648972 0.111357
v 0.657452 -1.643566 0.233531
v 0.572860 -1.602060 -0.140451
v 0.528402 -1.555679 -0.098001
v 0.673677 -1.555679 -0.098001
v 0.629218 -1.602060 -0.140451
v 0.528402 -1.658036 -0.093472
v 0.572860 -1.615586 -0.139852
v 0.629218 -1.615586 -0.139852
v 0.673677 -1.658036 -0.093472
v 0.000000 0.655999 -0.707107
v 0.000000 0.449172 -0.866025
v 0.000000 0.212154 -0.965926
v 0.000000 -0.514037 -0.866025
v 0.000000 -0.715306 -0.707107
v 0.050493 0.914818 -0.253846
v 0.097545 0.814918 -0.490393
v 0.137950 0.655999 -0.693520
v 0.168953 0.448893 -0.849385
v 0.188443 0.212476 -0.947366
v 0.195090 -0.039863 -0.980785
v 0.188443 -0.289804 -0.947366
v 0.168953 -0.514585 -0.849385
v 0.137950 -0.715001 -0.693520
v 0.097545 -0.870927 -0.490393
v 0.050493 -0.969409 -0.253846
v 0.099046 0.914818 -0.239118
v 0.191342 0.814918 -0.461940
v 0.270598 0.656000 -0.653282
v 0.331414 0.449377 -0.800103
v 0.369644 0.212381 -0.892399
v 0.382683 -0.039876 -0.923879
v 0.369644 -0.289888 -0.892399
v 0.331414 -0.515271 -0.800103
v 0.270598 -0.715606 -0.653281
v 0.191342 -0.871009 -0.461940
v 0.099046 -0.969445 -0.239118
v 0.143792 0.914818 -0.215200
v 0.277785 0.814918 -0.415735
v 0.392847 0.656000 -0.587938
v 0.481138 0.450057 -0.720074
v 0.536640 0.212353 -0.803138
v 0.555570 -0.039870 -0.831469
v 0.536640 -0.289836 -0.803138
v 0.481138 -0.516629 -0.720074
v 0.392847 -0.716193 -0.587938
v 0.277785 -0.871163 -0.415735
v 0.143792 -0.969512 -0.215200
v 0.183013 0.914818 -0.183013
v 0.353553 0.814918 -0.353553
v 0.500000 0.656000 -0.500000
v 0.612372 0.450727 -0.612372
v 0.683013 0.212487 -0.683013
v 0.707107 -0.039649 -0.707107
v 0.683013 -0.289069 -0.683012
v 0.612372 -0.517247 -0.612372
v 0.500000 -0.716823 -0.500000
v 0.353553 -0.871439 -0.353553
v 0.183013 -0.969617 -0.183013
v 0.215200 0.914818 -0.143792
v 0.415735 0.814918 -0.277785
v 0.587938 0.656000 -0.392848
v 0.720074 0.451267 -0.481138
v 0.803138 0.212763 -0.536640
v 0.831469 -0.039236 -0.555570
v 0.803138 -0.286662 -0.536639
v 0.720074 -0.518009 -0.481138
v 0.587938 -0.717918 -0.392847
v 0.415735 -0.871917 -0.277785
v 0.215200 -0.969767 -0.143792
v 0.239118 0.914818 -0.099046
v 0.461940 0.814918 -0.191342
v 0.653281 0.656089 -0.270598
v 0.800103 0.451569 -0.331414
v 0.892399 0.213333 -0.369644
v 0.923879 -0.039095 -0.382683
v 0.892399 -0.288054 -0.369644
v 0.800103 -0.520635 -0.331413
v 0.653281 -0.720405 -0.270598
v 0.461940 -0.872792 -0.191342
v 0.239118 -0.969969 -0.099046
v 0.253846 0.914818 -0.050493
v 0.490393 0.814918 -0.097545
v 0.693520 0.656266 -0.137950
v 0.849385 0.451995 -0.168953
v 0.947366 0.214072 -0.188443
v 0.980785 -0.038823 -0.195090
v 0.947365 -0.288865 -0.188443
v 0.849385 -0.522229 -0.168953
v 0.693520 -0.722179 -0.137950
v 0.490393 -0.874547 -0.097545
v 0.253846 -0.970214 -0.050493
v 0.258819 0.914818 -0.000000
v 0.500000 0.814918 0.000000
v 0.707107 0.656436 -0.000000
v 0.866025 0.452837 -0.000000
v 0.965926 0.214991 -0.000000
v 1.000000 -0.038607 0.000000
v 0.965925 -0.289150 -0.000000
v 0.866025 -0.523074 0.000000
v 0.707107 -0.723291 -0.000000
v 0.500000 -0.875662 0.000000
v 0.258819 -0.970447 -0.000000
v 0.253846 0.914818 0.050493
v 0.490392 0.814918 0.097545
v 0.693520 0.657133 0.137950
v 0.849385 0.453754 0.168953
v 0.947366 0.215606 0.188443
v 0.980785 -0.037990 0.195090
v 0.947365 -0.288911 0.188443
v 0.849385 -0.523318 0.168953
v 0.693520 -0.723817 0.137950
v 0.490392 -0.876247 0.097545
v 0.253846 -0.970641 0.050493
v 0.239118 0.914818 0.099046
v 0.461940 0.814974 0.191342
v 0.653281 0.657821 0.270598
v 0.800103 0.454179 0.331413
v 0.892399 0.216484 0.369644
v 0.923879 -0.036703 0.382683
v 0.892399 -0.288116 0.369644
v 0.800103 -0.523070 0.331414
v 0.653281 -0.723833 0.270598
v 0.461940 -0.876327 0.191342
v 0.239118 -0.970783 0.099046
v 0.215200 0.914818 0.143792
v 0.415735 0.815411 0.277785
v 0.587938 0.658470 0.392847
v 0.720074 0.454533 0.481138
v 0.803138 0.217590 0.536639
v 0.831469 -0.034042 0.555570
v 0.803138 -0.286775 0.536640
v 0.720074 -0.522474 0.481138
v 0.587938 -0.723405 0.392847
v 0.415735 -0.875905 0.277785
v 0.215200 -0.970869 0.143792
v 0.183013 0.914818 0.183013
v 0.353553 0.815806 0.353553
v 0.500000 0.658928 0.500000
v 0.612372 0.454781 0.612372
v 0.683012 0.218356 0.683012
v 0.707106 -0.032799 0.707107
v 0.683012 -0.285979 0.683013
v 0.612372 -0.521799 0.612372
v 0.500000 -0.722584 0.500000
v 0.353553 -0.874928 0.353553
v 0.183013 -0.970912 0.183013
v 0.143792 0.914818 0.215200
v 0.277785 0.816133 0.415735
v 0.392847 0.659226 0.587938
v 0.481138 0.454882 0.720074
v 0.536639 0.218718 0.803138
v 0.555570 -0.032148 0.831469
v 0.536639 -0.285638 0.803138
v 0.481138 -0.521158 0.720074
v 0.392847 -0.721363 0.587938
v 0.277785 -0.874519 0.415735
v 0.143792 -0.970943 0.215200
v 0.099046 0.914818 0.239117
v 0.191341 0.816374 0.461940
v 0.270598 0.659439 0.653281
v 0.331413 0.454835 0.800103
v 0.369644 0.218900 0.892399
v 0.382683 -0.031776 0.923879
v 0.369644 -0.285905 0.892399
v 0.331413 -0.523492 0.800103
v 0.270598 -0.721305 0.653281
v 0.191341 -0.874401 0.461940
v 0.099046 -0.970970 0.239118
v 0.050493 0.914818 0.253846
v 0.097545 0.816517 0.490392
v 0.137950 0.659562 0.693520
v 0.168953 0.454754 0.849385
v 0.188443 0.219030 0.947365
v 0.195090 -0.031424 0.980785
v 0.188443 -0.286051 0.947365
v 0.168953 -0.524235 0.849385
v 0.137950 -0.721377 0.693520
v 0.097545 -0.874371 0.490392
v 0.050493 -0.970985 0.253846
v 0.000000 0.914818 0.258819
v -0.000000 0.816559 0.500000
v 0.000000 0.659596 0.707107
v -0.000000 0.455140 0.866025
v -0.000000 0.219161 0.965925
v -0.000000 -0.031559 0.999999
v -0.000000 -0.285933 0.965925
v -0.000000 -0.524045 0.866025
v 0.000000 -0.721235 0.707107
v -0.000000 -0.874312 0.500000
v 0.000000 -0.970977 0.258819
v -0.050493 0.914818 0.253846
v -0.097545 0.816497 0.490392
v -0.137950 0.659541 0.693520
v -0.168953 0.455478 0.849385
v -0.188443 0.219322 0.947365
v -0.195091 -0.031704 0.980785
v -0.188443 -0.285530 0.947365
v -0.168953 -0.522875 0.849385
v -0.137950 -0.720814 0.693520
v -0.097545 -0.874193 0.490392
v -0.050493 -0.970945 0.253846
v -0.099046 0.914818 0.239117
v -0.191342 0.816334 0.461939
v -0.270598 0.659420 0.653281
v -0.331414 0.455704 0.800103
v -0.369644 0.219432 0.892399
v -0.382684 -0.031843 0.923879
v -0.369644 -0.285013 0.892399
v -0.331414 -0.519968 0.800103
v -0.270598 -0.720312 0.653281
v -0.191342 -0.874102 0.461939
v -0.099046 -0.970901 0.239118
v 0.000000 -1.003601 0.000000
v -0.143792 0.914818 0.215200
v -0.277785 0.816076 0.415734
v -0.392847 0.659451 0.587938
v -0.481138 0.455790 0.720073
v -0.536639 0.219280 0.803137
v -0.555570 -0.032176 0.831469
v -0.536639 -0.285162 0.803137
v -0.481138 -0.519410 0.720073
v -0.392847 -0.720488 0.587938
v -0.277785 -0.874187 0.415734
v -0.143792 -0.970857 0.215200
v -0.183013 0.914818 0.183013
v -0.353553 0.815735 0.353553
v -0.500000 0.659387 0.500000
v -0.612372 0.455721 0.612372
v -0.683012 0.218844 0.683012
v -0.707106 -0.032763 0.707106
v -0.683012 -0.285871 0.683012
v -0.612372 -0.520822 0.612372
v -0.500000 -0.721889 0.500000
v -0.353553 -0.874613 0.353553
v -0.183013 -0.970819 0.183013
v -0.215200 0.914818 0.143792
v -0.415735 0.815332 0.277785
v -0.587938 0.659055 0.392847
v -0.720074 0.455389 0.481138
v -0.803137 0.218078 0.536639
v -0.831469 -0.034052 0.555569
v -0.803137 -0.286935 0.536639
v -0.720074 -0.521906 0.481138
v -0.587938 -0.722887 0.392847
v -0.415735 -0.875617 0.277785
v -0.215200 -0.970780 0.143792
v 0.000000 0.948893 -0.000000
v -0.239118 0.914818 0.099046
v -0.461939 0.814918 0.191341
v -0.653281 0.658434 0.270598
v -0.800103 0.454856 0.331413
v -0.892398 0.217024 0.369643
v -0.923879 -0.036744 0.382683
v -0.892398 -0.288144 0.369643
v -0.800103 -0.522680 0.331413
v -0.653281 -0.723454 0.270598
v -0.461939 -0.876086 0.191341
v -0.239118 -0.970702 0.099046
v -0.253846 0.914818 0.050493
v -0.490392 0.814918 0.097545
v -0.693520 0.657758 0.137950
v -0.849385 0.454114 0.168953
v -0.947365 0.216193 0.188442
v -0.980784 -0.038052 0.195090
v -0.947365 -0.288937 0.188442
v -0.849385 -0.523031 0.168953
v -0.693520 -0.723546 0.137950
v -0.490392 -0.876061 0.097545
v -0.253846 -0.970573 0.050493
v -0.258819 0.914818 -0.000000
v -0.500000 0.814918 -0.000000
v -0.707107 0.657121 -0.000000
v -0.866025 0.453138 -0.000000
v -0.965925 0.215440 -0.000000
v -0.999999 -0.038687 -0.000000
v -0.965925 -0.289229 -0.000000
v -0.866025 -0.522869 -0.000000
v -0.707106 -0.723113 -0.000000
v -0.500000 -0.875581 -0.000000
v -0.258819 -0.970393 -0.000000
v -0.253846 0.914818 -0.050493
v -0.490392 0.814918 -0.097545
v -0.693520 0.657009 -0.137950
v -0.849384 0.452324 -0.168953
v -0.947365 0.214494 -0.188443
v -0.980784 -0.039166 -0.195091
v -0.947365 -0.289021 -0.188443
v -0.849384 -0.522111 -0.168953
v -0.693520 -0.722090 -0.137950
v -0.490392 -0.874547 -0.097545
v -0.253846 -0.970171 -0.050493
v -0.239118 0.914818 -0.099046
v -0.461939 0.814918 -0.191342
v -0.653281 0.656785 -0.270598
v -0.800103 0.452139 -0.331414
v -0.892398 0.213786 -0.369644
v -0.923879 -0.039629 -0.382683
v -0.892398 -0.288427 -0.369644
v -0.800103 -0.520630 -0.331413
v -0.653281 -0.720463 -0.270598
v -0.461939 -0.872836 -0.191342
v -0.239118 -0.969937 -0.099046
v -0.215200 0.914818 -0.143792
v -0.415734 0.814918 -0.277785
v -0.587938 0.656456 -0.392847
v -0.720073 0.451948 -0.481138
v -0.803137 0.213450 -0.536639
v -0.831468 -0.039964 -0.555570
v -0.803137 -0.287340 -0.536639
v -0.720073 -0.518268 -0.481138
v -0.587937 -0.718127 -0.392847
v -0.415734 -0.872001 -0.277785
v -0.215200 -0.969751 -0.143792
v -0.183013 0.914818 -0.183013
v -0.353553 0.814918 -0.353553
v -0.500000 0.656045 -0.500000
v -0.612372 0.451651 -0.612372
v -0.683012 0.213003 -0.683012
v -0.707106 -0.040601 -0.707106
v -0.683012 -0.289609 -0.683012
v -0.612372 -0.517616 -0.612372
v -0.500000 -0.717102 -0.500000
v -0.353553 -0.871571 -0.353553
v -0.183013 -0.969611 -0.183013
v -0.143792 0.914818 -0.215200
v -0.277785 0.814918 -0.415734
v -0.392847 0.656000 -0.587938
v -0.481138 0.451090 -0.720073
v -0.536639 0.212426 -0.803137
v -0.555569 -0.040782 -0.831469
v -0.536639 -0.290050 -0.803137
v -0.481138 -0.517324 -0.720073
v -0.392847 -0.716603 -0.587938
v -0.277785 -0.871318 -0.415734
v -0.143792 -0.969514 -0.215200
v -0.099046 0.914818 -0.239118
v -0.191341 0.814918 -0.461939
v -0.270598 0.656000 -0.653281
v -0.331413 0.450374 -0.800103
v -0.369643 0.211937 -0.892398
v -0.382683 -0.040450 -0.923879
v -0.369643 -0.290188 -0.892398
v -0.331413 -0.516731 -0.800103
v -0.270598 -0.716219 -0.653281
v -0.191341 -0.871145 -0.461939
v -0.099046 -0.969450 -0.239117
v -0.050493 0.914818 -0.253846
v -0.097545 0.814918 -0.490392
v -0.137950 0.655999 -0.693520
v -0.168953 0.449718 -0.849384
v -0.188442 0.211928 -0.947365
v -0.195090 -0.040071 -0.980784
v -0.188442 -0.289979 -0.947365
v -0.168953 -0.515200 -0.849384
v -0.137950 -0.715743 -0.693520
v -0.097545 -0.871034 -0.490392
v -0.050493 -0.969413 -0.253846
v 0.000000 0.914818 -0.258819
v 0.000000 0.814918 -0.499999
v 0.000000 -0.039889 -0.999999
v 0.000000 -0.289760 -0.965925
v 0.000000 -0.870954 -0.499999
v 0.000000 -0.969399 -0.258819
v -0.671834 -0.638582 -0.017355
v -0.690613 -1.159522 0.089699
v -0.688058 -0.633176 0.104818
v -0.706837 -1.154116 0.211873
v -0.526559 -0.638582 -0.017355
v -0.545338 -1.159522 0.089699
v -0.542784 -0.633176 0.104818
v -0.561563 -1.154116 0.211873
v -0.703958 -1.542490 0.101058
v -0.709384 -1.540424 0.227902
v -0.545338 -1.546616 0.106828
v -0.561563 -1.541209 0.229001
v -0.693336 -1.648120 0.110172
v -0.706874 -1.643554 0.233515
v -0.545338 -1.648972 0.111357
v -0.561563 -1.643566 0.233531
v -0.646154 -1.602059 -0.140451
v -0.690613 -1.555679 -0.098001
v -0.545338 -1.555679 -0.098001
v -0.589796 -1.602059 -0.140451
v -0.690613 -1.658036 -0.093472
v -0.646154 -1.615586 -0.139852
v -0.589796 -1.615586 -0.139852
v -0.545338 -1.658036 -0.093472
vn -0.9912 0.0086 -0.1320
vn -0.0000 0.2013 0.9795
vn 0.9912 -0.0086 0.1320
vn -0.0000 -0.2013 -0.9795
vn -0.0000 0.9990 -0.0442
vn 0.9913 0.0058 0.1314
vn -0.9913 -0.0058 -0.1314
vn -0.0000 -0.0442 -0.9990
vn -0.0000 0.0442 0.9990
vn -0.0000 -0.9990 0.0442
vn -1.0000 -0.0000 -0.0000
vn 1.0000 -0.0000 -0.0000
vn -0.0000 0.6752 -0.7377
vn -0.0000 -0.7377 -0.6752
vn 0.7071 -0.0313 -0.7064
vn -0.7071 -0.0313 -0.7064
vn 0.0127 -0.9913 -0.1310
vn 0.0377 0.9232 -0.3824
vn 0.0765 -0.6187 -0.7819
vn 0.0970 0.1333 -0.9863
vn 0.0598 0.7919 -0.6077
vn 0.0602 -0.7978 -0.6000
vn 0.0971 -0.1345 -0.9861
vn 0.0784 0.6072 -0.7907
vn 0.0373 -0.9252 -0.3777
vn 0.0129 0.9914 -0.1305
vn 0.0890 -0.4049 -0.9100
vn 0.0903 0.3872 -0.9175
vn 0.2876 -0.1344 -0.9483
vn 0.2297 0.6074 -0.7605
vn 0.1095 -0.9252 -0.3634
vn 0.0381 0.9914 -0.1255
vn 0.2647 -0.4040 -0.8756
vn 0.2672 0.3872 -0.8824
vn 0.0375 -0.9913 -0.1261
vn 0.1115 0.9232 -0.3677
vn 0.2254 -0.6196 -0.7519
vn 0.2877 0.1332 -0.9484
vn 0.1773 0.7919 -0.5843
vn 0.1727 -0.7980 -0.5774
vn 0.3663 -0.6204 -0.6935
vn 0.4672 0.1332 -0.8741
vn 0.2878 0.7919 -0.5385
vn 0.2813 -0.7989 -0.5317
vn 0.4671 -0.1344 -0.8739
vn 0.3729 0.6084 -0.7005
vn 0.1776 -0.9253 -0.3352
vn 0.0618 0.9914 -0.1157
vn 0.4302 -0.4025 -0.8080
vn 0.4342 0.3863 -0.8138
vn 0.0607 -0.9913 -0.1164
vn 0.1811 0.9232 -0.3389
vn 0.0832 0.9914 -0.1014
vn 0.5814 -0.4005 -0.7082
vn 0.5847 0.3855 -0.7138
vn 0.0815 -0.9914 -0.1026
vn 0.2438 0.9232 -0.2970
vn 0.4953 -0.6211 -0.6074
vn 0.6286 0.1333 -0.7662
vn 0.3874 0.7919 -0.4720
vn 0.3786 -0.7996 -0.4662
vn 0.6289 -0.1346 -0.7658
vn 0.5018 0.6097 -0.6136
vn 0.2385 -0.9254 -0.2944
vn 0.4599 -0.8005 -0.3843
vn 0.7665 -0.1352 -0.6278
vn 0.6114 0.6108 -0.5031
vn 0.2898 -0.9258 -0.2429
vn 0.1014 0.9914 -0.0832
vn 0.7106 -0.3971 -0.5808
vn 0.7129 0.3849 -0.5862
vn 0.0990 -0.9914 -0.0851
vn 0.2970 0.9232 -0.2438
vn 0.6037 -0.6208 -0.5003
vn 0.7660 0.1333 -0.6289
vn 0.4720 0.7919 -0.3874
vn 0.3389 0.9232 -0.1811
vn 0.6867 -0.6205 -0.3787
vn 0.8739 0.1333 -0.4674
vn 0.5383 0.7920 -0.2881
vn 0.5207 -0.8025 -0.2912
vn 0.8736 -0.1354 -0.4674
vn 0.6974 0.6115 -0.3737
vn 0.3288 -0.9264 -0.1833
vn 0.1157 0.9914 -0.0618
vn 0.8085 -0.3939 -0.4372
vn 0.8135 0.3849 -0.4359
vn 0.1127 -0.9915 -0.0647
vn 0.3531 -0.9279 -0.1201
vn 0.1255 0.9914 -0.0381
vn 0.8794 -0.3925 -0.2695
vn 0.8827 0.3853 -0.2691
vn 0.1221 -0.9916 -0.0420
vn 0.3677 0.9232 -0.1115
vn 0.7484 -0.6205 -0.2341
vn 0.9483 0.1330 -0.2880
vn 0.5837 0.7923 -0.1777
vn 0.5654 -0.8041 -0.1840
vn 0.9482 -0.1347 -0.2878
vn 0.7565 0.6120 -0.2307
vn 0.6068 0.7926 -0.0603
vn 0.5908 -0.8041 -0.0658
vn 0.9862 -0.1343 -0.0972
vn 0.7862 0.6128 -0.0795
vn 0.3662 -0.9295 -0.0445
vn 0.1305 0.9914 -0.0129
vn 0.9156 -0.3915 -0.0914
vn 0.9180 0.3856 -0.0923
vn 0.1270 -0.9918 -0.0171
vn 0.3824 0.9232 -0.0377
vn 0.7803 -0.6201 -0.0808
vn 0.9863 0.1327 -0.0975
vn 0.1271 -0.9919 0.0087
vn 0.3824 0.9232 0.0377
vn 0.7813 -0.6196 0.0754
vn 0.9864 0.1325 0.0967
vn 0.6060 0.7934 0.0573
vn 0.5920 -0.8041 0.0545
vn 0.9862 -0.1340 0.0974
vn 0.7861 0.6137 0.0742
vn 0.3654 -0.9303 0.0311
vn 0.1305 0.9914 0.0129
vn 0.9160 -0.3908 0.0902
vn 0.9184 0.3855 0.0888
vn 0.7562 0.6136 0.2271
vn 0.3507 -0.9306 0.1049
vn 0.1255 0.9914 0.0381
vn 0.8808 -0.3901 0.2684
vn 0.8834 0.3856 0.2665
vn 0.1220 -0.9919 0.0341
vn 0.3677 0.9233 0.1112
vn 0.7514 -0.6191 0.2284
vn 0.9487 0.1326 0.2870
vn 0.5817 0.7946 0.1738
vn 0.5692 -0.8040 0.1723
vn 0.9481 -0.1338 0.2884
vn 0.5362 0.7954 0.2825
vn 0.5232 -0.8039 0.2829
vn 0.8734 -0.1333 0.4684
vn 0.6977 0.6131 0.3706
vn 0.3227 -0.9302 0.1749
vn 0.1157 0.9914 0.0618
vn 0.8114 -0.3892 0.4361
vn 0.8142 0.3864 0.4334
vn 0.1121 -0.9920 0.0580
vn 0.3394 0.9236 0.1783
vn 0.6919 -0.6187 0.3722
vn 0.8747 0.1331 0.4661
vn 0.7134 0.3873 0.5840
vn 0.0979 -0.9920 0.0793
vn 0.2968 0.9242 0.2404
vn 0.6054 -0.6186 0.5007
vn 0.7665 0.1337 0.6282
vn 0.4701 0.7957 0.3821
vn 0.4557 -0.8040 0.3819
vn 0.7657 -0.1329 0.6293
vn 0.6119 0.6126 0.5003
vn 0.2820 -0.9292 0.2390
vn 0.1014 0.9914 0.0832
vn 0.7113 -0.3886 0.5858
vn 0.5022 0.6122 0.6107
vn 0.2342 -0.9282 0.2891
vn 0.0832 0.9914 0.1014
vn 0.5837 -0.3887 0.7129
vn 0.5851 0.3878 0.7122
vn 0.0803 -0.9921 0.0969
vn 0.2432 0.9247 0.2931
vn 0.4952 -0.6193 0.6093
vn 0.6290 0.1339 0.7658
vn 0.3859 0.7957 0.4669
vn 0.3734 -0.8034 0.4638
vn 0.6285 -0.1327 0.7664
vn 0.4673 0.1340 0.8739
vn 0.2869 0.7956 0.5335
vn 0.2806 -0.8027 0.5262
vn 0.4672 -0.1324 0.8742
vn 0.3732 0.6118 0.6974
vn 0.1753 -0.9278 0.3292
vn 0.0618 0.9914 0.1157
vn 0.4370 -0.3875 0.8117
vn 0.4346 0.3882 0.8127
vn 0.0597 -0.9921 0.1106
vn 0.1804 0.9250 0.3343
vn 0.3731 -0.6222 0.6883
vn 0.2675 0.3885 0.8818
vn 0.0367 -0.9921 0.1202
vn 0.1109 0.9253 0.3626
vn 0.2282 -0.6251 0.7464
vn 0.2878 0.1341 0.9482
vn 0.1767 0.7956 0.5795
vn 0.1732 -0.8029 0.5704
vn 0.2877 -0.1321 0.9486
vn 0.2298 0.6114 0.7572
vn 0.1083 -0.9277 0.3573
vn 0.0381 0.9914 0.1255
vn 0.2687 -0.3856 0.8827
vn 0.0972 -0.1321 0.9865
vn 0.0784 0.6115 0.7873
vn 0.0362 -0.9276 0.3717
vn 0.0129 0.9914 0.1305
vn 0.0901 -0.3852 0.9184
vn 0.0909 0.3884 0.9170
vn 0.0122 -0.9921 0.1250
vn 0.0374 0.9254 0.3771
vn 0.0758 -0.6257 0.7764
vn 0.0971 0.1341 0.9862
vn 0.0596 0.7956 0.6029
vn 0.0578 -0.8029 0.5933
vn -0.0971 0.1340 0.9862
vn -0.0598 0.7956 0.6029
vn -0.0603 -0.8025 0.5936
vn -0.0972 -0.1323 0.9864
vn -0.0769 0.6122 0.7869
vn -0.0376 -0.9275 0.3718
vn -0.0129 0.9914 0.1305
vn -0.0921 -0.3858 0.9180
vn -0.0898 0.3881 0.9172
vn -0.0129 -0.9921 0.1250
vn -0.0375 0.9254 0.3771
vn -0.0797 -0.6249 0.7766
vn -0.2711 -0.3880 0.8809
vn -0.2672 0.3879 0.8821
vn -0.0374 -0.9920 0.1202
vn -0.1111 0.9253 0.3627
vn -0.2339 -0.6219 0.7474
vn -0.2877 0.1338 0.9483
vn -0.1768 0.7956 0.5794
vn -0.1754 -0.8019 0.5712
vn -0.2878 -0.1326 0.9485
vn -0.2292 0.6129 0.7562
vn -0.1094 -0.9275 0.3576
vn -0.0381 0.9914 0.1255
vn -0.4671 -0.1328 0.8742
vn -0.3721 0.6133 0.6967
vn -0.1760 -0.9275 0.3298
vn -0.0618 0.9914 0.1157
vn -0.4344 -0.3902 0.8118
vn -0.4346 0.3877 0.8129
vn -0.0602 -0.9920 0.1107
vn -0.1806 0.9250 0.3344
vn -0.3709 -0.6189 0.6924
vn -0.4673 0.1337 0.8739
vn -0.2861 0.7959 0.5335
vn -0.2811 -0.8016 0.5277
vn -0.4943 -0.6182 0.6112
vn -0.6290 0.1336 0.7659
vn -0.3847 0.7965 0.4666
vn -0.3737 -0.8025 0.4651
vn -0.6284 -0.1328 0.7664
vn -0.5013 0.6133 0.6104
vn -0.2346 -0.9279 0.2897
vn -0.0832 0.9914 0.1014
vn -0.5823 -0.3902 0.7132
vn -0.5853 0.3873 0.7123
vn -0.0806 -0.9920 0.0971
vn -0.2434 0.9246 0.2932
vn -0.1014 0.9914 0.0832
vn -0.7104 -0.3897 0.5860
vn -0.7136 0.3867 0.5841
vn -0.0981 -0.9920 0.0796
vn -0.2971 0.9241 0.2406
vn -0.6049 -0.6183 0.5018
vn -0.7665 0.1334 0.6282
vn -0.4687 0.7968 0.3814
vn -0.4559 -0.8034 0.3829
vn -0.7656 -0.1328 0.6294
vn -0.6114 0.6133 0.5000
vn -0.2824 -0.9289 0.2396
vn -0.5233 -0.8035 0.2837
vn -0.8734 -0.1333 0.4684
vn -0.6976 0.6134 0.3703
vn -0.3231 -0.9300 0.1755
vn -0.1157 0.9914 0.0618
vn -0.8111 -0.3900 0.4360
vn -0.8144 0.3860 0.4333
vn -0.1123 -0.9920 0.0583
vn -0.3395 0.9235 0.1786
vn -0.6917 -0.6186 0.3728
vn -0.8747 0.1329 0.4661
vn -0.5347 0.7966 0.2819
vn -0.3677 0.9232 0.1115
vn -0.7513 -0.6190 0.2288
vn -0.9487 0.1323 0.2870
vn -0.5801 0.7958 0.1736
vn -0.5693 -0.8037 0.1729
vn -0.9481 -0.1338 0.2884
vn -0.7566 0.6134 0.2266
vn -0.3511 -0.9304 0.1055
vn -0.1255 0.9914 0.0381
vn -0.8806 -0.3906 0.2684
vn -0.8834 0.3856 0.2662
vn -0.1222 -0.9919 0.0344
vn -0.3655 -0.9303 0.0319
vn -0.1305 0.9914 0.0129
vn -0.9158 -0.3912 0.0903
vn -0.9184 0.3857 0.0886
vn -0.1273 -0.9918 0.0090
vn -0.3824 0.9232 0.0377
vn -0.7813 -0.6195 0.0757
vn -0.9865 0.1322 0.0967
vn -0.6044 0.7946 0.0574
vn -0.5922 -0.8039 0.0552
vn -0.9862 -0.1340 0.0975
vn -0.7865 0.6130 0.0742
vn -0.6051 0.7939 -0.0600
vn -0.5911 -0.8039 -0.0652
vn -0.9862 -0.1343 -0.0970
vn -0.7868 0.6121 -0.0793
vn -0.3662 -0.9295 -0.0440
vn -0.1305 0.9914 -0.0129
vn -0.9155 -0.3919 -0.0912
vn -0.9180 0.3858 -0.0923
vn -0.1272 -0.9917 -0.0169
vn -0.3824 0.9232 -0.0377
vn -0.7804 -0.6201 -0.0805
vn -0.9864 0.1324 -0.0976
vn -0.1223 -0.9916 -0.0419
vn -0.3677 0.9232 -0.1115
vn -0.7486 -0.6204 -0.2336
vn -0.9484 0.1326 -0.2881
vn -0.5820 0.7936 -0.1773
vn -0.5656 -0.8040 -0.1834
vn -0.9482 -0.1348 -0.2877
vn -0.7570 0.6115 -0.2305
vn -0.3530 -0.9279 -0.1198
vn -0.1255 0.9914 -0.0381
vn -0.8793 -0.3930 -0.2691
vn -0.8828 0.3853 -0.2688
vn -0.6972 0.6116 -0.3739
vn -0.3287 -0.9266 -0.1829
vn -0.1157 0.9914 -0.0618
vn -0.8086 -0.3945 -0.4365
vn -0.8137 0.3849 -0.4356
vn -0.1129 -0.9915 -0.0645
vn -0.3389 0.9232 -0.1811
vn -0.6871 -0.6205 -0.3780
vn -0.8740 0.1326 -0.4674
vn -0.5367 0.7931 -0.2881
vn -0.5208 -0.8027 -0.2906
vn -0.8737 -0.1354 -0.4673
vn -0.4707 0.7924 -0.3880
vn -0.4599 -0.8008 -0.3838
vn -0.7665 -0.1354 -0.6278
vn -0.6105 0.6119 -0.5029
vn -0.2897 -0.9259 -0.2423
vn -0.1014 0.9914 -0.0832
vn -0.7104 -0.3975 -0.5807
vn -0.7130 0.3847 -0.5862
vn -0.0992 -0.9914 -0.0849
vn -0.2970 0.9232 -0.2438
vn -0.6038 -0.6209 -0.4999
vn -0.7659 0.1326 -0.6291
vn -0.5847 0.3845 -0.7143
vn -0.0816 -0.9914 -0.1025
vn -0.2438 0.9232 -0.2970
vn -0.4958 -0.6214 -0.6066
vn -0.6286 0.1326 -0.7663
vn -0.3872 0.7920 -0.4721
vn -0.3787 -0.8000 -0.4654
vn -0.6288 -0.1349 -0.7658
vn -0.5010 0.6115 -0.6124
vn -0.2384 -0.9256 -0.2939
vn -0.0832 0.9914 -0.1014
vn -0.5815 -0.4002 -0.7083
vn -0.3722 0.6103 -0.6993
vn -0.1773 -0.9255 -0.3348
vn -0.0618 0.9914 -0.1157
vn -0.4313 -0.4013 -0.8080
vn -0.4340 0.3847 -0.8147
vn -0.0608 -0.9913 -0.1164
vn -0.1811 0.9232 -0.3389
vn -0.3676 -0.6214 -0.6919
vn -0.4672 0.1329 -0.8741
vn -0.2878 0.7919 -0.5385
vn -0.2815 -0.7996 -0.5306
vn -0.4670 -0.1347 -0.8739
vn -0.2878 0.1333 -0.9484
vn -0.1773 0.7919 -0.5843
vn -0.1727 -0.7990 -0.5760
vn -0.2875 -0.1345 -0.9483
vn -0.2290 0.6090 -0.7594
vn -0.1092 -0.9253 -0.3631
vn -0.0381 0.9914 -0.1255
vn -0.2638 -0.4028 -0.8764
vn -0.2672 0.3853 -0.8833
vn -0.0375 -0.9913 -0.1261
vn -0.1115 0.9232 -0.3677
vn -0.2238 -0.6202 -0.7518
vn -0.0901 0.3863 -0.9180
vn -0.0126 -0.9913 -0.1310
vn -0.0377 0.9232 -0.3824
vn -0.0738 -0.6185 -0.7823
vn -0.0973 0.1333 -0.9863
vn -0.0599 0.7919 -0.6077
vn -0.0573 -0.7983 -0.5995
vn -0.0970 -0.1345 -0.9862
vn -0.0768 0.6079 -0.7903
vn -0.0366 -0.9252 -0.3776
vn -0.0129 0.9914 -0.1305
vn -0.0881 -0.4045 -0.9103
vn -0.9960 0.0175 -0.0871
vn 0.0185 -0.0373 -0.9991
vn -0.0036 0.0428 0.9991
vn -0.0031 -0.9992 0.0402
vn -0.9950 -0.0678 -0.0736
vn -0.0031 -0.9989 0.0464
vn -0.0037 0.0493 0.9988
vn -0.9979 -0.0534 -0.0368
vn 0.0146 0.9984 -0.0545
vt 0.375000 0.000000
vt 0.625000 0.000000
vt 0.625000 0.250000
vt 0.375000 0.250000
vt 0.625000 0.500000
vt 0.375000 0.500000
vt 0.625000 0.750000
vt 0.375000 0.750000
vt 0.625000 1.000000
vt 0.375000 1.000000
vt 0.125000 0.500000
vt 0.125000 0.750000
vt 0.875000 0.500000
vt 0.875000 0.750000
vt 0.625000 0.750000
vt 0.625000 0.923493
vt 0.625000 0.826507
vt 0.625000 0.826507
vt 0.625000 0.923493
vt 0.734375 0.000000
vt 0.750000 0.083333
vt 0.718750 0.083333
vt 0.750000 0.833333
vt 0.750000 0.916667
vt 0.718750 0.916667
vt 0.718750 0.833333
vt 0.750000 0.250000
vt 0.750000 0.333333
vt 0.718750 0.333333
vt 0.718750 0.250000
vt 0.750000 0.500000
vt 0.750000 0.583333
vt 0.718750 0.583333
vt 0.718750 0.500000
vt 0.750000 0.750000
vt 0.718750 0.750000
vt 0.750000 0.166667
vt 0.718750 0.166667
vt 0.750000 0.416667
vt 0.718750 0.416667
vt 0.750000 0.666667
vt 0.718750 0.666667
vt 0.734375 1.000000
vt 0.687500 0.500000
vt 0.687500 0.416667
vt 0.687500 0.750000
vt 0.687500 0.666667
vt 0.687500 0.166667
vt 0.687500 0.083333
vt 0.703125 1.000000
vt 0.687500 0.916667
vt 0.687500 0.333333
vt 0.687500 0.583333
vt 0.703125 0.000000
vt 0.687500 0.833333
vt 0.687500 0.250000
vt 0.656250 0.333333
vt 0.656250 0.250000
vt 0.656250 0.583333
vt 0.656250 0.500000
vt 0.656250 0.833333
vt 0.656250 0.750000
vt 0.656250 0.166667
vt 0.656250 0.416667
vt 0.656250 0.666667
vt 0.656250 0.083333
vt 0.671875 1.000000
vt 0.656250 0.916667
vt 0.671875 0.000000
vt 0.640625 1.000000
vt 0.625000 0.916667
vt 0.625000 0.416667
vt 0.625000 0.333333
vt 0.625000 0.666667
vt 0.625000 0.583333
vt 0.640625 0.000000
vt 0.625000 0.083333
vt 0.625000 0.833333
vt 0.625000 0.166667
vt 0.593750 0.250000
vt 0.593750 0.166667
vt 0.593750 0.500000
vt 0.593750 0.416667
vt 0.593750 0.750000
vt 0.593750 0.666667
vt 0.593750 0.083333
vt 0.609375 1.000000
vt 0.593750 0.916667
vt 0.593750 0.333333
vt 0.593750 0.583333
vt 0.609375 0.000000
vt 0.593750 0.833333
vt 0.562500 0.916667
vt 0.562500 0.833333
vt 0.562500 0.333333
vt 0.562500 0.250000
vt 0.562500 0.583333
vt 0.562500 0.500000
vt 0.562500 0.750000
vt 0.562500 0.166667
vt 0.562500 0.416667
vt 0.562500 0.666667
vt 0.562500 0.083333
vt 0.578125 1.000000
vt 0.578125 0.000000
vt 0.531250 0.166667
vt 0.531250 0.083333
vt 0.546875 1.000000
vt 0.531250 0.916667
vt 0.531250 0.416667
vt 0.531250 0.333333
vt 0.531250 0.666667
vt 0.531250 0.583333
vt 0.546875 0.000000
vt 0.531250 0.833333
vt 0.531250 0.250000
vt 0.531250 0.500000
vt 0.531250 0.750000
vt 0.500000 0.833333
vt 0.500000 0.750000
vt 0.500000 0.250000
vt 0.500000 0.166667
vt 0.500000 0.500000
vt 0.500000 0.416667
vt 0.500000 0.666667
vt 0.500000 0.083333
vt 0.515625 1.000000
vt 0.500000 0.916667
vt 0.500000 0.333333
vt 0.500000 0.583333
vt 0.515625 0.000000
vt 0.484375 0.000000
vt 0.468750 0.083333
vt 0.468750 0.916667
vt 0.468750 0.833333
vt 0.468750 0.333333
vt 0.468750 0.250000
vt 0.468750 0.583333
vt 0.468750 0.500000
vt 0.468750 0.750000
vt 0.468750 0.166667
vt 0.468750 0.416667
vt 0.468750 0.666667
vt 0.484375 1.000000
vt 0.437500 0.750000
vt 0.437500 0.666667
vt 0.437500 0.166667
vt 0.437500 0.083333
vt 0.453125 1.000000
vt 0.437500 0.916667
vt 0.437500 0.416667
vt 0.437500 0.333333
vt 0.437500 0.583333
vt 0.453125 0.000000
vt 0.437500 0.833333
vt 0.437500 0.250000
vt 0.437500 0.500000
vt 0.406250 0.833333
vt 0.406250 0.750000
vt 0.406250 0.250000
vt 0.406250 0.166667
vt 0.406250 0.500000
vt 0.406250 0.416667
vt 0.406250 0.666667
vt 0.406250 0.083333
vt 0.421875 1.000000
vt 0.406250 0.916667
vt 0.406250 0.333333
vt 0.406250 0.583333
vt 0.421875 0.000000
vt 0.375000 0.666667
vt 0.375000 0.583333
vt 0.390625 0.000000
vt 0.375000 0.083333
vt 0.375000 0.916667
vt 0.375000 0.833333
vt 0.375000 0.333333
vt 0.375000 0.500000
vt 0.375000 0.750000
vt 0.375000 0.166667
vt 0.375000 0.416667
vt 0.390625 1.000000
vt 0.343750 0.750000
vt 0.343750 0.666667
vt 0.343750 0.166667
vt 0.343750 0.083333
vt 0.359375 1.000000
vt 0.343750 0.916667
vt 0.343750 0.416667
vt 0.343750 0.333333
vt 0.343750 0.583333
vt 0.359375 0.000000
vt 0.343750 0.833333
vt 0.343750 0.250000
vt 0.343750 0.500000
vt 0.312500 0.583333
vt 0.312500 0.500000
vt 0.312500 0.833333
vt 0.312500 0.750000
vt 0.312500 0.250000
vt 0.312500 0.166667
vt 0.312500 0.416667
vt 0.312500 0.666667
vt 0.312500 0.083333
vt 0.328125 1.000000
vt 0.312500 0.916667
vt 0.312500 0.333333
vt 0.328125 0.000000
vt 0.281250 0.666667
vt 0.281250 0.583333
vt 0.296875 0.000000
vt 0.281250 0.083333
vt 0.281250 0.916667
vt 0.281250 0.833333
vt 0.281250 0.333333
vt 0.281250 0.250000
vt 0.281250 0.500000
vt 0.281250 0.750000
vt 0.281250 0.166667
vt 0.281250 0.416667
vt 0.296875 1.000000
vt 0.250000 0.500000
vt 0.250000 0.416667
vt 0.250000 0.750000
vt 0.250000 0.666667
vt 0.250000 0.166667
vt 0.250000 0.083333
vt 0.265625 1.000000
vt 0.250000 0.916667
vt 0.250000 0.333333
vt 0.250000 0.583333
vt 0.265625 0.000000
vt 0.250000 0.833333
vt 0.250000 0.250000
vt 0.218750 0.583333
vt 0.218750 0.500000
vt 0.218750 0.833333
vt 0.218750 0.750000
vt 0.218750 0.250000
vt 0.218750 0.166667
vt 0.218750 0.416667
vt 0.218750 0.666667
vt 0.218750 0.083333
vt 0.234375 1.000000
vt 0.218750 0.916667
vt 0.218750 0.333333
vt 0.234375 0.000000
vt 0.187500 0.416667
vt 0.187500 0.333333
vt 0.187500 0.666667
vt 0.187500 0.583333
vt 0.203125 0.000000
vt 0.187500 0.083333
vt 0.187500 0.916667
vt 0.187500 0.833333
vt 0.187500 0.250000
vt 0.187500 0.500000
vt 0.187500 0.750000
vt 0.187500 0.166667
vt 0.203125 1.000000
vt 0.156250 0.500000
vt 0.156250 0.416667
vt 0.156250 0.750000
vt 0.156250 0.666667
vt 0.156250 0.166667
vt 0.156250 0.083333
vt 0.171875 1.000000
vt 0.156250 0.916667
vt 0.156250 0.333333
vt 0.156250 0.583333
vt 0.171875 0.000000
vt 0.156250 0.833333
vt 0.156250 0.250000
vt 0.125000 0.333333
vt 0.125000 0.250000
vt 0.125000 0.583333
vt 0.125000 0.500000
vt 0.125000 0.833333
vt 0.125000 0.750000
vt 0.125000 0.166667
vt 0.125000 0.416667
vt 0.125000 0.666667
vt 0.125000 0.083333
vt 0.140625 1.000000
vt 0.125000 0.916667
vt 0.140625 0.000000
vt 0.109375 1.000000
vt 0.093750 0.916667
vt 0.093750 0.416667
vt 0.093750 0.333333
vt 0.093750 0.666667
vt 0.093750 0.583333
vt 0.109375 0.000000
vt 0.093750 0.083333
vt 0.093750 0.833333
vt 0.093750 0.250000
vt 0.093750 0.500000
vt 0.093750 0.750000
vt 0.093750 0.166667
vt 0.062500 0.250000
vt 0.062500 0.166667
vt 0.062500 0.500000
vt 0.062500 0.416667
vt 0.062500 0.750000
vt 0.062500 0.666667
vt 0.062500 0.083333
vt 0.078125 1.000000
vt 0.062500 0.916667
vt 0.062500 0.333333
vt 0.062500 0.583333
vt 0.078125 0.000000
vt 0.062500 0.833333
vt 0.031250 0.916667
vt 0.031250 0.833333
vt 0.031250 0.333333
vt 0.031250 0.250000
vt 0.031250 0.583333
vt 0.031250 0.500000
vt 0.031250 0.750000
vt 0.031250 0.166667
vt 0.031250 0.416667
vt 0.031250 0.666667
vt 0.031250 0.083333
vt 0.046875 1.000000
vt 0.046875 0.000000
vt 0.000000 0.166667
vt 0.000000 0.083333
vt 0.015625 1.000000
vt 0.000000 0.916667
vt 0.000000 0.416667
vt 0.000000 0.333333
vt 0.000000 0.666667
vt 0.000000 0.583333
vt 0.015625 0.000000
vt 0.000000 0.833333
vt 0.000000 0.250000
vt 0.000000 0.500000
vt 0.000000 0.750000
vt 1.000000 0.750000
vt 1.000000 0.833333
vt 0.968750 0.833333
vt 0.968750 0.750000
vt 1.000000 0.166667
vt 1.000000 0.250000
vt 0.968750 0.250000
vt 0.968750 0.166667
vt 1.000000 0.416667
vt 1.000000 0.500000
vt 0.968750 0.500000
vt 0.968750 0.416667
vt 1.000000 0.666667
vt 0.968750 0.666667
vt 1.000000 0.083333
vt 0.968750 0.083333
vt 1.000000 0.916667
vt 0.984375 1.000000
vt 0.968750 0.916667
vt 1.000000 0.333333
vt 0.968750 0.333333
vt 1.000000 0.583333
vt 0.968750 0.583333
vt 0.984375 0.000000
vt 0.953125 0.000000
vt 0.937500 0.083333
vt 0.937500 0.916667
vt 0.937500 0.833333
vt 0.937500 0.333333
vt 0.937500 0.250000
vt 0.937500 0.583333
vt 0.937500 0.500000
vt 0.937500 0.750000
vt 0.937500 0.166667
vt 0.937500 0.416667
vt 0.937500 0.666667
vt 0.953125 1.000000
vt 0.906250 0.750000
vt 0.906250 0.666667
vt 0.906250 0.166667
vt 0.906250 0.083333
vt 0.921875 1.000000
vt 0.906250 0.916667
vt 0.906250 0.416667
vt 0.906250 0.333333
vt 0.906250 0.583333
vt 0.921875 0.000000
vt 0.906250 0.833333
vt 0.906250 0.250000
vt 0.906250 0.500000
vt 0.875000 0.833333
vt 0.875000 0.750000
vt 0.875000 0.250000
vt 0.875000 0.166667
vt 0.875000 0.500000
vt 0.875000 0.416667
vt 0.875000 0.666667
vt 0.875000 0.083333
vt 0.890625 1.000000
vt 0.875000 0.916667
vt 0.875000 0.333333
vt 0.875000 0.583333
vt 0.890625 0.000000
vt 0.843750 0.666667
vt 0.843750 0.583333
vt 0.859375 0.000000
vt 0.843750 0.083333
vt 0.843750 0.916667
vt 0.843750 0.833333
vt 0.843750 0.333333
vt 0.843750 0.250000
vt 0.843750 0.500000
vt 0.843750 0.750000
vt 0.843750 0.166667
vt 0.843750 0.416667
vt 0.859375 1.000000
vt 0.812500 0.750000
vt 0.812500 0.666667
vt 0.812500 0.166667
vt 0.812500 0.083333
vt 0.828125 1.000000
vt 0.812500 0.916667
vt 0.812500 0.416667
vt 0.812500 0.333333
vt 0.812500 0.583333
vt 0.828125 0.000000
vt 0.812500 0.833333
vt 0.812500 0.250000
vt 0.812500 0.500000
vt 0.781250 0.583333
vt 0.781250 0.500000
vt 0.781250 0.833333
vt 0.781250 0.750000
vt 0.781250 0.250000
vt 0.781250 0.166667
vt 0.781250 0.416667
vt 0.781250 0.666667
vt 0.781250 0.083333
vt 0.796875 1.000000
vt 0.781250 0.916667
vt 0.781250 0.333333
vt 0.796875 0.000000
vt 0.765625 0.000000
vt 0.765625 1.000000
s 0
f 1/1/1 2/2/1 4/3/1 3/4/1
f 3/4/2 4/3/2 8/5/2 7/6/2
f 7/6/3 8/5/3 6/7/3 5/8/3
f 5/8/4 6/7/4 2/9/4 1/10/4
f 3/11/5 7/6/5 5/8/5 1/12/5
f 6/7/6 8/5/6 12/5/6 11/7/6
f 11/7/6 12/5/6 16/5/6 15/7/6
f 4/3/7 2/2/7 9/2/7 10/3/7
f 2/9/8 6/7/8 11/7/8 9/9/8
f 8/5/9 4/3/9 10/3/9 12/5/9
f 16/5/10 14/13/10 13/14/10 15/7/10
f 10/3/7 9/2/7 13/2/7 14/3/7
f 15/7/10 13/14/10 21/14/10 24/15/10
f 12/5/9 10/3/9 14/3/9 16/5/9
f 13/2/11 9/2/11 18/2/11 21/2/11
f 17/16/8 20/17/8 23/18/8 22/19/8
f 11/7/12 15/7/12 24/7/12 19/7/12
f 20/17/13 17/16/13 18/9/13 19/7/13
f 24/7/14 21/9/14 22/19/14 23/18/14
f 23/18/15 20/17/15 19/7/15 24/7/15
f 17/16/16 22/19/16 21/9/16 18/9/16
f 9/9/5 11/7/5 19/7/5 18/9/5
f 228/20/17 378/21/17 40/22/17
f 374/23/18 373/24/18 30/25/18 31/26/18
f 29/27/19 28/28/19 37/29/19 38/30/19
f 375/31/20 27/32/20 34/33/20 35/34/20
f 25/35/21 374/23/21 31/26/21 32/36/21
f 377/37/22 29/27/22 38/30/22 39/38/22
f 376/39/23 375/31/23 35/34/23 36/40/23
f 26/41/24 25/35/24 32/36/24 33/42/24
f 378/21/25 377/37/25 39/38/25 40/22/25
f 373/24/26 262/43/26 30/25/26
f 28/28/27 376/39/27 36/40/27 37/29/27
f 27/32/28 26/41/28 33/42/28 34/33/28
f 36/40/29 35/34/29 46/44/29 47/45/29
f 33/42/30 32/36/30 43/46/30 44/47/30
f 40/22/31 39/38/31 50/48/31 51/49/31
f 30/25/32 262/50/32 41/51/32
f 37/29/33 36/40/33 47/45/33 48/52/33
f 34/33/34 33/42/34 44/47/34 45/53/34
f 228/54/35 40/22/35 51/49/35
f 31/26/36 30/25/36 41/51/36 42/55/36
f 38/30/37 37/29/37 48/52/37 49/56/37
f 35/34/38 34/33/38 45/53/38 46/44/38
f 32/36/39 31/26/39 42/55/39 43/46/39
f 39/38/40 38/30/40 49/56/40 50/48/40
f 49/56/41 48/52/41 59/57/41 60/58/41
f 46/44/42 45/53/42 56/59/42 57/60/42
f 43/46/43 42/55/43 53/61/43 54/62/43
f 50/48/44 49/56/44 60/58/44 61/63/44
f 47/45/45 46/44/45 57/60/45 58/64/45
f 44/47/46 43/46/46 54/62/46 55/65/46
f 51/49/47 50/48/47 61/63/47 62/66/47
f 41/51/48 262/67/48 52/68/48
f 48/52/49 47/45/49 58/64/49 59/57/49
f 45/53/50 44/47/50 55/65/50 56/59/50
f 228/69/51 51/49/51 62/66/51
f 42/55/52 41/51/52 52/68/52 53/61/52
f 52/68/53 262/70/53 63/71/53
f 59/57/54 58/64/54 69/72/54 70/73/54
f 56/59/55 55/65/55 66/74/55 67/75/55
f 228/76/56 62/66/56 73/77/56
f 53/61/57 52/68/57 63/71/57 64/78/57
f 60/58/58 59/57/58 70/73/58 71/3/58
f 57/60/59 56/59/59 67/75/59 68/5/59
f 54/62/60 53/61/60 64/78/60 65/7/60
f 61/63/61 60/58/61 71/3/61 72/79/61
f 58/64/62 57/60/62 68/5/62 69/72/62
f 55/65/63 54/62/63 65/7/63 66/74/63
f 62/66/64 61/63/64 72/79/64 73/77/64
f 72/79/65 71/3/65 82/80/65 83/81/65
f 69/72/66 68/5/66 79/82/66 80/83/66
f 66/74/67 65/7/67 76/84/67 77/85/67
f 73/77/68 72/79/68 83/81/68 84/86/68
f 63/71/69 262/87/69 74/88/69
f 70/73/70 69/72/70 80/83/70 81/89/70
f 67/75/71 66/74/71 77/85/71 78/90/71
f 228/91/72 73/77/72 84/86/72
f 64/78/73 63/71/73 74/88/73 75/92/73
f 71/3/74 70/73/74 81/89/74 82/80/74
f 68/5/75 67/75/75 78/90/75 79/82/75
f 65/7/76 64/78/76 75/92/76 76/84/76
f 75/92/77 74/88/77 85/93/77 86/94/77
f 82/80/78 81/89/78 92/95/78 93/96/78
f 79/82/79 78/90/79 89/97/79 90/98/79
f 76/84/80 75/92/80 86/94/80 87/99/80
f 83/81/81 82/80/81 93/96/81 94/100/81
f 80/83/82 79/82/82 90/98/82 91/101/82
f 77/85/83 76/84/83 87/99/83 88/102/83
f 84/86/84 83/81/84 94/100/84 95/103/84
f 74/88/85 262/104/85 85/93/85
f 81/89/86 80/83/86 91/101/86 92/95/86
f 78/90/87 77/85/87 88/102/87 89/97/87
f 228/105/88 84/86/88 95/103/88
f 95/103/89 94/100/89 105/106/89 106/107/89
f 85/93/90 262/108/90 96/109/90
f 92/95/91 91/101/91 102/110/91 103/111/91
f 89/97/92 88/102/92 99/112/92 100/113/92
f 228/114/93 95/103/93 106/107/93
f 86/94/94 85/93/94 96/109/94 97/115/94
f 93/96/95 92/95/95 103/111/95 104/116/95
f 90/98/96 89/97/96 100/113/96 101/117/96
f 87/99/97 86/94/97 97/115/97 98/118/97
f 94/100/98 93/96/98 104/116/98 105/106/98
f 91/101/99 90/98/99 101/117/99 102/110/99
f 88/102/100 87/99/100 98/118/100 99/112/100
f 98/118/101 97/115/101 108/119/101 109/120/101
f 105/106/102 104/116/102 115/121/102 116/122/102
f 102/110/103 101/117/103 112/123/103 113/124/103
f 99/112/104 98/118/104 109/120/104 110/125/104
f 106/107/105 105/106/105 116/122/105 117/126/105
f 96/109/106 262/127/106 107/128/106
f 103/111/107 102/110/107 113/124/107 114/129/107
f 100/113/108 99/112/108 110/125/108 111/130/108
f 228/131/109 106/107/109 117/126/109
f 97/115/110 96/109/110 107/128/110 108/119/110
f 104/116/111 103/111/111 114/129/111 115/121/111
f 101/117/112 100/113/112 111/130/112 112/123/112
f 228/132/113 117/126/113 128/133/113
f 108/119/114 107/128/114 118/134/114 119/135/114
f 115/121/115 114/129/115 125/136/115 126/137/115
f 112/123/116 111/130/116 122/138/116 123/139/116
f 109/120/117 108/119/117 119/135/117 120/140/117
f 116/122/118 115/121/118 126/137/118 127/141/118
f 113/124/119 112/123/119 123/139/119 124/142/119
f 110/125/120 109/120/120 120/140/120 121/143/120
f 117/126/121 116/122/121 127/141/121 128/133/121
f 107/128/122 262/144/122 118/134/122
f 114/129/123 113/124/123 124/142/123 125/136/123
f 111/130/124 110/125/124 121/143/124 122/138/124
f 121/143/125 120/140/125 131/145/125 132/146/125
f 128/133/126 127/141/126 138/147/126 139/148/126
f 118/134/127 262/149/127 129/150/127
f 125/136/128 124/142/128 135/151/128 136/152/128
f 122/138/129 121/143/129 132/146/129 133/153/129
f 228/154/130 128/133/130 139/148/130
f 119/135/131 118/134/131 129/150/131 130/155/131
f 126/137/132 125/136/132 136/152/132 137/156/132
f 123/139/133 122/138/133 133/153/133 134/157/133
f 120/140/134 119/135/134 130/155/134 131/145/134
f 127/141/135 126/137/135 137/156/135 138/147/135
f 124/142/136 123/139/136 134/157/136 135/151/136
f 131/145/137 130/155/137 141/158/137 142/159/137
f 138/147/138 137/156/138 148/160/138 149/161/138
f 135/151/139 134/157/139 145/162/139 146/163/139
f 132/146/140 131/145/140 142/159/140 143/164/140
f 139/148/141 138/147/141 149/161/141 150/165/141
f 129/150/142 262/166/142 140/167/142
f 136/152/143 135/151/143 146/163/143 147/168/143
f 133/153/144 132/146/144 143/164/144 144/169/144
f 228/170/145 139/148/145 150/165/145
f 130/155/146 129/150/146 140/167/146 141/158/146
f 137/156/147 136/152/147 147/168/147 148/160/147
f 134/157/148 133/153/148 144/169/148 145/162/148
f 144/169/149 143/164/149 154/171/149 155/172/149
f 228/173/150 150/165/150 161/174/150
f 141/158/151 140/167/151 151/175/151 152/176/151
f 148/160/152 147/168/152 158/177/152 159/4/152
f 145/162/153 144/169/153 155/172/153 156/178/153
f 142/159/154 141/158/154 152/176/154 153/179/154
f 149/161/155 148/160/155 159/4/155 160/180/155
f 146/163/156 145/162/156 156/178/156 157/181/156
f 143/164/157 142/159/157 153/179/157 154/171/157
f 150/165/158 149/161/158 160/180/158 161/174/158
f 140/167/159 262/182/159 151/175/159
f 147/168/160 146/163/160 157/181/160 158/177/160
f 154/171/161 153/179/161 164/183/161 165/184/161
f 161/174/162 160/180/162 171/185/162 172/186/162
f 151/175/163 262/187/163 162/188/163
f 158/177/164 157/181/164 168/189/164 169/190/164
f 155/172/165 154/171/165 165/184/165 166/191/165
f 228/192/166 161/174/166 172/186/166
f 152/176/167 151/175/167 162/188/167 163/193/167
f 159/4/168 158/177/168 169/190/168 170/194/168
f 156/178/169 155/172/169 166/191/169 167/195/169
f 153/179/170 152/176/170 163/193/170 164/183/170
f 160/180/171 159/4/171 170/194/171 171/185/171
f 157/181/172 156/178/172 167/195/172 168/189/172
f 167/195/173 166/191/173 177/196/173 178/197/173
f 164/183/174 163/193/174 174/198/174 175/199/174
f 171/185/175 170/194/175 181/200/175 182/201/175
f 168/189/176 167/195/176 178/197/176 179/202/176
f 165/184/177 164/183/177 175/199/177 176/203/177
f 172/186/178 171/185/178 182/201/178 183/204/178
f 162/188/179 262/205/179 173/206/179
f 169/190/180 168/189/180 179/202/180 180/207/180
f 166/191/181 165/184/181 176/203/181 177/196/181
f 228/208/182 172/186/182 183/204/182
f 163/193/183 162/188/183 173/206/183 174/198/183
f 170/194/184 169/190/184 180/207/184 181/200/184
f 177/196/185 176/203/185 187/209/185 188/210/185
f 228/211/186 183/204/186 194/212/186
f 174/198/187 173/206/187 184/213/187 185/214/187
f 181/200/188 180/207/188 191/215/188 192/216/188
f 178/197/189 177/196/189 188/210/189 189/217/189
f 175/199/190 174/198/190 185/214/190 186/218/190
f 182/201/191 181/200/191 192/216/191 193/219/191
f 179/202/192 178/197/192 189/217/192 190/220/192
f 176/203/193 175/199/193 186/218/193 187/209/193
f 183/204/194 182/201/194 193/219/194 194/212/194
f 173/206/195 262/221/195 184/213/195
f 180/207/196 179/202/196 190/220/196 191/215/196
f 190/220/197 189/217/197 200/222/197 201/223/197
f 187/209/198 186/218/198 197/224/198 198/225/198
f 194/212/199 193/219/199 204/226/199 205/227/199
f 184/213/200 262/228/200 195/229/200
f 191/215/201 190/220/201 201/223/201 202/230/201
f 188/210/202 187/209/202 198/225/202 199/231/202
f 228/232/203 194/212/203 205/227/203
f 185/214/204 184/213/204 195/229/204 196/233/204
f 192/216/205 191/215/205 202/230/205 203/234/205
f 189/217/206 188/210/206 199/231/206 200/222/206
f 186/218/207 185/214/207 196/233/207 197/224/207
f 193/219/208 192/216/208 203/234/208 204/226/208
f 200/222/209 199/231/209 210/235/209 211/236/209
f 197/224/210 196/233/210 207/237/210 208/238/210
f 204/226/211 203/234/211 214/239/211 215/240/211
f 201/223/212 200/222/212 211/236/212 212/241/212
f 198/225/213 197/224/213 208/238/213 209/242/213
f 205/227/214 204/226/214 215/240/214 216/243/214
f 195/229/215 262/244/215 206/245/215
f 202/230/216 201/223/216 212/241/216 213/246/216
f 199/231/217 198/225/217 209/242/217 210/235/217
f 228/247/218 205/227/218 216/243/218
f 196/233/219 195/229/219 206/245/219 207/237/219
f 203/234/220 202/230/220 213/246/220 214/239/220
f 213/246/221 212/241/221 223/248/221 224/249/221
f 210/235/222 209/242/222 220/250/222 221/251/222
f 228/252/223 216/243/223 227/253/223
f 207/237/224 206/245/224 217/254/224 218/255/224
f 214/239/225 213/246/225 224/249/225 225/256/225
f 211/236/226 210/235/226 221/251/226 222/257/226
f 208/238/227 207/237/227 218/255/227 219/258/227
f 215/240/228 214/239/228 225/256/228 226/259/228
f 212/241/229 211/236/229 222/257/229 223/248/229
f 209/242/230 208/238/230 219/258/230 220/250/230
f 216/243/231 215/240/231 226/259/231 227/253/231
f 206/245/232 262/260/232 217/254/232
f 223/248/233 222/257/233 234/261/233 235/262/233
f 220/250/234 219/258/234 231/263/234 232/264/234
f 227/253/235 226/259/235 238/265/235 239/266/235
f 217/254/236 262/267/236 229/268/236
f 224/249/237 223/248/237 235/262/237 236/269/237
f 221/251/238 220/250/238 232/264/238 233/270/238
f 228/271/239 227/253/239 239/266/239
f 218/255/240 217/254/240 229/268/240 230/272/240
f 225/256/241 224/249/241 236/269/241 237/273/241
f 222/257/242 221/251/242 233/270/242 234/261/242
f 219/258/243 218/255/243 230/272/243 231/263/243
f 226/259/244 225/256/244 237/273/244 238/265/244
f 237/273/245 236/269/245 247/274/245 248/275/245
f 234/261/246 233/270/246 244/276/246 245/277/246
f 231/263/247 230/272/247 241/278/247 242/279/247
f 238/265/248 237/273/248 248/275/248 249/280/248
f 235/262/249 234/261/249 245/277/249 246/281/249
f 232/264/250 231/263/250 242/279/250 243/282/250
f 239/266/251 238/265/251 249/280/251 250/283/251
f 229/268/252 262/284/252 240/285/252
f 236/269/253 235/262/253 246/281/253 247/274/253
f 233/270/254 232/264/254 243/282/254 244/276/254
f 228/286/255 239/266/255 250/283/255
f 230/272/256 229/268/256 240/285/256 241/278/256
f 240/285/257 262/287/257 251/288/257
f 247/274/258 246/281/258 257/289/258 258/290/258
f 244/276/259 243/282/259 254/291/259 255/292/259
f 228/293/260 250/283/260 261/294/260
f 241/278/261 240/285/261 251/288/261 252/295/261
f 248/275/262 247/274/262 258/290/262 259/296/262
f 245/277/263 244/276/263 255/292/263 256/297/263
f 242/279/264 241/278/264 252/295/264 253/298/264
f 249/280/265 248/275/265 259/296/265 260/299/265
f 246/281/266 245/277/266 256/297/266 257/289/266
f 243/282/267 242/279/267 253/298/267 254/291/267
f 250/283/268 249/280/268 260/299/268 261/294/268
f 260/299/269 259/296/269 271/300/269 272/301/269
f 257/289/270 256/297/270 268/302/270 269/303/270
f 254/291/271 253/298/271 265/304/271 266/305/271
f 261/294/272 260/299/272 272/301/272 273/306/272
f 251/288/273 262/307/273 263/308/273
f 258/290/274 257/289/274 269/303/274 270/309/274
f 255/292/275 254/291/275 266/305/275 267/310/275
f 228/311/276 261/294/276 273/306/276
f 252/295/277 251/288/277 263/308/277 264/312/277
f 259/296/278 258/290/278 270/309/278 271/300/278
f 256/297/279 255/292/279 267/310/279 268/302/279
f 253/298/280 252/295/280 264/312/280 265/304/280
f 264/312/281 263/308/281 274/313/281 275/314/281
f 271/300/282 270/309/282 281/315/282 282/316/282
f 268/302/283 267/310/283 278/317/283 279/318/283
f 265/304/284 264/312/284 275/314/284 276/319/284
f 272/301/285 271/300/285 282/316/285 283/320/285
f 269/303/286 268/302/286 279/318/286 280/321/286
f 266/305/287 265/304/287 276/319/287 277/322/287
f 273/306/288 272/301/288 283/320/288 284/323/288
f 263/308/289 262/324/289 274/313/289
f 270/309/290 269/303/290 280/321/290 281/315/290
f 267/310/291 266/305/291 277/322/291 278/317/291
f 228/325/292 273/306/292 284/323/292
f 284/323/293 283/320/293 294/326/293 295/327/293
f 274/313/294 262/328/294 285/329/294
f 281/315/295 280/321/295 291/330/295 292/331/295
f 278/317/296 277/322/296 288/332/296 289/333/296
f 228/334/297 284/323/297 295/327/297
f 275/314/298 274/313/298 285/329/298 286/335/298
f 282/316/299 281/315/299 292/331/299 293/336/299
f 279/318/300 278/317/300 289/333/300 290/337/300
f 276/319/301 275/314/301 286/335/301 287/338/301
f 283/320/302 282/316/302 293/336/302 294/326/302
f 280/321/303 279/318/303 290/337/303 291/330/303
f 277/322/304 276/319/304 287/338/304 288/332/304
f 287/339/305 286/340/305 297/341/305 298/342/305
f 294/343/306 293/344/306 304/345/306 305/346/306
f 291/347/307 290/348/307 301/349/307 302/350/307
f 288/351/308 287/339/308 298/342/308 299/352/308
f 295/353/309 294/343/309 305/346/309 306/354/309
f 285/355/310 262/356/310 296/357/310
f 292/358/311 291/347/311 302/350/311 303/359/311
f 289/360/312 288/351/312 299/352/312 300/361/312
f 228/362/313 295/353/313 306/354/313
f 286/340/314 285/355/314 296/357/314 297/341/314
f 293/344/315 292/358/315 303/359/315 304/345/315
f 290/348/316 289/360/316 300/361/316 301/349/316
f 228/363/317 306/354/317 317/364/317
f 297/341/318 296/357/318 307/365/318 308/366/318
f 304/345/319 303/359/319 314/367/319 315/368/319
f 301/349/320 300/361/320 311/369/320 312/370/320
f 298/342/321 297/341/321 308/366/321 309/371/321
f 305/346/322 304/345/322 315/368/322 316/372/322
f 302/350/323 301/349/323 312/370/323 313/373/323
f 299/352/324 298/342/324 309/371/324 310/374/324
f 306/354/325 305/346/325 316/372/325 317/364/325
f 296/357/326 262/375/326 307/365/326
f 303/359/327 302/350/327 313/373/327 314/367/327
f 300/361/328 299/352/328 310/374/328 311/369/328
f 310/374/329 309/371/329 320/376/329 321/377/329
f 317/364/330 316/372/330 327/378/330 328/379/330
f 307/365/331 262/380/331 318/381/331
f 314/367/332 313/373/332 324/382/332 325/383/332
f 311/369/333 310/374/333 321/377/333 322/384/333
f 228/385/334 317/364/334 328/379/334
f 308/366/335 307/365/335 318/381/335 319/386/335
f 315/368/336 314/367/336 325/383/336 326/387/336
f 312/370/337 311/369/337 322/384/337 323/388/337
f 309/371/338 308/366/338 319/386/338 320/376/338
f 316/372/339 315/368/339 326/387/339 327/378/339
f 313/373/340 312/370/340 323/388/340 324/382/340
f 320/376/341 319/386/341 330/389/341 331/390/341
f 327/378/342 326/387/342 337/391/342 338/392/342
f 324/382/343 323/388/343 334/393/343 335/394/343
f 321/377/344 320/376/344 331/390/344 332/395/344
f 328/379/345 327/378/345 338/392/345 339/396/345
f 318/381/346 262/397/346 329/398/346
f 325/383/347 324/382/347 335/394/347 336/399/347
f 322/384/348 321/377/348 332/395/348 333/400/348
f 228/401/349 328/379/349 339/396/349
f 319/386/350 318/381/350 329/398/350 330/389/350
f 326/387/351 325/383/351 336/399/351 337/391/351
f 323/388/352 322/384/352 333/400/352 334/393/352
f 333/400/353 332/395/353 343/402/353 344/403/353
f 228/404/354 339/396/354 350/405/354
f 330/389/355 329/398/355 340/406/355 341/407/355
f 337/391/356 336/399/356 347/408/356 348/409/356
f 334/393/357 333/400/357 344/403/357 345/410/357
f 331/390/358 330/389/358 341/407/358 342/411/358
f 338/392/359 337/391/359 348/409/359 349/412/359
f 335/394/360 334/393/360 345/410/360 346/413/360
f 332/395/361 331/390/361 342/411/361 343/402/361
f 339/396/362 338/392/362 349/412/362 350/405/362
f 329/398/363 262/414/363 340/406/363
f 336/399/364 335/394/364 346/413/364 347/408/364
f 343/402/365 342/411/365 353/415/365 354/416/365
f 350/405/366 349/412/366 360/417/366 361/418/366
f 340/406/367 262/419/367 351/420/367
f 347/408/368 346/413/368 357/421/368 358/422/368
f 344/403/369 343/402/369 354/416/369 355/423/369
f 228/424/370 350/405/370 361/418/370
f 341/407/371 340/406/371 351/420/371 352/425/371
f 348/409/372 347/408/372 358/422/372 359/426/372
f 345/410/373 344/403/373 355/423/373 356/427/373
f 342/411/374 341/407/374 352/425/374 353/415/374
f 349/412/375 348/409/375 359/426/375 360/417/375
f 346/413/376 345/410/376 356/427/376 357/421/376
f 356/427/377 355/423/377 366/428/377 367/429/377
f 353/415/378 352/425/378 363/430/378 364/431/378
f 360/417/379 359/426/379 370/432/379 371/433/379
f 357/421/380 356/427/380 367/429/380 368/434/380
f 354/416/381 353/415/381 364/431/381 365/435/381
f 361/418/382 360/417/382 371/433/382 372/436/382
f 351/420/383 262/437/383 362/438/383
f 358/422/384 357/421/384 368/434/384 369/439/384
f 355/423/385 354/416/385 365/435/385 366/428/385
f 228/440/386 361/418/386 372/436/386
f 352/425/387 351/420/387 362/438/387 363/430/387
f 359/426/388 358/422/388 369/439/388 370/432/388
f 366/428/389 365/435/389 26/41/389 27/32/389
f 228/441/390 372/436/390 378/21/390
f 363/430/391 362/438/391 373/24/391 374/23/391
f 370/432/392 369/439/392 28/28/392 29/27/392
f 367/429/393 366/428/393 27/32/393 375/31/393
f 364/431/394 363/430/394 374/23/394 25/35/394
f 371/433/395 370/432/395 29/27/395 377/37/395
f 368/434/396 367/429/396 375/31/396 376/39/396
f 365/435/397 364/431/397 25/35/397 26/41/397
f 372/436/398 371/433/398 377/37/398 378/21/398
f 362/438/399 262/442/399 373/24/399
f 369/439/400 368/434/400 376/39/400 28/28/400
f 379/1/1 380/2/1 382/3/1 381/4/1
f 381/4/2 382/3/2 386/5/2 385/6/2
f 385/6/3 386/5/3 384/7/3 383/8/3
f 383/8/4 384/7/4 380/9/4 379/10/4
f 381/11/5 385/6/5 383/8/5 379/12/5
f 384/7/6 386/5/6 390/5/6 389/7/6
f 389/7/6 390/5/6 394/5/6 393/7/6
f 382/3/401 380/2/401 387/2/401 388/3/401
f 380/9/402 384/7/402 389/7/402 387/9/402
f 386/5/403 382/3/403 388/3/403 390/5/403
f 394/5/404 392/13/404 391/14/404 393/7/404
f 388/3/405 387/2/405 391/2/405 392/3/405
f 393/7/406 391/14/406 399/14/406 402/15/406
f 390/5/407 388/3/407 392/3/407 394/5/407
f 391/2/408 387/2/408 396/2/408 399/2/408
f 395/16/8 398/17/8 401/18/8 400/19/8
f 389/7/12 393/7/12 402/7/12 397/7/12
f 398/17/13 395/16/13 396/9/13 397/7/13
f 402/7/14 399/9/14 400/19/14 401/18/14
f 401/18/15 398/17/15 397/7/15 402/7/15
f 395/16/16 400/19/16 399/9/16 396/9/16
f 387/9/409 389/7/409 397/7/409 396/9/409
