# Blender 4.4.0
# www.blender.org
mtllib Cottage2.mtl
o Front
v 10.695137 4.162337 -10.407685
v 10.695137 -1.835222 -10.407685
v 10.695137 4.162337 -10.223756
v 10.695137 -1.835222 -10.223756
v -3.209378 4.162337 -10.407685
v -3.209378 -1.835222 -10.407685
v -3.209378 4.162337 -10.223756
v -3.209378 -1.835222 -10.223756
v -1.052011 3.368977 -10.223756
v 1.627208 3.368977 -10.223756
v -1.052011 0.342422 -10.223756
v 1.627208 0.342422 -10.223756
v -1.053219 0.342422 -10.407685
v -1.053219 3.368977 -10.407685
v 1.625999 3.368977 -10.407685
v 1.625999 0.342422 -10.407685
v 5.146540 0.342422 -10.223756
v 7.825758 0.342422 -10.223756
v 7.825758 3.368977 -10.223756
v 5.146540 3.368977 -10.223756
v 5.145332 0.342422 -10.407685
v 7.824551 0.342422 -10.407685
v 5.145332 3.368977 -10.407685
v 7.824551 3.368977 -10.407685
vn -0.0000 1.0000 -0.0000
vn -0.0000 -0.0000 1.0000
vn -1.0000 -0.0000 -0.0000
vn -0.0000 -1.0000 -0.0000
vn 1.0000 -0.0000 -0.0000
vn -0.0000 -0.0000 -1.0000
vn -1.0000 -0.0000 0.0066
vn 1.0000 -0.0000 -0.0066
vt -0.055806 0.666126
vt -1.053212 0.665648
vt -1.053062 -0.331758
vt -0.055656 -0.331280
vt -0.055506 -1.328685
vt 0.941899 -1.328208
vt 0.579730 -1.173628
vt 0.076408 -1.173869
vt 0.076312 -0.537044
vt 0.076379 -0.981682
vt 0.076341 -0.729232
vt 0.579701 -0.981441
vt 0.941750 -0.330802
vt 0.579634 -0.536803
vt 0.579663 -0.728990
vt 0.941300 2.661415
vt -0.056106 2.660937
vt -0.055956 1.663532
vt 0.941450 1.664010
vt 1.939005 0.667082
vt 0.941600 0.666604
vt 1.939155 -0.330324
vt 0.579326 1.509169
vt 0.076005 1.508928
vt 0.076101 0.872103
vt 0.076071 1.064290
vt 0.076034 1.316741
vt 0.579356 1.316982
vt 0.579393 1.064532
vt 0.579422 0.872345
vt 0.606641 1.663849
vt 0.423015 1.663761
vt 0.422865 2.661167
vt 0.606491 2.661255
vt 0.941450 1.663190
vt -0.055806 0.667706
vt -0.055806 0.667256
vt 0.941450 1.662740
vt 0.589222 0.666435
vt 0.589372 -0.330971
vt 0.405746 -0.331059
vt 0.405596 0.666347
vt 0.405740 -0.331059
vt 0.589374 -0.330971
vt 0.941899 -1.327388
vt 0.941899 -1.326938
vt 0.605831 1.663849
vt 0.422204 1.663761
vt 0.422054 2.661166
vt 0.605681 2.661254
vt 0.941450 1.663188
vt -0.055806 0.667704
vt -0.055806 0.667254
vt 0.941450 1.662738
vt 0.588412 0.666435
vt 0.588562 -0.330971
vt 0.404936 -0.331059
vt 0.404786 0.666346
vt 0.404924 -0.331059
vt 0.588577 -0.330971
vt 0.941899 -1.327386
vt 0.941899 -1.326936
s 0
usemtl Material.019
f 1/1/1 5/2/1 7/3/1 3/4/1
f 7/5/2 8/6/2 11/7/2 9/8/2
f 19/9/2 3/4/2 7/5/2 9/8/2 10/10/2 20/11/2
f 10/10/2 12/12/2 11/7/2 8/6/2 4/13/2 3/4/2 19/9/2 18/14/2 17/15/2 20/11/2
f 8/16/3 7/17/3 5/18/3 6/19/3
f 6/20/4 2/21/4 4/13/4 8/22/4
f 2/21/5 1/1/5 3/4/5 4/13/5
f 13/23/6 6/19/6 5/18/6 14/24/6
f 5/18/6 1/1/6 24/25/6 23/26/6 15/27/6 14/24/6
f 1/1/6 2/21/6 6/19/6 13/23/6 16/28/6 15/27/6 23/26/6 21/29/6 22/30/6 24/25/6
f 10/31/7 15/32/7 16/33/7 12/34/7
f 10/35/4 9/36/4 14/37/4 15/38/4
f 9/39/8 11/40/8 13/41/8 14/42/8
f 13/43/1 11/44/1 12/45/1 16/46/1
f 19/47/7 24/48/7 22/49/7 18/50/7
f 19/51/4 20/52/4 23/53/4 24/54/4
f 20/55/8 17/56/8 21/57/8 23/58/8
f 21/59/1 17/60/1 18/61/1 22/62/1
o Left
v 10.484272 -1.815410 -10.228647
v 10.668190 -1.815410 -10.261102
v 10.414198 -1.815410 5.612112
v 10.598115 -1.815410 5.614207
v 10.598115 4.157272 5.614207
v 10.632429 7.189167 -2.130290
v 10.668190 4.113126 -10.221588
vn 1.0000 -0.0000 0.0044
vn -0.0000 -1.0000 -0.0000
vt 0.004814 1.856176
vt 0.334328 1.382586
vt 0.979221 1.391819
vt 0.974836 2.368520
vt 0.334709 2.359355
vt 1.947152 3.359206
vt 0.970451 3.345222
vt 1.951537 2.382504
s 0
usemtl Material.001
f 30/63/9 29/64/9 28/65/9 26/66/9 31/67/9
f 27/68/10 25/69/10 26/66/10 28/70/10
o Right
v -3.306170 4.564719 -9.249352
v -3.202381 -1.815410 -10.219278
v -3.015367 4.564719 -9.251818
v -2.911577 -1.815410 -10.226553
v -3.272456 -1.815410 5.612112
v -2.981652 -1.815410 5.614208
v -2.954206 3.085155 -0.590128
v -2.945194 2.797348 -2.627323
v -2.945190 3.076002 -2.628168
v -2.954199 -1.770434 -0.591846
v -2.953322 -1.774205 -0.789871
v -2.957617 -1.774710 -0.868046
v -2.953771 -1.774263 -0.688510
v -2.954192 0.255704 -0.593292
v -2.945208 -1.449146 -2.624327
v -2.712010 -1.771359 -2.618920
v -2.945214 0.255966 -2.622813
v -2.712461 -1.773627 -2.517072
v -2.952606 -1.774157 -0.951790
v -2.952528 3.082529 -0.592725
v -2.940203 2.797060 -2.627892
v -2.940198 3.075869 -2.628529
v -3.024251 -1.772058 -0.594068
v -2.963973 0.253077 -0.595890
v -3.022151 -1.780840 -0.940915
v -3.022745 -1.776776 -0.842891
v -3.021518 -1.776690 -1.045420
v -3.023515 -1.776865 -0.715684
v -2.989340 -1.369887 -2.627103
v -3.019284 0.253489 -2.625208
v -2.990154 -1.776019 -2.492688
v -2.989380 -1.773164 -2.620336
v -3.236043 7.126045 -2.616855
v -2.945244 7.126045 -2.616103
v -2.911577 4.059547 -10.226553
v -2.911577 4.254922 -10.226553
v -3.202382 4.061110 -10.222440
v -3.011174 4.060494 -10.224061
v -3.202381 4.256732 -10.222544
v -3.004870 4.255901 -10.224218
v -3.210701 5.412504 -7.091208
v -3.239975 7.142423 -1.728345
v -2.949178 7.142423 -1.726766
v -2.981652 4.025134 5.614208
v -2.968649 5.193030 2.674739
v -2.969495 5.319859 2.865983
v -2.981652 4.227629 5.614208
v -2.947226 7.174428 -2.167965
v -3.272456 4.025334 5.612112
v -3.272456 4.226625 5.612112
v -3.237949 7.173729 -2.167797
v -2.951079 7.174041 -2.167013
v -2.948029 7.174427 -2.167967
vn 0.0011 -0.9329 0.3602
vn 1.0000 -0.0000 0.0044
vn 0.1177 -0.9931 -0.0000
vn 1.0000 -0.0033 0.0039
vn 0.4781 -0.8210 0.3119
vn 0.0704 0.9975 -0.0040
vn -0.0072 -0.0000 1.0000
vn -0.0000 -1.0000 -0.0000
vn 0.0004 -0.9532 0.3023
vn -0.0196 -0.0002 -0.9998
vn -0.4287 0.8472 -0.3138
vn -0.1814 0.9180 -0.3526
vn -0.0323 0.0039 0.9995
vn 0.0604 -0.0017 -0.9982
vn -0.0161 0.9999 0.0006
vn 0.3816 0.9243 -0.0016
vn 0.5399 -0.0001 -0.8417
vn -0.0430 0.0021 0.9991
vn -0.0929 -0.0026 -0.9957
vn -0.0405 0.9348 -0.3528
vn 0.0325 0.9264 0.3751
vn 0.0056 -0.9294 -0.3691
vt 2.580487 2.746425
vt 2.580373 0.985939
vt 1.734689 0.985939
vt 1.734689 2.746425
vt -0.012564 3.817192
vt 0.583579 3.817032
vt 1.416077 3.817384
vt 1.583738 4.180229
vt 1.125942 4.506911
vt -0.025797 4.506911
vt 0.018230 3.786484
vt -0.013674 3.795184
vt -0.013691 3.806449
vt -0.025797 2.746425
vt -0.013503 3.603229
vt -0.013659 3.777190
vt 1.131564 2.746425
vt 1.729828 3.642027
vt 1.413383 3.590882
vt 1.331397 3.590976
vt 0.583656 3.591477
vt 0.081967 3.591309
vt -0.012836 3.591910
vt 1.169717 2.746425
vt 1.734689 3.592223
vt -0.025797 -0.774547
vt -0.025797 -2.535033
vt 1.125942 -2.535033
vt 1.125981 -0.774547
vt -1.786283 0.985939
vt -0.025797 0.985939
vt -1.786283 2.746425
vt 1.170070 0.985939
vt 1.169908 2.181542
vt 1.131749 2.143375
vt 1.131869 0.985939
vt 1.602147 0.776920
vt 1.734689 0.140255
vt 3.846990 3.808820
vt 3.843721 4.220635
vt 3.874320 4.219142
vt 3.876566 3.889957
vt 3.892129 2.151164
vt 3.861598 2.153316
vt 4.148968 2.166562
vt 4.167276 4.233762
vt 4.201164 4.235054
vt 4.182834 2.168872
vt -2.578882 2.519719
vt -2.532514 2.638919
vt -1.242939 3.159210
vt -2.641873 2.764875
vt -2.595130 4.370447
vt -2.541809 4.492332
vt -2.511068 4.493951
vt -2.562963 4.346365
vt -2.578447 2.870764
vt -2.096041 2.918600
vt -2.499272 2.692854
vt -2.539664 2.549445
vt -2.498555 2.439797
vt -2.532666 2.437384
vt -2.305607 4.502768
vt -2.314740 2.435759
vt -2.348859 2.438672
vt -2.336328 4.503124
vt 4.123777 -0.720158
vt 4.157648 -0.717848
vt 3.914428 -0.441169
vt 3.883799 -0.441201
vt 3.916897 -0.725419
vt 3.886256 -0.725603
vt 1.655202 -0.628804
vt 0.346693 -0.640641
vt 0.347112 -0.650823
vt 0.347437 -0.672388
vt 0.885899 -0.666824
vt 1.655280 -0.660373
vt 0.352521 2.859649
vt 0.870233 2.871435
vt 1.722898 2.892415
vt 1.722898 2.892327
vt 1.722727 2.891989
vt 1.722578 2.860725
vt 0.352210 2.830355
vt 1.657966 0.863984
vt 1.657999 0.832653
vt 0.849417 0.844797
vt 0.365458 0.857012
vt 0.365125 0.890285
s 0
usemtl Material.002
f 65/71/11 64/72/11 32/73/11 34/74/11
f 41/75/12 45/76/12 38/77/12 76/78/12 75/79/12 37/80/12
f 43/81/13 42/82/13 44/83/13
f 44/83/12 41/75/12 37/80/12 35/84/12
f 49/85/14 50/86/14 43/81/14 35/84/14 66/87/14 79/88/14 76/78/14 38/77/14 40/89/14 39/90/14 48/91/14 46/92/14 47/93/14
f 67/94/15 65/95/15 34/74/15
f 43/81/16 44/83/16 35/84/16
f 36/96/17 37/97/17 75/98/17 80/99/17
f 36/100/18 33/101/18 35/84/18 37/102/18
f 32/73/19 70/103/19 71/104/19 67/94/19 34/74/19
f 69/105/20 66/87/20 35/84/20 33/101/20 68/106/20
f 70/103/21 32/73/21 72/107/21
f 72/107/22 32/73/22 64/108/22
f 60/109/23 63/110/23 47/111/23 46/112/23 48/113/23 61/114/23
f 45/115/24 41/116/24 54/117/24 55/118/24
f 44/119/25 42/120/25 43/121/25 50/122/25 49/123/25 47/124/25 63/125/25 62/126/25 58/127/25 56/128/25 57/129/25 59/130/25 54/131/25 41/132/25
f 40/133/26 38/134/26 51/135/26 53/136/26
f 38/137/27 45/115/27 55/118/27 51/138/27
f 39/139/28 52/140/28 61/114/28 48/113/28
f 40/141/29 53/142/29 52/140/29 39/139/29
f 65/143/30 67/144/30 71/145/30 70/146/30 72/147/30 64/148/30
f 75/149/31 76/150/31 79/151/31 84/152/31 83/153/31 82/154/31 80/155/31
f 73/156/32 74/157/32 77/158/32 78/159/32 81/160/32
l 33 63
o Back
v 10.607673 4.163886 5.603943
v 10.607673 -1.815410 5.603943
v 10.607673 4.163886 5.787872
v 10.607673 -1.815410 5.787872
v -3.296842 4.163886 5.603943
v -3.296842 -1.815410 5.603943
v -3.296842 4.163886 5.787872
v -3.296842 -1.815410 5.787872
v -1.077714 3.343200 5.787872
v 1.601504 3.343200 5.787872
v -1.077714 0.316645 5.787872
v 1.601504 0.316645 5.787872
v -1.078923 0.316645 5.603943
v -1.078923 3.343200 5.603943
v 1.600296 3.343200 5.603943
v 1.600296 0.316645 5.603943
v 5.043173 0.316645 5.787872
v 7.722392 0.316645 5.787872
v 5.043173 3.343200 5.787872
v 7.722392 3.343200 5.787872
v 5.041965 0.316645 5.603943
v 7.721183 0.316645 5.603943
v 5.041965 3.343200 5.603943
v 7.721183 3.343200 5.603943
vn -0.0000 1.0000 -0.0000
vn -0.0000 -0.0000 1.0000
vn -1.0000 -0.0000 -0.0000
vn -0.0000 -1.0000 -0.0000
vn 1.0000 -0.0000 -0.0000
vn -0.0000 -0.0000 -1.0000
vn -1.0000 -0.0000 0.0066
vn 1.0000 -0.0000 -0.0066
vt 1.020867 0.195678
vt -0.518712 0.191970
vt -0.517548 -1.347608
vt 1.022030 -1.343900
vt 1.023193 -2.883478
vt 2.562772 -2.879769
vt 2.013614 -2.635378
vt 1.234322 -2.637256
vt 1.233810 -1.959521
vt 1.234098 -2.340599
vt 2.013390 -2.338722
vt 2.561609 -1.340191
vt 1.233586 -1.662864
vt 2.012878 -1.660986
vt 2.013103 -1.957643
vt 2.558119 3.278543
vt 1.018541 3.274835
vt 1.019704 1.735257
vt 2.559282 1.738966
vt 4.100024 0.203096
vt 2.560445 0.199387
vt 4.101187 -1.336482
vt 2.010496 1.492064
vt 1.231204 1.490187
vt 1.231940 0.515794
vt 1.231716 0.812451
vt 1.231428 1.193529
vt 2.010720 1.195407
vt 2.011008 0.814328
vt 2.011231 0.517671
vt 1.626373 1.736718
vt 1.342930 1.736035
vt 1.341767 3.275614
vt 1.625210 3.276295
vt 2.559284 1.736681
vt 1.020866 0.197098
vt 1.020866 0.196404
vt 2.559285 1.735986
vt 1.600417 0.197075
vt 1.601580 -1.342503
vt 1.318138 -1.343186
vt 1.316975 0.196392
vt 2.562770 -2.877483
vt 2.562769 -2.876789
vt 1.318154 -1.343186
vt 1.601526 -1.342503
s 0
usemtl Material.003
f 85/161/33 89/162/33 91/163/33 87/164/33
f 91/165/34 92/166/34 95/167/34 93/168/34
f 103/169/34 94/170/34 96/171/34 95/167/34 92/166/34 88/172/34 87/164/34 104/173/34 102/174/34 101/175/34
f 104/173/34 87/164/34 91/165/34 93/168/34 94/170/34 103/169/34
f 92/176/35 91/177/35 89/178/35 90/179/35
f 90/180/36 86/181/36 88/172/36 92/182/36
f 86/181/37 85/161/37 87/164/37 88/172/37
f 97/183/38 90/179/38 89/178/38 98/184/38
f 89/178/38 85/161/38 108/185/38 107/186/38 99/187/38 98/184/38
f 85/161/38 86/181/38 90/179/38 97/183/38 100/188/38 99/187/38 107/186/38 105/189/38 106/190/38 108/185/38
f 94/191/39 99/192/39 100/193/39 96/194/39
f 94/195/36 93/196/36 98/197/36 99/198/36
f 93/199/40 95/200/40 97/201/40 98/202/40
f 97/201/33 95/200/33 96/203/33 100/204/33
f 104/191/39 108/192/39 106/193/39 102/194/39
f 104/195/36 103/196/36 107/197/36 108/198/36
f 103/199/40 101/200/40 105/201/40 107/202/40
f 105/205/33 101/206/33 102/203/33 106/204/33
o RoofFront
v 11.927608 7.385909 -2.087906
v 11.679561 3.484146 -12.393162
v 11.804250 7.205732 -2.086719
v 11.679561 3.315275 -12.320274
v -4.296778 7.374603 -2.159607
v -4.095177 3.484146 -12.393162
v -4.296778 7.205732 -2.086719
v -4.095177 3.315275 -12.320274
vn -0.0022 0.2084 0.9781
vn -0.0000 -0.9347 0.3554
vn -0.9998 -0.0073 -0.0169
vn -0.0000 -0.3963 -0.9181
vn 0.9446 -0.3123 0.1013
vn 0.0005 0.9350 -0.3547
vt 0.625000 0.500000
vt 0.875000 0.500000
vt 0.875000 0.750000
vt 0.625000 0.750000
vt 0.375000 0.750000
vt 0.625000 1.000000
vt 0.375000 1.000000
vt 0.375000 0.000000
vt 0.625000 0.000000
vt 0.625000 0.250000
vt 0.375000 0.250000
vt 0.125000 0.500000
vt 0.375000 0.500000
vt 0.125000 0.750000
s 0
usemtl Material.007
f 109/207/41 113/208/41 115/209/41 111/210/41
f 112/211/42 111/210/42 115/212/42 116/213/42
f 116/214/43 115/215/43 113/216/43 114/217/43
f 114/218/44 110/219/44 112/211/44 116/220/44
f 110/219/45 109/207/45 111/210/45 112/211/45
f 114/217/46 113/216/46 109/207/46 110/219/46
o RoofBack
v -4.290621 7.370018 -2.114604
v -4.056860 3.402131 7.597058
v -4.289468 7.201148 -2.111929
v -4.055708 3.233260 7.524179
v 11.944399 7.347039 -1.985471
v 11.633339 3.322679 8.040367
v 11.812994 7.150236 -2.017231
v 11.648575 3.153808 7.967490
vn 0.0071 0.0768 -0.9970
vn 0.0026 -0.9266 -0.3761
vn 0.9563 -0.2784 -0.0889
vn -0.0279 -0.3972 0.9173
vn -0.9997 -0.0109 0.0197
vn -0.0038 0.9269 0.3753
vt 0.625000 0.500000
vt 0.875000 0.500000
vt 0.875000 0.750000
vt 0.625000 0.750000
vt 0.375000 0.750000
vt 0.625000 1.000000
vt 0.375000 1.000000
vt 0.375000 0.000000
vt 0.625000 0.000000
vt 0.625000 0.250000
vt 0.375000 0.250000
vt 0.125000 0.500000
vt 0.375000 0.500000
vt 0.125000 0.750000
s 0
usemtl Material.008
f 117/221/47 121/222/47 123/223/47 119/224/47
f 120/225/48 119/224/48 123/226/48 124/227/48
f 124/228/49 123/229/49 121/230/49 122/231/49
f 122/232/50 118/233/50 120/225/50 124/234/50
f 118/233/51 117/221/51 119/224/51 120/225/51
f 122/231/52 121/230/52 117/221/52 118/233/52
o Cube
v 11.988374 7.372925 -2.273651
v 12.000769 7.278767 -2.405933
v -4.290657 7.396983 -2.243873
v -4.325062 7.262403 -2.453142
v 12.022643 7.350598 -1.904933
v 11.994361 7.262041 -1.783463
v -4.317131 7.321476 -1.933480
v -4.326239 7.241242 -1.840032
v 11.987613 7.346814 -2.305917
v 11.996160 7.291030 -1.833300
v 11.997930 7.445027 -2.096748
v 11.996985 7.380227 -2.095743
v 11.999902 7.408355 -2.096168
v 11.994358 7.405760 -1.999045
v 11.993371 7.419013 -2.195316
v 11.996646 7.350873 -2.187871
v 11.997490 7.324762 -1.968189
v 11.993367 7.394152 -2.191252
v 12.001437 7.371404 -1.997967
v -4.289333 7.395748 -2.025834
v -4.309374 7.349412 -2.135152
v -4.311378 7.329075 -2.343426
v -4.273860 7.438480 -2.132837
v -4.316449 7.318858 -2.030748
v -4.307111 7.341973 -2.200950
vn 0.0004 0.8309 -0.5564
vn -0.9578 0.2874 0.0019
vn -0.0026 0.7867 0.6174
vn 0.9874 0.1434 -0.0671
vn -0.0010 0.9897 0.1429
vn 0.0013 -0.9995 -0.0307
vn 0.9976 0.0251 -0.0640
vn 0.9759 -0.1700 -0.1367
vn 0.9944 -0.1007 -0.0332
vt 0.375000 0.000000
vt 0.500000 0.000000
vt 0.625000 0.000000
vt 0.625000 0.250000
vt 0.500000 0.250000
vt 0.375000 0.250000
vt 0.625000 0.312500
vt 0.625000 0.375000
vt 0.625000 0.437500
vt 0.625000 0.500000
vt 0.375000 0.500000
vt 0.375000 0.375000
vt 0.375000 0.312500
vt 0.625000 0.750000
vt 0.500000 0.750000
vt 0.375000 0.750000
vt 0.500000 0.875000
vt 0.625000 0.875000
vt 0.625000 0.937500
vt 0.625000 1.000000
vt 0.500000 1.000000
vt 0.500000 0.937500
vt 0.125000 0.500000
vt 0.187500 0.500000
vt 0.250000 0.500000
vt 0.312500 0.750000
vt 0.250000 0.750000
vt 0.187500 0.750000
vt 0.125000 0.750000
vt 0.687500 0.500000
vt 0.750000 0.500000
vt 0.812500 0.500000
vt 0.875000 0.500000
vt 0.875000 0.750000
vt 0.812500 0.750000
vt 0.750000 0.750000
vt 0.687500 0.750000
vt 0.375000 0.875000
vt 0.375000 1.000000
vt 0.375000 0.937500
vt 0.500000 0.812500
vt 0.375000 0.812500
vt 0.625000 0.812500
s 0
usemtl Material.024
f 125/235/53 133/236/53 126/237/53 128/238/53 146/239/53 127/240/53
f 127/240/54 146/239/54 128/238/54 149/241/54 145/242/54 148/243/54 132/244/54 131/245/54 144/246/54 147/247/54
f 131/245/55 132/244/55 130/248/55 134/249/55 129/250/55
f 137/251/56 136/252/56 140/253/56 126/254/56 133/255/56 142/256/56
f 127/257/57 147/258/57 144/259/57 131/245/57 129/250/57 138/260/57 135/261/57 139/262/57 125/263/57
f 132/244/58 148/264/58 145/265/58 149/266/58 128/267/58 126/268/58 140/269/58 136/270/58 141/271/58 130/248/58
f 135/272/59 137/251/59 142/256/59 133/255/59 125/273/59 139/274/59
f 129/250/60 134/249/60 143/275/60 137/251/60 135/272/60 138/276/60
f 134/249/61 130/248/61 141/277/61 136/252/61 137/251/61 143/275/61
o Window
v 5.015656 3.354084 5.623601
v 5.015656 0.319926 5.623601
v 7.722552 3.354084 5.605821
v 7.722552 0.319926 5.605821
v 5.017375 3.354084 5.885144
v 5.017375 0.319926 5.885144
v 7.724271 3.354084 5.867363
v 7.724271 0.319926 5.867363
v 7.558157 3.264973 5.868454
v 5.206339 3.265646 5.883903
v 7.556244 0.455098 5.868467
v 5.204426 0.455772 5.883915
v 7.556434 3.264437 5.606912
v 5.204616 3.265110 5.622360
v 5.202703 0.455236 5.622373
v 7.554521 0.454562 5.606925
v 5.165285 3.274383 5.700351
v 5.154715 0.433094 5.700421
v 7.551143 3.266140 5.684680
v 7.540572 0.424851 5.684749
v 5.166143 3.274383 5.830903
v 5.155573 0.433094 5.830973
v 7.552000 3.266140 5.815231
v 7.541430 0.424851 5.815301
v 7.405305 3.184775 5.816195
v 5.332415 3.192555 5.829811
v 7.393761 0.549553 5.816271
v 5.320871 0.557333 5.829886
v 7.404441 3.184283 5.685643
v 5.331552 3.192063 5.699259
v 5.320007 0.556840 5.699335
v 7.392897 0.549060 5.685719
v 4.837476 0.469033 5.532609
v 4.837476 0.326785 5.532609
v 7.925906 0.469033 5.512323
v 7.925906 0.326786 5.512323
v 4.834592 0.469033 5.093527
v 4.834592 0.326785 5.093527
v 7.923022 0.469033 5.073241
v 7.923022 0.326786 5.073241
v 5.995258 0.334826 5.384846
v 5.995258 0.257506 5.384846
v 5.952625 0.334826 5.385126
v 5.952625 0.257506 5.385126
v 5.995501 0.334826 5.421785
v 5.995501 0.257506 5.421785
v 5.952868 0.334826 5.422065
v 5.952868 0.257506 5.422065
v 6.837390 0.336223 5.378106
v 6.837390 0.258902 5.378106
v 6.794757 0.336223 5.378386
v 6.794757 0.258902 5.378386
v 6.837632 0.336223 5.415045
v 6.837632 0.258902 5.415045
v 6.795000 0.336223 5.415325
v 6.795000 0.258902 5.415325
v 5.993959 0.279720 5.419071
v 5.995632 0.279720 5.673736
v 5.993959 0.258475 5.419071
v 5.995632 0.258475 5.673736
v 5.953083 0.279720 5.419340
v 5.954755 0.279720 5.674004
v 5.953083 0.258475 5.419340
v 5.954755 0.258475 5.674004
v 6.836630 0.279720 5.413536
v 6.838303 0.279720 5.668200
v 6.836630 0.258475 5.413536
v 6.838303 0.258475 5.668200
v 6.795754 0.279720 5.413805
v 6.797427 0.279720 5.668469
v 6.795754 0.258475 5.413805
v 6.797427 0.258475 5.668469
v 7.630670 0.262228 5.874746
v 9.103170 0.262228 5.803019
v 7.635999 0.262228 5.984139
v 9.108500 0.262228 5.912412
v 7.630670 3.386802 5.874746
v 9.103170 3.386802 5.803019
v 7.635999 3.386802 5.984139
v 9.108500 3.386802 5.912412
v 3.626678 0.280846 5.905968
v 5.100894 0.280846 5.896483
v 3.627382 0.280846 6.015488
v 5.101598 0.280846 6.006004
v 3.626678 3.405420 5.905967
v 5.100894 3.405420 5.896483
v 3.627382 3.405420 6.015488
v 5.101598 3.405420 6.006003
v 6.431423 3.256858 5.696808
v 6.420221 0.510395 5.709155
v 6.350087 3.257192 5.697343
v 6.338886 0.510729 5.709689
v 6.432053 3.257286 5.792453
v 6.420851 0.510822 5.804799
v 6.350717 3.257620 5.792987
v 6.339516 0.511156 5.805333
v 7.400342 1.709121 5.800469
v 5.326092 1.717165 5.814130
v 7.399924 1.709121 5.736858
v 5.325673 1.717165 5.750520
v 7.400702 1.801795 5.800467
v 5.326451 1.809839 5.814128
v 7.400283 1.801795 5.736856
v 5.326032 1.809839 5.750517
vn -0.0000 1.0000 -0.0000
vn 1.0000 -0.0000 -0.0066
vn 0.0066 -0.0000 1.0000
vn -0.0000 -1.0000 -0.0000
vn -0.0066 -0.0000 -1.0000
vn -1.0000 -0.0000 0.0066
vn -0.0003 -1.0000 0.0021
vn -1.0000 0.0007 0.0066
vn 0.0003 1.0000 -0.0021
vn 1.0000 -0.0007 -0.0066
vn 0.0035 1.0000 -0.0000
vn 1.0000 -0.0037 -0.0066
vn -0.0035 -1.0000 -0.0000
vn -1.0000 0.0037 0.0066
vn -0.0037 -1.0000 0.0038
vn -1.0000 0.0044 0.0066
vn 0.0037 1.0000 -0.0038
vn 1.0000 -0.0044 -0.0066
vn 0.0487 -0.0000 0.9988
vn -0.0487 -0.0000 -0.9988
vn -0.9988 -0.0000 0.0487
vn 0.9988 -0.0000 -0.0487
vn 0.0064 -0.0000 1.0000
vn -0.0064 -0.0000 -1.0000
vn -1.0000 -0.0000 0.0064
vn 1.0000 -0.0000 -0.0064
vn -0.0066 -0.0045 -1.0000
vn -1.0000 0.0041 0.0066
vn 0.0066 0.0045 1.0000
vn 1.0000 -0.0041 -0.0066
vn 0.0041 1.0000 -0.0045
vn -0.0041 -1.0000 0.0045
vn -0.0039 -1.0000 -0.0000
vn 0.0039 1.0000 -0.0000
vn 1.0000 -0.0039 -0.0066
vn -1.0000 0.0039 0.0066
vt 0.625000 0.500000
vt 0.875000 0.500000
vt 0.875000 0.750000
vt 0.625000 0.750000
vt 0.375000 0.750000
vt 0.625000 1.000000
vt 0.375000 1.000000
vt 0.602902 0.210742
vt 0.625000 0.250000
vt 0.375000 0.250000
vt 0.375000 0.000000
vt 0.625000 0.000000
vt 0.602856 0.039438
vt 0.411373 0.039578
vt 0.411418 0.210882
vt 0.125000 0.500000
vt 0.375000 0.500000
vt 0.125000 0.750000
vt 0.602820 0.710561
vt 0.602865 0.539257
vt 0.411382 0.539118
vt 0.411336 0.710422
vt 0.856137 0.500000
vt 0.719964 0.500000
vt 0.719982 0.750000
vt 0.856155 0.750000
vt 0.625000 0.981155
vt 0.625000 0.844982
vt 0.375000 0.839478
vt 0.375000 0.975651
vt 0.149367 0.500000
vt 0.149349 0.750000
vt 0.285522 0.750000
vt 0.285539 0.500000
vt 0.625000 0.405036
vt 0.625000 0.268863
vt 0.375000 0.274367
vt 0.375000 0.410539
s 0
usemtl Material.009
f 150/278/62 154/279/62 156/280/62 152/281/62
f 153/282/63 152/281/63 156/283/63 157/284/63
f 159/285/64 154/286/64 155/287/64 157/288/64 156/289/64 158/290/64 160/291/64 161/292/64
f 156/289/64 154/286/64 159/285/64 158/290/64
f 155/293/65 151/294/65 153/282/65 157/295/65
f 162/296/66 152/281/66 153/282/66 151/294/66 150/278/66 163/297/66 164/298/66 165/299/66
f 163/297/66 150/278/66 152/281/66 162/296/66
f 155/287/67 154/286/67 150/278/67 151/294/67
f 159/300/68 163/301/68 162/302/68 158/303/68
f 158/304/69 162/305/69 165/306/69 160/307/69
f 161/308/70 160/309/70 165/310/70 164/311/70
f 163/312/71 159/313/71 161/314/71 164/315/71
usemtl Material.020
f 166/278/72 170/279/72 172/280/72 168/281/72
f 169/282/73 168/281/73 172/283/73 173/284/73
f 175/285/64 170/286/64 171/287/64 173/288/64 172/289/64 174/290/64 176/291/64 177/292/64
f 172/289/64 170/286/64 175/285/64 174/290/64
f 171/293/74 167/294/74 169/282/74 173/295/74
f 178/296/66 168/281/66 169/282/66 167/294/66 166/278/66 179/297/66 180/298/66 181/299/66
f 179/297/66 166/278/66 168/281/66 178/296/66
f 171/287/75 170/286/75 166/278/75 167/294/75
f 175/300/76 179/301/76 178/302/76 174/303/76
f 174/304/77 178/305/77 181/306/77 176/307/77
f 177/308/78 176/309/78 181/310/78 180/311/78
f 179/312/79 175/313/79 177/314/79 180/315/79
usemtl Material.018
f 182/288/64 183/289/64 185/286/64 184/287/64
f 184/287/63 185/286/63 189/278/63 188/294/63
f 188/294/66 189/278/66 187/281/66 186/282/66
f 186/282/67 187/281/67 183/283/67 182/284/67
f 184/293/62 188/294/62 186/282/62 182/295/62
f 189/278/65 185/279/65 183/280/65 187/281/65
f 190/288/66 191/289/66 193/286/66 192/287/66
f 192/287/67 193/286/67 197/278/67 196/294/67
f 196/294/64 197/278/64 195/281/64 194/282/64
f 194/282/63 195/281/63 191/283/63 190/284/63
f 192/293/62 196/294/62 194/282/62 190/295/62
f 197/278/65 193/279/65 191/280/65 195/281/65
f 198/288/66 199/289/66 201/286/66 200/287/66
f 200/287/67 201/286/67 205/278/67 204/294/67
f 204/294/64 205/278/64 203/281/64 202/282/64
f 202/282/63 203/281/63 199/283/63 198/284/63
f 200/293/62 204/294/62 202/282/62 198/295/62
f 205/278/65 201/279/65 199/280/65 203/281/65
f 206/288/63 207/289/63 209/286/63 208/287/63
f 208/287/65 209/286/65 213/278/65 212/294/65
f 212/294/67 213/278/67 211/281/67 210/282/67
f 210/282/62 211/281/62 207/283/62 206/284/62
f 208/293/66 212/294/66 210/282/66 206/295/66
f 213/278/64 209/279/64 207/280/64 211/281/64
f 214/288/63 215/289/63 217/286/63 216/287/63
f 216/287/65 217/286/65 221/278/65 220/294/65
f 220/294/67 221/278/67 219/281/67 218/282/67
f 218/282/62 219/281/62 215/283/62 214/284/62
f 216/293/66 220/294/66 218/282/66 214/295/66
f 221/278/64 217/279/64 215/280/64 219/281/64
f 222/288/65 223/289/65 225/286/65 224/287/65
f 224/287/80 225/286/80 229/278/80 228/294/80
f 228/294/62 229/278/62 227/281/62 226/282/62
f 226/282/81 227/281/81 223/283/81 222/284/81
f 224/293/82 228/294/82 226/282/82 222/295/82
f 229/278/83 225/279/83 223/280/83 227/281/83
f 230/288/65 231/289/65 233/286/65 232/287/65
f 232/287/84 233/286/84 237/278/84 236/294/84
f 236/294/62 237/278/62 235/281/62 234/282/62
f 234/282/85 235/281/85 231/283/85 230/284/85
f 232/293/86 236/294/86 234/282/86 230/295/86
f 237/278/87 233/279/87 231/280/87 235/281/87
f 238/288/88 239/289/88 241/286/88 240/287/88
f 240/287/89 241/286/89 245/278/89 244/294/89
f 244/294/90 245/278/90 243/281/90 242/282/90
f 242/282/91 243/281/91 239/283/91 238/284/91
f 240/293/92 244/294/92 242/282/92 238/295/92
f 245/278/93 241/279/93 239/280/93 243/281/93
f 246/288/94 247/289/94 249/286/94 248/287/94
f 248/287/66 249/286/66 253/278/66 252/294/66
f 252/294/95 253/278/95 251/281/95 250/282/95
f 250/282/64 251/281/64 247/283/64 246/284/64
f 248/293/96 252/294/96 250/282/96 246/295/96
f 253/278/97 249/279/97 247/280/97 251/281/97
o Floor
v 10.560522 -1.989770 -10.369864
v 10.560522 -1.805929 -10.369864
v 10.560524 -1.989770 5.737311
v 10.560524 -1.805929 5.737311
v -3.177333 -1.989770 -10.369862
v -3.177333 -1.805929 -10.369862
v -3.177332 -1.989770 5.737313
v -3.177332 -1.805929 5.737313
vn 1.0000 -0.0000 -0.0000
vn -0.0000 -0.0000 1.0000
vn -1.0000 -0.0000 -0.0000
vn -0.0000 -0.0000 -1.0000
vn -0.0000 -1.0000 -0.0000
vn -0.0000 1.0000 -0.0000
vt -0.523447 -3.593788
vt 1.523447 -3.593788
vt 1.523447 -1.546894
vt -0.523447 -1.546894
vt 1.523447 0.500000
vt -0.523447 0.500000
vt 1.523447 2.546894
vt -0.523447 2.546894
vt 1.523447 4.593788
vt -0.523447 4.593788
vt -2.570341 0.500000
vt -2.570341 2.546894
vt 3.570341 0.500000
vt 3.570341 2.546894
s 0
usemtl Material.017
f 254/316/98 255/317/98 257/318/98 256/319/98
f 256/319/99 257/318/99 261/320/99 260/321/99
f 260/321/100 261/320/100 259/322/100 258/323/100
f 258/323/101 259/322/101 255/324/101 254/325/101
f 256/326/102 260/321/102 258/323/102 254/327/102
f 261/320/103 257/328/103 255/329/103 259/322/103
o Window.001
v -1.092338 3.354084 5.616394
v -1.092338 0.319926 5.616394
v 1.614558 3.354084 5.598613
v 1.614558 0.319926 5.598613
v -1.090620 3.354084 5.877936
v -1.090620 0.319926 5.877936
v 1.616277 3.354084 5.860156
v 1.616277 0.319926 5.860156
v 1.450163 3.264973 5.861247
v -0.901655 3.265646 5.876695
v 1.448250 0.455098 5.861259
v -0.903568 0.455772 5.876708
v 1.448440 3.264437 5.599705
v -0.903379 3.265110 5.615152
v -0.905291 0.455236 5.615165
v 1.446527 0.454562 5.599717
v -0.942709 3.274383 5.693144
v -0.953279 0.433094 5.693213
v 1.443148 3.266140 5.677472
v 1.432578 0.424851 5.677542
v -0.941851 3.274383 5.823696
v -0.952421 0.433094 5.823765
v 1.444006 3.266140 5.808024
v 1.433436 0.424851 5.808094
v 1.297311 3.184775 5.808988
v -0.775579 3.192555 5.822603
v 1.285766 0.549553 5.809063
v -0.787123 0.557333 5.822680
v 1.296447 3.184283 5.678436
v -0.776443 3.192063 5.692052
v -0.787987 0.556840 5.692128
v 1.284903 0.549060 5.678512
v -1.270518 0.469033 5.525402
v -1.270518 0.326785 5.525402
v 1.817912 0.469033 5.505116
v 1.817912 0.326786 5.505116
v -1.273402 0.469033 5.086320
v -1.273402 0.326785 5.086320
v 1.815028 0.469033 5.066034
v 1.815028 0.326786 5.066034
v -0.112736 0.334826 5.377638
v -0.112736 0.257506 5.377638
v -0.155369 0.334826 5.377918
v -0.155369 0.257506 5.377918
v -0.112494 0.334826 5.414578
v -0.112494 0.257506 5.414578
v -0.155126 0.334826 5.414858
v -0.155126 0.257506 5.414858
v 0.729396 0.336223 5.370898
v 0.729396 0.258902 5.370898
v 0.686763 0.336223 5.371179
v 0.686763 0.258902 5.371179
v 0.729638 0.336223 5.407838
v 0.729638 0.258902 5.407838
v 0.687005 0.336223 5.408118
v 0.687005 0.258902 5.408118
v -0.114035 0.279720 5.411864
v -0.112362 0.279720 5.666528
v -0.114035 0.258475 5.411864
v -0.112362 0.258475 5.666528
v -0.154912 0.279720 5.412132
v -0.153239 0.279720 5.666797
v -0.154912 0.258475 5.412132
v -0.153239 0.258475 5.666797
v 0.728636 0.279720 5.406329
v 0.730309 0.279720 5.660993
v 0.728636 0.258475 5.406329
v 0.730309 0.258475 5.660993
v 0.687760 0.279720 5.406597
v 0.689433 0.279720 5.661262
v 0.687760 0.258475 5.406597
v 0.689433 0.258475 5.661262
v 1.522676 0.262228 5.867539
v 2.995177 0.262228 5.795811
v 1.528005 0.262228 5.976932
v 3.000505 0.262228 5.905204
v 1.522676 3.386802 5.867539
v 2.995177 3.386802 5.795811
v 1.528005 3.386802 5.976932
v 3.000505 3.386802 5.905204
v -2.481316 0.280846 5.898760
v -1.007100 0.280846 5.889276
v -2.480612 0.280846 6.008281
v -1.006396 0.280846 5.998796
v -2.481316 3.405420 5.898760
v -1.007100 3.405420 5.889276
v -2.480612 3.405420 6.008280
v -1.006396 3.405420 5.998796
v 0.323429 3.256858 5.689601
v 0.312227 0.510395 5.701947
v 0.242093 3.257192 5.690135
v 0.230891 0.510729 5.702482
v 0.324059 3.257286 5.785245
v 0.312857 0.510822 5.797592
v 0.242723 3.257620 5.785779
v 0.231521 0.511156 5.798126
v 1.292349 1.709121 5.793262
v -0.781902 1.717165 5.806923
v 1.291929 1.709121 5.729651
v -0.782321 1.717165 5.743312
v 1.292708 1.801795 5.793260
v -0.781543 1.809839 5.806921
v 1.292289 1.801795 5.729649
v -0.781962 1.809839 5.743310
vn -0.0000 1.0000 -0.0000
vn 1.0000 -0.0000 -0.0066
vn 0.0066 -0.0000 1.0000
vn -0.0000 -1.0000 -0.0000
vn -0.0066 -0.0000 -1.0000
vn -1.0000 -0.0000 0.0066
vn -0.0003 -1.0000 0.0021
vn -1.0000 0.0007 0.0066
vn 0.0003 1.0000 -0.0021
vn 1.0000 -0.0007 -0.0066
vn 0.0035 1.0000 -0.0000
vn 1.0000 -0.0037 -0.0066
vn -0.0035 -1.0000 -0.0000
vn -1.0000 0.0037 0.0066
vn -0.0037 -1.0000 0.0038
vn -1.0000 0.0044 0.0066
vn 0.0037 1.0000 -0.0038
vn 1.0000 -0.0044 -0.0066
vn 0.0487 -0.0000 0.9988
vn -0.0487 -0.0000 -0.9988
vn -0.9988 -0.0000 0.0487
vn 0.9988 -0.0000 -0.0487
vn 0.0064 -0.0000 1.0000
vn -0.0064 -0.0000 -1.0000
vn -1.0000 -0.0000 0.0064
vn 1.0000 -0.0000 -0.0064
vn -0.0066 -0.0045 -1.0000
vn -1.0000 0.0041 0.0066
vn 0.0066 0.0045 1.0000
vn 1.0000 -0.0041 -0.0066
vn 0.0041 1.0000 -0.0045
vn -0.0041 -1.0000 0.0045
vn -0.0039 -1.0000 -0.0000
vn 0.0039 1.0000 -0.0000
vn 1.0000 -0.0039 -0.0066
vn -1.0000 0.0039 0.0066
vt 0.625000 0.500000
vt 0.875000 0.500000
vt 0.875000 0.750000
vt 0.625000 0.750000
vt 0.375000 0.750000
vt 0.625000 1.000000
vt 0.375000 1.000000
vt 0.602902 0.210742
vt 0.625000 0.250000
vt 0.375000 0.250000
vt 0.375000 0.000000
vt 0.625000 0.000000
vt 0.602856 0.039438
vt 0.411373 0.039578
vt 0.411418 0.210882
vt 0.125000 0.500000
vt 0.375000 0.500000
vt 0.125000 0.750000
vt 0.602820 0.710561
vt 0.602865 0.539257
vt 0.411382 0.539118
vt 0.411336 0.710422
vt 0.856137 0.500000
vt 0.719964 0.500000
vt 0.719982 0.750000
vt 0.856155 0.750000
vt 0.625000 0.981155
vt 0.625000 0.844982
vt 0.375000 0.839478
vt 0.375000 0.975651
vt 0.149367 0.500000
vt 0.149349 0.750000
vt 0.285522 0.750000
vt 0.285539 0.500000
vt 0.625000 0.405036
vt 0.625000 0.268863
vt 0.375000 0.274367
vt 0.375000 0.410539
s 0
usemtl Material.025
f 262/330/104 266/331/104 268/332/104 264/333/104
f 265/334/105 264/333/105 268/335/105 269/336/105
f 271/337/106 266/338/106 267/339/106 269/340/106 268/341/106 270/342/106 272/343/106 273/344/106
f 268/341/106 266/338/106 271/337/106 270/342/106
f 267/345/107 263/346/107 265/334/107 269/347/107
f 274/348/108 264/333/108 265/334/108 263/346/108 262/330/108 275/349/108 276/350/108 277/351/108
f 275/349/108 262/330/108 264/333/108 274/348/108
f 267/339/109 266/338/109 262/330/109 263/346/109
f 271/352/110 275/353/110 274/354/110 270/355/110
f 270/356/111 274/357/111 277/358/111 272/359/111
f 273/360/112 272/361/112 277/362/112 276/363/112
f 275/364/113 271/365/113 273/366/113 276/367/113
usemtl Material.026
f 278/330/114 282/331/114 284/332/114 280/333/114
f 281/334/115 280/333/115 284/335/115 285/336/115
f 287/337/106 282/338/106 283/339/106 285/340/106 284/341/106 286/342/106 288/343/106 289/344/106
f 284/341/106 282/338/106 287/337/106 286/342/106
f 283/345/116 279/346/116 281/334/116 285/347/116
f 290/348/108 280/333/108 281/334/108 279/346/108 278/330/108 291/349/108 292/350/108 293/351/108
f 291/349/108 278/330/108 280/333/108 290/348/108
f 283/339/117 282/338/117 278/330/117 279/346/117
f 287/352/118 291/353/118 290/354/118 286/355/118
f 286/356/119 290/357/119 293/358/119 288/359/119
f 289/360/120 288/361/120 293/362/120 292/363/120
f 291/364/121 287/365/121 289/366/121 292/367/121
usemtl Material.027
f 294/340/106 295/341/106 297/338/106 296/339/106
f 296/339/105 297/338/105 301/330/105 300/346/105
f 300/346/108 301/330/108 299/333/108 298/334/108
f 298/334/109 299/333/109 295/335/109 294/336/109
f 296/345/104 300/346/104 298/334/104 294/347/104
f 301/330/107 297/331/107 295/332/107 299/333/107
f 302/340/108 303/341/108 305/338/108 304/339/108
f 304/339/109 305/338/109 309/330/109 308/346/109
f 308/346/106 309/330/106 307/333/106 306/334/106
f 306/334/105 307/333/105 303/335/105 302/336/105
f 304/345/104 308/346/104 306/334/104 302/347/104
f 309/330/107 305/331/107 303/332/107 307/333/107
f 310/340/108 311/341/108 313/338/108 312/339/108
f 312/339/109 313/338/109 317/330/109 316/346/109
f 316/346/106 317/330/106 315/333/106 314/334/106
f 314/334/105 315/333/105 311/335/105 310/336/105
f 312/345/104 316/346/104 314/334/104 310/347/104
f 317/330/107 313/331/107 311/332/107 315/333/107
f 318/340/105 319/341/105 321/338/105 320/339/105
f 320/339/107 321/338/107 325/330/107 324/346/107
f 324/346/109 325/330/109 323/333/109 322/334/109
f 322/334/104 323/333/104 319/335/104 318/336/104
f 320/345/108 324/346/108 322/334/108 318/347/108
f 325/330/106 321/331/106 319/332/106 323/333/106
f 326/340/105 327/341/105 329/338/105 328/339/105
f 328/339/107 329/338/107 333/330/107 332/346/107
f 332/346/109 333/330/109 331/333/109 330/334/109
f 330/334/104 331/333/104 327/335/104 326/336/104
f 328/345/108 332/346/108 330/334/108 326/347/108
f 333/330/106 329/331/106 327/332/106 331/333/106
f 334/340/107 335/341/107 337/338/107 336/339/107
f 336/339/122 337/338/122 341/330/122 340/346/122
f 340/346/104 341/330/104 339/333/104 338/334/104
f 338/334/123 339/333/123 335/335/123 334/336/123
f 336/345/124 340/346/124 338/334/124 334/347/124
f 341/330/125 337/331/125 335/332/125 339/333/125
f 342/340/107 343/341/107 345/338/107 344/339/107
f 344/339/126 345/338/126 349/330/126 348/346/126
f 348/346/104 349/330/104 347/333/104 346/334/104
f 346/334/127 347/333/127 343/335/127 342/336/127
f 344/345/128 348/346/128 346/334/128 342/347/128
f 349/330/129 345/331/129 343/332/129 347/333/129
f 350/340/130 351/341/130 353/338/130 352/339/130
f 352/339/131 353/338/131 357/330/131 356/346/131
f 356/346/132 357/330/132 355/333/132 354/334/132
f 354/334/133 355/333/133 351/335/133 350/336/133
f 352/345/134 356/346/134 354/334/134 350/347/134
f 357/330/135 353/331/135 351/332/135 355/333/135
f 358/340/136 359/341/136 361/338/136 360/339/136
f 360/339/108 361/338/108 365/330/108 364/346/108
f 364/346/137 365/330/137 363/333/137 362/334/137
f 362/334/106 363/333/106 359/335/106 358/336/106
f 360/345/138 364/346/138 362/334/138 358/347/138
f 365/330/139 361/331/139 359/332/139 363/333/139
o Window.002
v 1.683860 3.422867 -10.329941
v 1.683860 0.388709 -10.329941
v -1.022020 3.422867 -10.253716
v -1.022020 0.388709 -10.253716
v 1.676496 3.422867 -10.591385
v 1.676496 0.388709 -10.591385
v -1.029385 3.422867 -10.515161
v -1.029385 0.388709 -10.515161
v -0.863334 3.333756 -10.519838
v 1.487602 3.334429 -10.586064
v -0.861422 0.523881 -10.519892
v 1.489514 0.524554 -10.586118
v -0.855964 3.333220 -10.258393
v 1.494972 3.333893 -10.324619
v 1.496884 0.524018 -10.324674
v -0.854052 0.523345 -10.258448
v 1.532609 3.343166 -10.403442
v 1.543176 0.501877 -10.403740
v -0.852353 3.334923 -10.336257
v -0.841787 0.493634 -10.336555
v 1.528933 3.343166 -10.533945
v 1.539499 0.501877 -10.534243
v -0.856029 3.334923 -10.466761
v -0.845463 0.493634 -10.467058
v -0.709389 3.253558 -10.470891
v 1.362723 3.261338 -10.529263
v -0.697849 0.618335 -10.471216
v 1.374263 0.626115 -10.529588
v -0.705706 3.253065 -10.340388
v 1.366406 3.260845 -10.398760
v 1.377946 0.625623 -10.399085
v -0.694167 0.617843 -10.340714
v 1.863964 0.537815 -10.242818
v 1.863964 0.395568 -10.242818
v -1.223308 0.537815 -10.155849
v -1.223308 0.395568 -10.155849
v 1.876328 0.537815 -9.803900
v 1.876328 0.395568 -9.803900
v -1.210943 0.537815 -9.716931
v -1.210943 0.395568 -9.716931
v 0.709643 0.403609 -10.070088
v 0.709643 0.326289 -10.070088
v 0.752260 0.403609 -10.071289
v 0.752260 0.326289 -10.071289
v 0.708603 0.403609 -10.107015
v 0.708603 0.326289 -10.107015
v 0.751220 0.403609 -10.108215
v 0.751220 0.326289 -10.108215
v -0.132147 0.405005 -10.045167
v -0.132147 0.327685 -10.045167
v -0.089530 0.405005 -10.046367
v -0.089530 0.327685 -10.046367
v -0.133187 0.405005 -10.082092
v -0.133187 0.327685 -10.082092
v -0.090570 0.405005 -10.083293
v -0.090570 0.327685 -10.083293
v 0.710202 0.348502 -10.104334
v 0.703031 0.348502 -10.358903
v 0.710202 0.327257 -10.104334
v 0.703031 0.327257 -10.358903
v 0.751064 0.348502 -10.105485
v 0.743892 0.348502 -10.360054
v 0.751064 0.327257 -10.105485
v 0.743892 0.327257 -10.360054
v -0.132153 0.348502 -10.080605
v -0.139324 0.348502 -10.335174
v -0.132153 0.327257 -10.080605
v -0.139324 0.327257 -10.335174
v -0.091292 0.348502 -10.081757
v -0.098463 0.348502 -10.336325
v -0.091292 0.327257 -10.081757
v -0.098463 0.327257 -10.336325
v -0.935966 0.331010 -10.524563
v -2.406575 0.331010 -10.421057
v -0.943656 0.331010 -10.633815
v -2.414264 0.331010 -10.530309
v -0.935966 3.455585 -10.524563
v -2.406575 3.455585 -10.421057
v -0.943656 3.455585 -10.633815
v -2.414264 3.455585 -10.530309
v 3.066418 0.349628 -10.642233
v 1.592751 0.349628 -10.600919
v 3.063349 0.349628 -10.751713
v 1.589682 0.349628 -10.710399
v 3.066418 3.474202 -10.642233
v 1.592751 3.474202 -10.600919
v 3.063349 3.474202 -10.751712
v 1.589682 3.474202 -10.710398
v 0.266844 3.325641 -10.372561
v 0.277776 0.579178 -10.385146
v 0.348149 3.325975 -10.374851
v 0.359081 0.579512 -10.387437
v 0.264149 3.326068 -10.468169
v 0.275081 0.579605 -10.480755
v 0.345454 3.326402 -10.470460
v 0.356386 0.579939 -10.483045
v -0.704089 1.777904 -10.455276
v 1.369384 1.785948 -10.513722
v -0.702296 1.777904 -10.391689
v 1.371176 1.785948 -10.450135
v -0.704448 1.870578 -10.455266
v 1.369025 1.878622 -10.513712
v -0.702656 1.870578 -10.391679
v 1.370817 1.878622 -10.450126
vn -0.0000 1.0000 -0.0000
vn -0.9996 -0.0000 0.0282
vn -0.0282 -0.0000 -0.9996
vn -0.0000 -1.0000 -0.0000
vn 0.0282 -0.0000 0.9996
vn 0.9996 -0.0000 -0.0282
vn 0.0002 -1.0000 -0.0021
vn 0.9996 0.0007 -0.0282
vn -0.0002 1.0000 0.0021
vn -0.9996 -0.0007 0.0282
vn -0.0035 1.0000 0.0001
vn -0.9996 -0.0037 0.0282
vn 0.0035 -1.0000 -0.0001
vn 0.9996 0.0037 -0.0282
vn 0.0036 -1.0000 -0.0039
vn 0.9996 0.0044 -0.0282
vn -0.0036 1.0000 0.0039
vn -0.9996 -0.0044 0.0282
vn -0.0702 -0.0000 -0.9975
vn 0.0702 -0.0000 0.9975
vn 0.9975 -0.0000 -0.0702
vn -0.9975 -0.0000 0.0702
vn -0.0280 -0.0000 -0.9996
vn 0.0280 -0.0000 0.9996
vn 0.9996 -0.0000 -0.0280
vn -0.9996 -0.0000 0.0280
vn 0.0282 -0.0045 0.9996
vn 0.9996 0.0041 -0.0282
vn -0.0282 0.0045 -0.9996
vn -0.9996 -0.0041 0.0282
vn -0.0040 1.0000 0.0046
vn 0.0040 -1.0000 -0.0046
vn 0.0039 -1.0000 -0.0001
vn -0.0039 1.0000 0.0001
vn -0.9996 -0.0039 0.0282
vn 0.9996 0.0039 -0.0282
vt 0.625000 0.500000
vt 0.875000 0.500000
vt 0.875000 0.750000
vt 0.625000 0.750000
vt 0.375000 0.750000
vt 0.625000 1.000000
vt 0.375000 1.000000
vt 0.602902 0.210742
vt 0.625000 0.250000
vt 0.375000 0.250000
vt 0.375000 0.000000
vt 0.625000 0.000000
vt 0.602856 0.039438
vt 0.411373 0.039578
vt 0.411418 0.210882
vt 0.125000 0.500000
vt 0.375000 0.500000
vt 0.125000 0.750000
vt 0.602820 0.710561
vt 0.602865 0.539257
vt 0.411382 0.539118
vt 0.411336 0.710422
vt 0.856137 0.500000
vt 0.719964 0.500000
vt 0.719982 0.750000
vt 0.856155 0.750000
vt 0.625000 0.981155
vt 0.625000 0.844982
vt 0.375000 0.839478
vt 0.375000 0.975651
vt 0.149367 0.500000
vt 0.149349 0.750000
vt 0.285522 0.750000
vt 0.285539 0.500000
vt 0.625000 0.405036
vt 0.625000 0.268863
vt 0.375000 0.274367
vt 0.375000 0.410539
s 0
usemtl Material.028
f 366/368/140 370/369/140 372/370/140 368/371/140
f 369/372/141 368/371/141 372/373/141 373/374/141
f 375/375/142 370/376/142 371/377/142 373/378/142 372/379/142 374/380/142 376/381/142 377/382/142
f 372/379/142 370/376/142 375/375/142 374/380/142
f 371/383/143 367/384/143 369/372/143 373/385/143
f 378/386/144 368/371/144 369/372/144 367/384/144 366/368/144 379/387/144 380/388/144 381/389/144
f 379/387/144 366/368/144 368/371/144 378/386/144
f 371/377/145 370/376/145 366/368/145 367/384/145
f 375/390/146 379/391/146 378/392/146 374/393/146
f 374/394/147 378/395/147 381/396/147 376/397/147
f 377/398/148 376/399/148 381/400/148 380/401/148
f 379/402/149 375/403/149 377/404/149 380/405/149
usemtl Material.029
f 382/368/150 386/369/150 388/370/150 384/371/150
f 385/372/151 384/371/151 388/373/151 389/374/151
f 391/375/142 386/376/142 387/377/142 389/378/142 388/379/142 390/380/142 392/381/142 393/382/142
f 388/379/142 386/376/142 391/375/142 390/380/142
f 387/383/152 383/384/152 385/372/152 389/385/152
f 394/386/144 384/371/144 385/372/144 383/384/144 382/368/144 395/387/144 396/388/144 397/389/144
f 395/387/144 382/368/144 384/371/144 394/386/144
f 387/377/153 386/376/153 382/368/153 383/384/153
f 391/390/154 395/391/154 394/392/154 390/393/154
f 390/394/155 394/395/155 397/396/155 392/397/155
f 393/398/156 392/399/156 397/400/156 396/401/156
f 395/402/157 391/403/157 393/404/157 396/405/157
usemtl Material.030
f 398/378/142 399/379/142 401/376/142 400/377/142
f 400/377/141 401/376/141 405/368/141 404/384/141
f 404/384/144 405/368/144 403/371/144 402/372/144
f 402/372/145 403/371/145 399/373/145 398/374/145
f 400/383/140 404/384/140 402/372/140 398/385/140
f 405/368/143 401/369/143 399/370/143 403/371/143
f 406/378/144 407/379/144 409/376/144 408/377/144
f 408/377/145 409/376/145 413/368/145 412/384/145
f 412/384/142 413/368/142 411/371/142 410/372/142
f 410/372/141 411/371/141 407/373/141 406/374/141
f 408/383/140 412/384/140 410/372/140 406/385/140
f 413/368/143 409/369/143 407/370/143 411/371/143
f 414/378/144 415/379/144 417/376/144 416/377/144
f 416/377/145 417/376/145 421/368/145 420/384/145
f 420/384/142 421/368/142 419/371/142 418/372/142
f 418/372/141 419/371/141 415/373/141 414/374/141
f 416/383/140 420/384/140 418/372/140 414/385/140
f 421/368/143 417/369/143 415/370/143 419/371/143
f 422/378/141 423/379/141 425/376/141 424/377/141
f 424/377/143 425/376/143 429/368/143 428/384/143
f 428/384/145 429/368/145 427/371/145 426/372/145
f 426/372/140 427/371/140 423/373/140 422/374/140
f 424/383/144 428/384/144 426/372/144 422/385/144
f 429/368/142 425/369/142 423/370/142 427/371/142
f 430/378/141 431/379/141 433/376/141 432/377/141
f 432/377/143 433/376/143 437/368/143 436/384/143
f 436/384/145 437/368/145 435/371/145 434/372/145
f 434/372/140 435/371/140 431/373/140 430/374/140
f 432/383/144 436/384/144 434/372/144 430/385/144
f 437/368/142 433/369/142 431/370/142 435/371/142
f 438/378/143 439/379/143 441/376/143 440/377/143
f 440/377/158 441/376/158 445/368/158 444/384/158
f 444/384/140 445/368/140 443/371/140 442/372/140
f 442/372/159 443/371/159 439/373/159 438/374/159
f 440/383/160 444/384/160 442/372/160 438/385/160
f 445/368/161 441/369/161 439/370/161 443/371/161
f 446/378/143 447/379/143 449/376/143 448/377/143
f 448/377/162 449/376/162 453/368/162 452/384/162
f 452/384/140 453/368/140 451/371/140 450/372/140
f 450/372/163 451/371/163 447/373/163 446/374/163
f 448/383/164 452/384/164 450/372/164 446/385/164
f 453/368/165 449/369/165 447/370/165 451/371/165
f 454/378/166 455/379/166 457/376/166 456/377/166
f 456/377/167 457/376/167 461/368/167 460/384/167
f 460/384/168 461/368/168 459/371/168 458/372/168
f 458/372/169 459/371/169 455/373/169 454/374/169
f 456/383/170 460/384/170 458/372/170 454/385/170
f 461/368/171 457/369/171 455/370/171 459/371/171
f 462/378/172 463/379/172 465/376/172 464/377/172
f 464/377/144 465/376/144 469/368/144 468/384/144
f 468/384/173 469/368/173 467/371/173 466/372/173
f 466/372/142 467/371/142 463/373/142 462/374/142
f 464/383/174 468/384/174 466/372/174 462/385/174
f 469/368/175 465/369/175 463/370/175 467/371/175
o Window.003
v 7.824205 3.383480 -10.329941
v 7.824205 0.349323 -10.329941
v 5.118325 3.383480 -10.253716
v 5.118325 0.349323 -10.253716
v 7.816841 3.383480 -10.591385
v 7.816841 0.349323 -10.591385
v 5.110960 3.383480 -10.515161
v 5.110960 0.349323 -10.515161
v 5.277011 3.294369 -10.519838
v 7.627947 3.295043 -10.586064
v 5.278923 0.484495 -10.519892
v 7.629859 0.485168 -10.586118
v 5.284381 3.293833 -10.258393
v 7.635317 3.294507 -10.324619
v 7.637229 0.484632 -10.324674
v 5.286293 0.483959 -10.258448
v 7.672955 3.303780 -10.403442
v 7.683520 0.462490 -10.403740
v 5.287992 3.295537 -10.336257
v 5.298558 0.454247 -10.336555
v 7.669278 3.303780 -10.533945
v 7.679844 0.462490 -10.534243
v 5.284316 3.295537 -10.466761
v 5.294882 0.454247 -10.467058
v 5.430956 3.214171 -10.470891
v 7.503068 3.221952 -10.529263
v 5.442496 0.578949 -10.471216
v 7.514608 0.586729 -10.529588
v 5.434639 3.213679 -10.340388
v 7.506751 3.221459 -10.398760
v 7.518291 0.586236 -10.399085
v 5.446178 0.578456 -10.340714
v 8.004309 0.498429 -10.242818
v 8.004309 0.356182 -10.242818
v 4.917037 0.498429 -10.155849
v 4.917037 0.356182 -10.155849
v 8.016673 0.498429 -9.803900
v 8.016673 0.356182 -9.803900
v 4.929401 0.498429 -9.716931
v 4.929401 0.356182 -9.716931
v 6.849988 0.364223 -10.070088
v 6.849988 0.286902 -10.070088
v 6.892605 0.364223 -10.071289
v 6.892605 0.286902 -10.071289
v 6.848948 0.364223 -10.107015
v 6.848948 0.286902 -10.107015
v 6.891564 0.364223 -10.108215
v 6.891564 0.286902 -10.108215
v 6.008198 0.365619 -10.045167
v 6.008198 0.288298 -10.045167
v 6.050815 0.365619 -10.046367
v 6.050815 0.288298 -10.046367
v 6.007158 0.365619 -10.082092
v 6.007158 0.288298 -10.082092
v 6.049775 0.365619 -10.083293
v 6.049775 0.288298 -10.083293
v 6.850547 0.309116 -10.104334
v 6.843376 0.309116 -10.358903
v 6.850547 0.287871 -10.104334
v 6.843376 0.287871 -10.358903
v 6.891408 0.309116 -10.105485
v 6.884237 0.309116 -10.360054
v 6.891408 0.287871 -10.105485
v 6.884237 0.287871 -10.360054
v 6.008192 0.309116 -10.080605
v 6.001021 0.309116 -10.335174
v 6.008192 0.287871 -10.080605
v 6.001021 0.287871 -10.335174
v 6.049053 0.309116 -10.081757
v 6.041882 0.309116 -10.336325
v 6.049053 0.287871 -10.081757
v 6.041882 0.287871 -10.336325
v 5.204379 0.291624 -10.524563
v 3.733770 0.291624 -10.421057
v 5.196689 0.291624 -10.633815
v 3.726081 0.291624 -10.530309
v 5.204379 3.416198 -10.524563
v 3.733770 3.416198 -10.421057
v 5.196689 3.416198 -10.633815
v 3.726081 3.416198 -10.530309
v 9.206763 0.310242 -10.642233
v 7.733096 0.310242 -10.600919
v 9.203694 0.310242 -10.751713
v 7.730027 0.310242 -10.710399
v 9.206763 3.434816 -10.642233
v 7.733096 3.434816 -10.600919
v 9.203694 3.434816 -10.751712
v 7.730027 3.434816 -10.710398
v 6.407189 3.286255 -10.372561
v 6.418121 0.539791 -10.385146
v 6.488494 3.286589 -10.374851
v 6.499426 0.540125 -10.387437
v 6.404494 3.286682 -10.468169
v 6.415426 0.540219 -10.480755
v 6.485799 3.287016 -10.470460
v 6.496731 0.540553 -10.483045
v 5.436256 1.738518 -10.455276
v 7.509729 1.746562 -10.513722
v 5.438049 1.738518 -10.391689
v 7.511521 1.746562 -10.450135
v 5.435897 1.831192 -10.455266
v 7.509369 1.839236 -10.513712
v 5.437689 1.831192 -10.391679
v 7.511162 1.839236 -10.450126
vn -0.0000 1.0000 -0.0000
vn -0.9996 -0.0000 0.0282
vn -0.0282 -0.0000 -0.9996
vn -0.0000 -1.0000 -0.0000
vn 0.0282 -0.0000 0.9996
vn 0.9996 -0.0000 -0.0282
vn 0.0002 -1.0000 -0.0021
vn 0.9996 0.0007 -0.0282
vn -0.0002 1.0000 0.0021
vn -0.9996 -0.0007 0.0282
vn -0.0035 1.0000 0.0001
vn -0.9996 -0.0037 0.0282
vn 0.0035 -1.0000 -0.0001
vn 0.9996 0.0037 -0.0282
vn 0.0036 -1.0000 -0.0039
vn 0.9996 0.0044 -0.0282
vn -0.0036 1.0000 0.0039
vn -0.9996 -0.0044 0.0282
vn -0.0702 -0.0000 -0.9975
vn 0.0702 -0.0000 0.9975
vn 0.9975 -0.0000 -0.0702
vn -0.9975 -0.0000 0.0702
vn -0.0280 -0.0000 -0.9996
vn 0.0280 -0.0000 0.9996
vn 0.9996 -0.0000 -0.0280
vn -0.9996 -0.0000 0.0280
vn 0.0282 -0.0045 0.9996
vn 0.9996 0.0041 -0.0282
vn -0.0282 0.0045 -0.9996
vn -0.9996 -0.0041 0.0282
vn -0.0040 1.0000 0.0046
vn 0.0040 -1.0000 -0.0046
vn 0.0039 -1.0000 -0.0001
vn -0.0039 1.0000 0.0001
vn -0.9996 -0.0039 0.0282
vn 0.9996 0.0039 -0.0282
vt 0.625000 0.500000
vt 0.875000 0.500000
vt 0.875000 0.750000
vt 0.625000 0.750000
vt 0.375000 0.750000
vt 0.625000 1.000000
vt 0.375000 1.000000
vt 0.602902 0.210742
vt 0.625000 0.250000
vt 0.375000 0.250000
vt 0.375000 0.000000
vt 0.625000 0.000000
vt 0.602856 0.039438
vt 0.411373 0.039578
vt 0.411418 0.210882
vt 0.125000 0.500000
vt 0.375000 0.500000
vt 0.125000 0.750000
vt 0.602820 0.710561
vt 0.602865 0.539257
vt 0.411382 0.539118
vt 0.411336 0.710422
vt 0.856137 0.500000
vt 0.719964 0.500000
vt 0.719982 0.750000
vt 0.856155 0.750000
vt 0.625000 0.981155
vt 0.625000 0.844982
vt 0.375000 0.839478
vt 0.375000 0.975651
vt 0.149367 0.500000
vt 0.149349 0.750000
vt 0.285522 0.750000
vt 0.285539 0.500000
vt 0.625000 0.405036
vt 0.625000 0.268863
vt 0.375000 0.274367
vt 0.375000 0.410539
s 0
usemtl Material.034
f 470/406/176 474/407/176 476/408/176 472/409/176
f 473/410/177 472/409/177 476/411/177 477/412/177
f 479/413/178 474/414/178 475/415/178 477/416/178 476/417/178 478/418/178 480/419/178 481/420/178
f 476/417/178 474/414/178 479/413/178 478/418/178
f 475/421/179 471/422/179 473/410/179 477/423/179
f 482/424/180 472/409/180 473/410/180 471/422/180 470/406/180 483/425/180 484/426/180 485/427/180
f 483/425/180 470/406/180 472/409/180 482/424/180
f 475/415/181 474/414/181 470/406/181 471/422/181
f 479/428/182 483/429/182 482/430/182 478/431/182
f 478/432/183 482/433/183 485/434/183 480/435/183
f 481/436/184 480/437/184 485/438/184 484/439/184
f 483/440/185 479/441/185 481/442/185 484/443/185
usemtl Material.035
f 486/406/186 490/407/186 492/408/186 488/409/186
f 489/410/187 488/409/187 492/411/187 493/412/187
f 495/413/178 490/414/178 491/415/178 493/416/178 492/417/178 494/418/178 496/419/178 497/420/178
f 492/417/178 490/414/178 495/413/178 494/418/178
f 491/421/188 487/422/188 489/410/188 493/423/188
f 498/424/180 488/409/180 489/410/180 487/422/180 486/406/180 499/425/180 500/426/180 501/427/180
f 499/425/180 486/406/180 488/409/180 498/424/180
f 491/415/189 490/414/189 486/406/189 487/422/189
f 495/428/190 499/429/190 498/430/190 494/431/190
f 494/432/191 498/433/191 501/434/191 496/435/191
f 497/436/192 496/437/192 501/438/192 500/439/192
f 499/440/193 495/441/193 497/442/193 500/443/193
usemtl Material.036
f 502/416/178 503/417/178 505/414/178 504/415/178
f 504/415/177 505/414/177 509/406/177 508/422/177
f 508/422/180 509/406/180 507/409/180 506/410/180
f 506/410/181 507/409/181 503/411/181 502/412/181
f 504/421/176 508/422/176 506/410/176 502/423/176
f 509/406/179 505/407/179 503/408/179 507/409/179
f 510/416/180 511/417/180 513/414/180 512/415/180
f 512/415/181 513/414/181 517/406/181 516/422/181
f 516/422/178 517/406/178 515/409/178 514/410/178
f 514/410/177 515/409/177 511/411/177 510/412/177
f 512/421/176 516/422/176 514/410/176 510/423/176
f 517/406/179 513/407/179 511/408/179 515/409/179
f 518/416/180 519/417/180 521/414/180 520/415/180
f 520/415/181 521/414/181 525/406/181 524/422/181
f 524/422/178 525/406/178 523/409/178 522/410/178
f 522/410/177 523/409/177 519/411/177 518/412/177
f 520/421/176 524/422/176 522/410/176 518/423/176
f 525/406/179 521/407/179 519/408/179 523/409/179
f 526/416/177 527/417/177 529/414/177 528/415/177
f 528/415/179 529/414/179 533/406/179 532/422/179
f 532/422/181 533/406/181 531/409/181 530/410/181
f 530/410/176 531/409/176 527/411/176 526/412/176
f 528/421/180 532/422/180 530/410/180 526/423/180
f 533/406/178 529/407/178 527/408/178 531/409/178
f 534/416/177 535/417/177 537/414/177 536/415/177
f 536/415/179 537/414/179 541/406/179 540/422/179
f 540/422/181 541/406/181 539/409/181 538/410/181
f 538/410/176 539/409/176 535/411/176 534/412/176
f 536/421/180 540/422/180 538/410/180 534/423/180
f 541/406/178 537/407/178 535/408/178 539/409/178
f 542/416/179 543/417/179 545/414/179 544/415/179
f 544/415/194 545/414/194 549/406/194 548/422/194
f 548/422/176 549/406/176 547/409/176 546/410/176
f 546/410/195 547/409/195 543/411/195 542/412/195
f 544/421/196 548/422/196 546/410/196 542/423/196
f 549/406/197 545/407/197 543/408/197 547/409/197
f 550/416/179 551/417/179 553/414/179 552/415/179
f 552/415/198 553/414/198 557/406/198 556/422/198
f 556/422/176 557/406/176 555/409/176 554/410/176
f 554/410/199 555/409/199 551/411/199 550/412/199
f 552/421/200 556/422/200 554/410/200 550/423/200
f 557/406/201 553/407/201 551/408/201 555/409/201
f 558/416/202 559/417/202 561/414/202 560/415/202
f 560/415/203 561/414/203 565/406/203 564/422/203
f 564/422/204 565/406/204 563/409/204 562/410/204
f 562/410/205 563/409/205 559/411/205 558/412/205
f 560/421/206 564/422/206 562/410/206 558/423/206
f 565/406/207 561/407/207 559/408/207 563/409/207
f 566/416/208 567/417/208 569/414/208 568/415/208
f 568/415/180 569/414/180 573/406/180 572/422/180
f 572/422/209 573/406/209 571/409/209 570/410/209
f 570/410/178 571/409/178 567/411/178 566/412/178
f 568/421/210 572/422/210 570/410/210 566/423/210
f 573/406/211 569/407/211 567/408/211 571/409/211
