# Blender 4.4.0
# www.blender.org
mtllib maincottage.mtl
o Cube
v 11.988374 7.372925 -2.273651
v 12.000769 7.278767 -2.405933
v -4.290657 7.396983 -2.243873
v -4.325062 7.262403 -2.453142
v 12.022643 7.350598 -1.904933
v 11.994361 7.262041 -1.783463
v -4.317131 7.321476 -1.933480
v -4.326239 7.241242 -1.840032
v 11.987613 7.346814 -2.305917
v 11.996160 7.291030 -1.833300
v 11.997930 7.445027 -2.096748
v 11.996985 7.380227 -2.095743
v 11.999902 7.408355 -2.096168
v 11.994358 7.405760 -1.999045
v 11.993371 7.419013 -2.195316
v 11.996646 7.350873 -2.187871
v 11.997490 7.324762 -1.968189
v 11.993367 7.394152 -2.191252
v 12.001437 7.371404 -1.997967
v -4.289333 7.395748 -2.025834
v -4.309374 7.349412 -2.135152
v -4.311378 7.329075 -2.343426
v -4.273860 7.438480 -2.132837
v -4.316449 7.318858 -2.030748
v -4.307111 7.341973 -2.200950
vn 0.0004 0.8309 -0.5564
vn -0.9578 0.2874 0.0019
vn -0.0026 0.7867 0.6174
vn 0.9874 0.1434 -0.0671
vn -0.0010 0.9897 0.1429
vn 0.0013 -0.9995 -0.0307
vn 0.9976 0.0251 -0.0640
vn 0.9759 -0.1700 -0.1367
vn 0.9944 -0.1007 -0.0332
vt 0.375000 0.000000
vt 0.500000 0.000000
vt 0.625000 0.000000
vt 0.625000 0.250000
vt 0.500000 0.250000
vt 0.375000 0.250000
vt 0.625000 0.312500
vt 0.625000 0.375000
vt 0.625000 0.437500
vt 0.625000 0.500000
vt 0.375000 0.500000
vt 0.375000 0.375000
vt 0.375000 0.312500
vt 0.625000 0.750000
vt 0.500000 0.750000
vt 0.375000 0.750000
vt 0.500000 0.875000
vt 0.625000 0.875000
vt 0.625000 0.937500
vt 0.625000 1.000000
vt 0.500000 1.000000
vt 0.500000 0.937500
vt 0.125000 0.500000
vt 0.187500 0.500000
vt 0.250000 0.500000
vt 0.312500 0.750000
vt 0.250000 0.750000
vt 0.187500 0.750000
vt 0.125000 0.750000
vt 0.687500 0.500000
vt 0.750000 0.500000
vt 0.812500 0.500000
vt 0.875000 0.500000
vt 0.875000 0.750000
vt 0.812500 0.750000
vt 0.750000 0.750000
vt 0.687500 0.750000
vt 0.375000 0.875000
vt 0.375000 1.000000
vt 0.375000 0.937500
vt 0.500000 0.812500
vt 0.375000 0.812500
vt 0.625000 0.812500
s 0
usemtl Material.024
f 1/1/1 9/2/1 2/3/1 4/4/1 22/5/1 3/6/1
f 3/6/2 22/5/2 4/4/2 25/7/2 21/8/2 24/9/2 8/10/2 7/11/2 20/12/2 23/13/2
f 7/11/3 8/10/3 6/14/3 10/15/3 5/16/3
f 13/17/4 12/18/4 16/19/4 2/20/4 9/21/4 18/22/4
f 3/23/5 23/24/5 20/25/5 7/11/5 5/16/5 14/26/5 11/27/5 15/28/5 1/29/5
f 8/10/6 24/30/6 21/31/6 25/32/6 4/33/6 2/34/6 16/35/6 12/36/6 17/37/6 6/14/6
f 11/38/7 13/17/7 18/22/7 9/21/7 1/39/7 15/40/7
f 5/16/8 10/15/8 19/41/8 13/17/8 11/38/8 14/42/8
f 10/15/9 6/14/9 17/43/9 12/18/9 13/17/9 19/41/9
o Cube.001
v 10.714787 -1.805930 -10.417725
v 10.714787 4.230713 -10.417725
v 10.714789 -1.805930 5.598023
v 10.714789 4.355925 5.598023
v 10.525834 -1.805930 -10.417725
v 10.525834 4.230713 -10.417725
v 10.525837 -1.805930 5.598023
v 10.525837 4.355925 5.598023
v 10.714788 7.142867 -2.409851
v 10.620313 4.355925 5.598023
v 10.525835 7.142867 -2.409851
v 10.620311 4.230713 -10.417725
v 10.620312 7.142867 -2.409851
vn 1.0000 -0.0000 -0.0000
vn -0.0000 -0.0000 1.0000
vn -1.0000 -0.0000 -0.0000
vn -0.0000 -0.0000 -1.0000
vn -0.0000 -1.0000 -0.0000
vn -0.0000 0.9398 -0.3418
vn -0.0000 0.9444 0.3287
vt -0.730542 1.302222
vt -0.730138 0.785134
vt 0.335167 0.537688
vt 1.400092 0.778416
vt 1.399680 1.306228
vt 1.090615 -0.252561
vt 0.562803 -0.253554
vt 0.562813 -0.266120
vt 0.562823 -0.278686
vt 1.090635 -0.277693
vt -0.729944 0.535685
vt -0.729532 0.007872
vt 0.335765 -0.228848
vt 1.400681 0.022604
vt 1.400278 0.539692
vt -0.212219 -0.280144
vt -0.729306 -0.281116
vt -0.729297 -0.293682
vt -0.729287 -0.306248
vt -0.212200 -0.305276
vt 0.642552 -0.253404
vt 0.642532 -0.228271
vt -0.729346 -0.230852
vt -0.729326 -0.255984
vt -0.163480 -0.267486
vt -0.163490 -0.254920
vt -0.729316 -0.268550
vt -0.163470 -0.280052
vt -0.729306 -0.281116
s 0
usemtl Material.014
f 26/44/10 27/45/10 34/46/10 29/47/10 28/48/10
f 28/49/11 29/50/11 35/51/11 33/52/11 32/53/11
f 32/54/12 33/55/12 36/56/12 31/57/12 30/58/12
f 30/59/13 31/60/13 37/61/13 27/62/13 26/63/13
f 28/64/14 32/65/14 30/66/14 26/67/14
f 38/68/15 34/69/15 27/67/15 37/70/15
f 36/71/15 38/68/15 37/70/15 31/72/15
f 33/52/16 35/51/16 38/68/16 36/71/16
f 35/51/16 29/50/16 34/69/16 38/68/16
o Cube.003
v -3.044480 -1.805930 -10.347528
v -3.044480 4.230713 -10.347528
v -3.044478 -1.805930 5.668220
v -3.044478 4.355925 5.668220
v -3.233433 -1.805930 -10.347528
v -3.233433 4.230713 -10.347528
v -3.233430 -1.805930 5.668220
v -3.233430 4.355925 5.668220
v -3.044479 7.142867 -2.339654
v -3.138954 4.355925 5.668220
v -3.233431 7.142867 -2.339654
v -3.044479 -1.668469 -2.706535
v -3.044479 -1.668469 -0.635260
v -3.044479 3.200464 -2.706535
v -3.044479 3.200464 -0.635259
v -3.233431 -1.668554 -2.706538
v -3.233431 -1.668554 -0.635262
v -3.233431 3.200378 -2.706538
v -3.233431 3.200378 -0.635262
v -3.044479 -1.805930 -2.339654
v -3.233431 -1.805930 -2.339654
vn 1.0000 -0.0000 -0.0000
vn -0.0000 -0.0000 1.0000
vn -1.0000 -0.0000 -0.0000
vn -0.0000 -0.0000 -1.0000
vn -0.0000 -1.0000 -0.0000
vn -0.0000 0.9398 -0.3418
vn -0.0000 0.9444 0.3287
vn -0.0004 1.0000 -0.0000
vn 0.0005 -1.0000 -0.0000
vt 1.961427 1.470475
vt 0.679996 1.467585
vt 0.621300 1.453287
vt 0.952749 1.454034
vt 1.962020 0.835465
vt 0.953218 0.952267
vt 1.006850 -0.421472
vt 1.006864 -0.436591
vt 1.641874 -0.435158
vt 1.641845 -0.404922
vt 1.006836 -0.406354
vt 0.408133 0.530595
vt -0.600573 0.542478
vt -0.599979 -0.092532
vt 0.408602 0.028827
vt 0.681721 -0.376850
vt 0.740050 0.029575
vt -0.599653 -0.440284
vt -0.599625 -0.470521
vt 0.022481 -0.469118
vt 0.022452 -0.438881
vt 1.050820 -0.406255
vt 1.050792 -0.376018
vt 0.225541 -0.377879
vt -0.599710 -0.379740
vt -0.599682 -0.409977
vt 0.225569 -0.408116
vt 0.138437 -0.438549
vt 0.138429 -0.408312
vt -0.599662 -0.410048
vt 1.006845 -0.436661
vt 1.006840 -0.421543
vt 1.006836 -0.406425
vt 0.022489 -0.469118
vt 0.524257 -0.467986
vt 0.524220 -0.437750
vt 1.447613 -0.435667
vt 1.239479 -0.436136
vt 1.239489 -0.466373
vt 1.447623 -0.465904
vt 0.524237 -0.437750
vt 0.524257 -0.467986
vt 1.026025 -0.466855
vt 1.026005 -0.436618
vt 1.239489 -0.466373
vt 1.239460 -0.436137
vt 1.026033 -0.466855
vt 0.621770 0.951519
vt 0.680858 0.545367
vt 1.962872 -0.073849
vt 1.962290 0.548257
vt 0.680859 0.545367
vt 0.739581 0.531343
vt -0.600853 0.842589
vt -0.601435 1.464696
s 0
usemtl Material.013
f 41/73/17 58/74/17 50/75/17 51/76/17
f 42/77/17 41/73/17 51/76/17 53/78/17
f 48/79/18 46/80/18 45/81/18 41/82/18 42/83/18
f 55/84/19 45/85/19 46/86/19 57/87/19
f 57/87/19 46/86/19 49/88/19 56/89/19
f 44/90/20 40/91/20 39/92/20 43/93/20
f 41/94/21 45/95/21 59/96/21 43/97/21 39/98/21 58/99/21
f 49/100/22 47/101/22 40/102/22 44/90/22
f 46/103/23 48/104/23 49/100/23
f 48/104/23 42/105/23 47/101/23 49/100/23
f 52/93/18 56/106/18 54/107/18 50/108/18
f 51/109/24 50/110/24 54/111/24 55/112/24
f 57/113/20 53/114/20 51/115/20 55/116/20
f 53/117/25 57/118/25 56/116/25 52/119/25
f 52/120/17 47/121/17 42/77/17 53/78/17
f 56/89/19 49/88/19 44/122/19
f 44/122/19 43/123/19 59/124/19 54/125/19 56/89/19
f 52/120/17 40/126/17 47/121/17
f 54/125/19 59/124/19 45/85/19 55/84/19
f 50/75/17 58/74/17 39/127/17 40/126/17 52/120/17
o Right.001
v -3.258822 -1.814942 -10.389681
v -3.258822 4.384768 -10.389681
v 10.745636 -1.814942 -10.457966
v 10.745636 4.513362 -10.457966
v -3.257901 -1.814942 -10.200731
v -3.257901 4.384768 -10.200731
v 10.746557 -1.814942 -10.269016
v 10.746557 4.513362 -10.269016
v 3.743407 4.472610 -10.423823
v 10.746098 4.513362 -10.363491
v 3.744328 4.472610 -10.234874
v 5.141787 0.368065 -10.422259
v 7.687541 0.368065 -10.431090
v 5.141787 3.359766 -10.422259
v 7.687542 3.359766 -10.431090
v 5.142705 0.367978 -10.233310
v 7.688460 0.367978 -10.242141
v 5.142705 3.359678 -10.233310
v 7.688460 3.359678 -10.242141
v 3.743407 -1.814942 -10.423823
v 3.744328 -1.814942 -10.234874
v -0.101758 3.405381 -10.213564
v 2.302000 3.406394 -10.222293
v 2.303381 0.422017 -10.223826
v -0.100376 0.421003 -10.213569
v 2.302905 1.395406 -10.222297
v 2.303384 0.422017 -10.416802
v -0.100373 0.421003 -10.405827
v -0.101755 3.405381 -10.404715
v 2.302003 3.406394 -10.413084
v -3.189822 -1.814942 -10.390018
v -3.046088 -1.814942 -10.390718
v -0.088647 3.405386 -10.404760
v -3.095894 4.364889 -10.390313
v 2.287256 3.708117 -10.222236
v 2.302772 3.706169 -10.411249
vn -0.0045 0.0048 -1.0000
vn -0.0088 -0.0000 -1.0000
vn 1.0000 -0.0000 -0.0049
vn 0.0088 -0.0000 1.0000
vn 0.0045 0.0093 0.9999
vn -1.0000 -0.0000 0.0049
vn -0.0000 -1.0000 -0.0000
vn -0.0125 0.9999 0.0001
vn -0.0058 1.0000 -0.0000
vn -0.0000 1.0000 0.0005
vn -0.0000 -1.0000 -0.0005
vn -0.0045 -0.0093 -0.9999
vn 0.0048 0.0074 1.0000
vn 0.0033 -0.0024 1.0000
vn 0.0039 -0.0000 1.0000
vn -0.0048 -0.0074 -1.0000
vn 0.0045 -0.0048 1.0000
vn -0.0048 -0.0002 -1.0000
vn -0.0024 0.0010 -1.0000
vn -0.0004 1.0000 -0.0000
vn 0.0004 -1.0000 -0.0000
vn 1.0000 0.0005 -0.0000
vn -1.0000 -0.0005 -0.0001
vn 0.0047 -0.0014 1.0000
vn -0.0050 0.0001 -1.0000
vn 0.0041 -0.0000 1.0000
vn -0.0033 0.0050 -1.0000
vn 0.0037 -0.0008 1.0000
vn -0.0031 0.0061 -1.0000
vt 1.478822 1.156950
vt 0.288421 1.146689
vt 0.526871 0.945247
vt 0.959655 0.948977
vt 1.480931 0.567050
vt 0.960651 0.670102
vt 0.635642 -0.072279
vt 0.635692 -0.086324
vt 1.225592 -0.081239
vt 1.225492 -0.053150
vt 0.635592 -0.058235
vt -0.379248 0.347527
vt -0.899871 0.546528
vt -0.897762 -0.043372
vt -0.378251 0.068653
vt 0.292625 -0.029312
vt 0.054533 0.072383
vt -0.897562 -0.099540
vt -0.897461 -0.127629
vt -0.319548 -0.122647
vt -0.319649 -0.094559
vt -0.131035 -0.064844
vt -0.897662 -0.071452
vt -0.890007 -0.099475
vt -0.874270 -0.099340
vt -0.130935 -0.092932
vt 0.635592 -0.058235
vt -0.130880 -0.036762
vt -0.130235 -0.064837
vt 0.636666 -0.058226
vt 0.636021 -0.030151
vt -0.897440 -0.057409
vt -0.897117 -0.071447
vt 0.516204 -0.087354
vt 0.516312 -0.115442
vt 0.795187 -0.113038
vt 0.795079 -0.084950
vt 0.237491 -0.117836
vt 0.516304 -0.115432
vt 0.515606 -0.087359
vt 0.236792 -0.089762
vt 0.795095 -0.084950
vt 1.074062 -0.110634
vt 1.073969 -0.082546
vt 1.352786 -0.108232
vt 1.352739 -0.080143
vt 1.074023 -0.082545
vt 1.074070 -0.110634
vt 0.527868 0.666372
vt 0.290516 0.560588
vt 1.482998 -0.010862
vt 0.540082 0.044087
vt 0.536245 0.350381
vt 0.290530 0.556789
vt 0.053536 0.351257
vt 0.536651 0.259646
vt 0.537475 0.072191
vt 0.045344 0.629921
vt -0.872223 0.560607
vt -0.899914 0.558515
vt -0.865815 1.136740
vt -0.364288 0.932630
vt 0.044358 0.936058
vt 0.045115 0.657864
vt -0.633636 -0.154678
vt -0.634201 -0.126111
vt -0.897459 -0.128274
vt -0.896891 -0.156947
vt -0.370418 -0.152147
vt -0.370568 -0.123786
vt -0.633738 -0.126001
vt -0.632153 -0.154403
vt -0.041297 -0.120740
vt 0.236895 -0.118342
vt 0.236793 -0.089762
vt -0.041399 -0.092325
vt -0.041297 -0.120894
vt -0.041456 -0.092208
vt -0.132192 -0.092943
vt -0.319647 -0.094931
vt -0.319490 -0.123292
vt 0.944889 0.353998
vt 1.480931 0.567050
vt -0.890250 1.136529
vt -0.901980 1.136428
vt -0.363529 0.654436
vt -0.633588 -0.154415
vt 0.946119 0.075808
vt -0.361301 0.654455
s 0
usemtl Material.002
f 62/128/26 79/129/26 71/130/26 72/131/26
f 63/132/27 62/128/27 72/131/27 74/133/27
f 69/134/28 67/135/28 66/136/28 62/137/28 63/138/28
f 76/139/29 66/140/29 67/141/29 78/142/29
f 78/142/30 67/141/30 70/143/30 77/144/30
f 65/145/31 61/146/31 60/147/31 64/148/31
f 80/149/32 64/150/32 90/151/32 91/152/32 79/153/32 62/135/32 66/154/32
f 70/155/33 68/156/33 61/157/33 65/158/33
f 67/141/34 69/159/34 70/155/34
f 69/159/34 63/160/34 68/156/34 70/155/34
f 73/161/28 77/162/28 75/163/28 71/164/28
f 72/165/35 71/166/35 75/167/35 76/168/35
f 78/169/31 74/163/31 72/170/31 76/171/31
f 74/172/36 78/173/36 77/174/36 73/175/36
f 73/176/37 68/177/37 63/132/37 74/133/37
f 77/144/38 70/143/38 65/178/38 94/179/38
f 83/180/39 80/181/39 75/182/39 85/183/39
f 85/183/40 75/182/40 77/144/40 94/179/40 82/184/40
f 73/176/41 95/185/41 93/186/41 61/187/41 68/177/41
f 75/182/42 80/181/42 66/140/42 76/139/42
f 79/129/43 91/188/43 87/189/43 86/190/43
f 89/191/44 73/176/44 71/130/44 79/129/44 86/190/44
f 87/192/45 84/193/45 83/194/45 86/195/45
f 89/196/46 82/197/46 81/198/46 92/199/46
f 81/200/47 84/201/47 87/202/47 88/203/47
f 86/204/48 83/205/48 85/206/48 82/207/48 89/208/48
f 84/209/49 64/210/49 80/181/49 83/180/49
f 90/151/32 64/150/32 60/145/32
f 87/189/50 91/188/50 90/211/50 60/212/50 61/187/50 93/186/50 88/213/50
f 92/199/46 81/198/46 88/214/46
f 81/215/51 65/178/51 64/210/51 84/209/51
f 88/213/52 93/186/52 95/185/52 89/191/52 92/216/52
f 82/184/53 94/179/53 65/178/53 81/215/53
f 89/191/54 95/185/54 73/176/54
o Right.002
v -3.258822 -1.814942 5.501494
v -3.258822 4.384768 5.501494
v 10.745636 -1.814942 5.433210
v 10.745636 4.513362 5.433210
v -3.257901 -1.814942 5.690444
v -3.257901 4.384768 5.690444
v 10.746557 -1.814942 5.622159
v 10.746557 4.513362 5.622159
v 3.743407 4.472610 5.467352
v 10.746098 4.513362 5.527685
v 3.744328 4.472610 5.656301
v 5.141787 0.368065 5.468916
v 7.687541 0.368065 5.460085
v 5.141787 3.359766 5.468916
v 7.687542 3.359766 5.460085
v 5.142705 0.367978 5.657866
v 7.688460 0.367978 5.649035
v 5.142705 3.359678 5.657866
v 7.688460 3.359678 5.649035
v 3.743407 -1.814942 5.467352
v 3.744328 -1.814942 5.656301
v -0.101758 3.405381 5.677612
v 2.302000 3.406394 5.668882
v 2.303381 0.422017 5.667349
v -0.100376 0.421003 5.677606
v 2.302905 1.395406 5.668879
v 2.303384 0.422017 5.474373
v -0.100373 0.421003 5.485349
v -0.101755 3.405381 5.486461
v 2.302003 3.406394 5.478091
v -3.189822 -1.814942 5.501158
v -3.046088 -1.814942 5.500457
v -0.088647 3.405386 5.486415
v -3.095894 4.364889 5.500862
v 2.287256 3.708117 5.668939
v 2.302772 3.706169 5.479926
vn -0.0045 0.0048 -1.0000
vn -0.0088 -0.0000 -1.0000
vn 1.0000 -0.0000 -0.0049
vn 0.0088 -0.0000 1.0000
vn 0.0045 0.0093 0.9999
vn -1.0000 -0.0000 0.0049
vn -0.0000 -1.0000 -0.0000
vn -0.0125 0.9999 0.0001
vn -0.0058 1.0000 -0.0000
vn -0.0000 1.0000 0.0005
vn -0.0000 -1.0000 -0.0005
vn -0.0045 -0.0093 -0.9999
vn 0.0048 0.0074 1.0000
vn 0.0033 -0.0024 1.0000
vn 0.0039 -0.0000 1.0000
vn -0.0048 -0.0074 -1.0000
vn 0.0045 -0.0048 1.0000
vn -0.0048 -0.0002 -1.0000
vn -0.0024 0.0010 -1.0000
vn -0.0004 1.0000 -0.0000
vn 0.0004 -1.0000 -0.0000
vn 1.0000 0.0005 -0.0000
vn -1.0000 -0.0005 -0.0001
vn 0.0047 -0.0014 1.0000
vn -0.0050 0.0001 -1.0000
vn 0.0041 -0.0000 1.0000
vn -0.0033 0.0050 -1.0000
vn 0.0037 -0.0008 1.0000
vn -0.0031 0.0061 -1.0000
vt 2.023683 1.445932
vt 0.289821 1.441926
vt 0.636356 1.146333
vt 1.266720 1.147789
vt 2.024506 0.586721
vt 1.267110 0.741598
vt 0.790903 -0.336696
vt 0.790923 -0.357152
vt 1.650133 -0.355167
vt 1.650094 -0.314255
vt 0.790884 -0.316240
vt -0.685687 0.284079
vt -1.443217 0.578709
vt -1.442394 -0.280501
vt -0.685297 -0.122111
vt 0.291462 -0.270962
vt -0.054932 -0.120655
vt -1.442316 -0.362312
vt -1.442276 -0.403224
vt -0.600526 -0.401279
vt -0.600565 -0.360368
vt -0.325736 -0.318820
vt -1.442355 -0.321401
vt -1.431313 -0.362287
vt -1.408392 -0.362234
vt -0.325696 -0.359732
vt 0.790884 -0.316240
vt -0.325402 -0.277921
vt -0.324570 -0.318818
vt 0.792448 -0.316236
vt 0.791616 -0.275339
vt -1.441978 -0.300950
vt -1.441562 -0.321398
vt 0.616884 -0.357554
vt 0.616935 -0.398466
vt 1.023126 -0.397528
vt 1.023075 -0.356616
vt 0.210821 -0.399390
vt 0.616923 -0.398452
vt 0.616013 -0.357556
vt 0.209911 -0.358495
vt 1.023098 -0.356616
vt 1.429317 -0.396589
vt 1.429289 -0.355677
vt 1.835289 -0.395651
vt 1.835327 -0.354739
vt 1.429367 -0.355677
vt 1.429329 -0.396589
vt 0.636745 0.740142
vt 0.290639 0.588248
vt 2.025313 -0.255029
vt 0.652163 -0.166330
vt 0.647741 0.279822
vt 0.290644 0.582715
vt -0.055322 0.285535
vt 0.647988 0.147663
vt 0.648473 -0.125373
vt -0.066191 0.691486
vt -1.402894 0.598961
vt -1.443234 0.596168
vt -1.391365 1.438041
vt -0.661668 1.136146
vt -0.066461 1.137384
vt -0.066419 0.732186
vt -1.058118 -0.445045
vt -1.058832 -0.403433
vt -1.442276 -0.404164
vt -1.441559 -0.445931
vt -0.674731 -0.443778
vt -0.674841 -0.402469
vt -1.058157 -0.403277
vt -1.055957 -0.444659
vt -0.195246 -0.401059
vt 0.209951 -0.400122
vt 0.209911 -0.358495
vt -0.195285 -0.359670
vt -0.195245 -0.401283
vt -0.195368 -0.359500
vt -0.327528 -0.359737
vt -0.600565 -0.360909
vt -0.600443 -0.402219
vt 1.242947 0.281335
vt -1.426955 1.437958
vt -1.444041 1.437919
vt -0.661623 0.730949
vt -1.058047 -0.444664
vt 1.243678 -0.123860
vt -0.658377 0.730955
s 0
usemtl Material.007
f 98/217/55 115/218/55 107/219/55 108/220/55
f 99/221/56 98/217/56 108/220/56 110/222/56
f 105/223/57 103/224/57 102/225/57 98/226/57 99/227/57
f 112/228/58 102/229/58 103/230/58 114/231/58
f 114/231/59 103/230/59 106/232/59 113/233/59
f 101/234/60 97/235/60 96/236/60 100/237/60
f 116/238/61 100/239/61 126/240/61 127/241/61 115/242/61 98/224/61 102/243/61
f 106/244/62 104/245/62 97/246/62 101/247/62
f 103/230/63 105/248/63 106/244/63
f 105/248/63 99/249/63 104/245/63 106/244/63
f 109/250/57 113/251/57 111/252/57 107/253/57
f 108/254/64 107/255/64 111/256/64 112/257/64
f 114/258/60 110/252/60 108/259/60 112/260/60
f 110/261/65 114/262/65 113/263/65 109/264/65
f 109/265/66 104/266/66 99/221/66 110/222/66
f 113/233/67 106/232/67 101/267/67 130/268/67
f 119/269/68 116/270/68 111/271/68 121/272/68
f 121/272/69 111/271/69 113/233/69 130/268/69 118/273/69
f 109/265/70 131/274/70 129/275/70 97/276/70 104/266/70
f 111/271/71 116/270/71 102/229/71 112/228/71
f 115/218/72 127/277/72 123/278/72 122/279/72
f 125/280/73 109/265/73 107/219/73 115/218/73 122/279/73
f 123/281/74 120/282/74 119/283/74 122/284/74
f 125/285/75 118/286/75 117/287/75 128/288/75
f 117/289/76 120/290/76 123/291/76 124/292/76
f 122/293/77 119/294/77 121/295/77 118/296/77 125/297/77
f 120/298/78 100/221/78 116/270/78 119/269/78
f 126/240/61 100/239/61 96/234/61
f 123/278/79 127/277/79 126/299/79 96/300/79 97/276/79 129/275/79 124/301/79
f 128/288/75 117/287/75 124/302/75
f 117/303/80 101/267/80 100/221/80 120/298/80
f 124/301/81 129/275/81 131/274/81 125/280/81 128/304/81
f 118/273/82 130/268/82 101/267/82 117/303/82
f 125/280/83 131/274/83 109/265/83
