# Blender 4.4.0
# www.blender.org
mtllib Untitled.mtl
o Cube.001
v 0.544942 -0.684459 -0.067995
v 0.451655 -1.176486 0.160210
v 0.540181 -0.678468 0.058611
v 0.467729 -1.149189 0.283011
v 0.692633 -0.694308 -0.081762
v 0.592636 -1.211351 0.130277
v 0.688108 -0.688102 0.044665
v 0.609933 -1.164607 0.246593
v 0.495457 -1.560879 0.312168
v 0.506304 -1.515989 0.433190
v 0.640835 -1.571491 0.282975
v 0.649668 -1.518986 0.393943
v 0.496384 -1.657629 0.352378
v 0.511215 -1.611096 0.471139
v 0.641874 -1.668435 0.323439
v 0.655494 -1.617544 0.436447
v 0.488204 -1.702354 0.089765
v 0.452817 -1.639707 0.122043
v 0.598435 -1.650985 0.093726
v 0.544696 -1.706729 0.078780
v 0.453163 -1.736559 0.162400
v 0.488250 -1.715153 0.095099
v 0.544742 -1.719528 0.084114
v 0.598782 -1.747837 0.134084
v -0.089015 0.823972 -0.596694
v -0.126997 0.668118 -0.780541
v -0.134754 0.470549 -0.912540
v -0.020510 -0.357142 -0.903946
v 0.000515 -0.600667 -0.762284
v 0.063085 0.994586 -0.138989
v 0.056337 0.935784 -0.387954
v 0.048370 0.824766 -0.614384
v 0.039724 0.669097 -0.802846
v 0.051487 0.467003 -0.934476
v 0.070316 0.225141 -1.003204
v 0.097917 -0.045311 -0.994423
v 0.145967 -0.362254 -0.894260
v 0.128972 -0.616987 -0.745696
v 0.080681 -0.809651 -0.552198
v 0.030814 -0.935605 -0.328765
v 0.113527 0.993892 -0.135908
v 0.153784 0.934444 -0.382003
v 0.186180 0.822870 -0.605968
v 0.209630 0.665189 -0.793024
v 0.236139 0.461146 -0.922126
v 0.260611 0.217591 -0.983192
v 0.277282 -0.056157 -0.967701
v 0.297587 -0.374135 -0.857597
v 0.240950 -0.634271 -0.710960
v 0.163118 -0.825022 -0.519744
v 0.074655 -0.942861 -0.306329
v 0.162186 0.992240 -0.123391
v 0.247787 0.931252 -0.357822
v 0.319120 0.818357 -0.571770
v 0.373955 0.657326 -0.751237
v 0.414522 0.452238 -0.875416
v 0.442692 0.206776 -0.928447
v 0.446775 -0.071323 -0.909801
v 0.428896 -0.389445 -0.803465
v 0.352558 -0.648560 -0.656994
v 0.243285 -0.837519 -0.474709
v 0.116231 -0.949456 -0.277724
v 0.207193 0.989694 -0.101917
v 0.334734 0.926333 -0.316338
v 0.442081 0.811399 -0.513103
v 0.525819 0.646513 -0.678803
v 0.580199 0.440407 -0.795314
v 0.610723 0.192362 -0.840226
v 0.605092 -0.091216 -0.817875
v 0.559709 -0.403033 -0.718891
v 0.458192 -0.658809 -0.582443
v 0.317292 -0.846733 -0.416891
v 0.153899 -0.955099 -0.243081
v 0.246818 0.986351 -0.072313
v 0.411282 0.919874 -0.259147
v 0.550337 0.802266 -0.432223
v 0.659060 0.633642 -0.578604
v 0.726617 0.426301 -0.683918
v 0.758258 0.175524 -0.721002
v 0.746777 -0.120849 -0.689188
v 0.676832 -0.411417 -0.607458
v 0.551458 -0.662114 -0.489503
v 0.381776 -0.852197 -0.347158
v 0.186053 -0.959595 -0.202976
v 0.279537 0.982339 -0.035716
v 0.474492 0.912125 -0.188447
v 0.639867 0.791122 -0.332241
v 0.768391 0.619584 -0.454816
v 0.847882 0.410109 -0.543399
v 0.879001 0.160422 -0.573359
v 0.856532 -0.124966 -0.544430
v 0.770643 -0.404005 -0.479650
v 0.626669 -0.652210 -0.384620
v 0.433743 -0.852499 -0.267924
v 0.211200 -0.962866 -0.158398
v 0.304095 0.977814 0.006468
v 0.521933 0.903383 -0.106954
v 0.707158 0.778440 -0.216913
v 0.849918 0.604146 -0.311493
v 0.937774 0.392610 -0.380274
v 0.967540 0.144641 -0.403001
v 0.935621 -0.133138 -0.379157
v 0.837466 -0.403958 -0.332325
v 0.679002 -0.647518 -0.264598
v 0.470489 -0.844416 -0.183981
v 0.228040 -0.965042 -0.110641
v 0.319546 0.972949 0.052617
v 0.551782 0.893984 -0.017800
v 0.749305 0.765020 -0.090539
v 0.900083 0.587488 -0.153286
v 0.992073 0.374489 -0.201154
v 1.019566 0.128975 -0.218178
v 0.980062 -0.144247 -0.199024
v 0.873395 -0.408837 -0.171418
v 0.705637 -0.647557 -0.133924
v 0.487882 -0.841411 -0.092386
v 0.235510 -0.966668 -0.061046
v 0.325297 0.967930 0.100959
v 0.562893 0.884289 0.075589
v 0.764028 0.751144 0.043039
v 0.916120 0.571134 0.012886
v 1.008485 0.357507 -0.015418
v 1.032688 0.112498 -0.023889
v 0.987043 -0.157232 -0.010344
v 0.875970 -0.416972 -0.003304
v 0.704866 -0.651382 0.002248
v 0.485339 -0.842198 0.002916
v 0.232957 -0.968074 -0.011359
v 0.321128 0.962952 0.149635
v 0.554747 0.874689 0.169653
v 0.750663 0.737833 0.177642
v 0.898066 0.556168 0.178282
v 0.986023 0.340930 0.172080
v 1.004903 0.095655 0.173812
v 0.954972 -0.170870 0.180149
v 0.844186 -0.426965 0.165149
v 0.676110 -0.658000 0.138359
v 0.462823 -0.846097 0.098285
v 0.220147 -0.969491 0.036437
v 0.307197 0.958204 0.196774
v 0.526937 0.865747 0.260924
v 0.709803 0.725516 0.307765
v 0.846637 0.542321 0.337604
v 0.924962 0.325545 0.353610
v 0.933987 0.078335 0.370891
v 0.883532 -0.183316 0.365154
v 0.778690 -0.437513 0.326411
v 0.619967 -0.666536 0.268676
v 0.420916 -0.852629 0.189984
v 0.197272 -0.971072 0.080234
v 0.284042 0.953870 0.240566
v 0.481080 0.857718 0.345590
v 0.643987 0.714381 0.427734
v 0.764161 0.529929 0.484373
v 0.829158 0.312483 0.519011
v 0.827882 0.065458 0.543996
v 0.778100 -0.194053 0.529120
v 0.682289 -0.447522 0.471986
v 0.538188 -0.676362 0.387605
v 0.361004 -0.861584 0.274731
v 0.164966 -0.972868 0.117837
v 0.252551 0.950116 0.279327
v 0.419067 0.850857 0.420315
v 0.555636 0.704859 0.533157
v 0.654233 0.519304 0.612765
v 0.703002 0.301748 0.661984
v 0.690492 0.054451 0.691179
v 0.643207 -0.202717 0.667144
v 0.559422 -0.456245 0.595406
v 0.433366 -0.687305 0.490262
v 0.284133 -0.867338 0.341972
v 0.124281 -0.974763 0.146963
v 0.213935 0.947086 0.311568
v 0.343418 0.845365 0.482201
v 0.448126 0.697244 0.620124
v 0.521370 0.510712 0.717951
v 0.549692 0.291697 0.779190
v 0.526496 0.044529 0.808499
v 0.483910 -0.208945 0.774031
v 0.417175 -0.452407 0.678347
v 0.308055 -0.693319 0.563606
v 0.192450 -0.872524 0.388969
v 0.076652 -0.976795 0.165667
v 0.169677 0.944898 0.336050
v 0.257162 0.841401 0.528903
v 0.325729 0.691761 0.685347
v 0.370719 0.504382 0.796260
v 0.375982 0.283146 0.865205
v 0.341635 0.035426 0.892163
v 0.304806 -0.215236 0.848719
v 0.252801 -0.457339 0.739117
v 0.164424 -0.701757 0.607431
v 0.088616 -0.879029 0.412716
v 0.023882 -0.978999 0.172336
v 0.121479 0.943633 0.351831
v 0.163701 0.839079 0.558706
v 0.193242 0.688577 0.726426
v 0.205211 0.499077 0.846505
v 0.188673 0.276604 0.916624
v 0.146754 0.030836 0.936688
v 0.112409 -0.221320 0.888036
v 0.073098 -0.466728 0.769107
v 0.005051 -0.716098 0.617010
v -0.024110 -0.887973 0.409713
v -0.031867 -0.981292 0.165740
v 0.071193 0.943343 0.358306
v 0.066675 0.838470 0.570581
v 0.055810 0.687792 0.741928
v 0.033511 0.496483 0.864489
v -0.004591 0.272771 0.931335
v -0.052916 0.028526 0.942905
v -0.085311 -0.226144 0.889616
v -0.113776 -0.478263 0.764883
v -0.149199 -0.724058 0.597572
v -0.132864 -0.892101 0.386819
v -0.086540 -0.981900 0.149325
v 0.020750 0.944037 0.355226
v -0.030184 0.839600 0.564211
v -0.081413 0.689379 0.731474
v -0.137092 0.497050 0.849458
v -0.193530 0.273965 0.908682
v -0.248978 0.029182 0.910734
v -0.279399 -0.228269 0.852342
v -0.304967 -0.495505 0.724594
v -0.292985 -0.725075 0.550490
v -0.233416 -0.890807 0.345423
v -0.137786 -0.980536 0.123704
v -0.025691 -0.993553 -0.102044
v -0.027909 0.945689 0.342708
v -0.123198 0.842452 0.539976
v -0.214439 0.692813 0.695830
v -0.299717 0.500918 0.802342
v -0.372014 0.279045 0.850543
v -0.432444 0.033871 0.841766
v -0.456935 -0.223440 0.777608
v -0.464155 -0.490147 0.647908
v -0.417581 -0.714616 0.479064
v -0.321772 -0.883419 0.287792
v -0.183531 -0.977112 0.089866
v -0.072916 0.948236 0.321235
v -0.208891 0.846960 0.498914
v -0.336539 0.698780 0.635809
v -0.447998 0.508080 0.725443
v -0.533384 0.287785 0.760029
v -0.595988 0.042868 0.739806
v -0.611681 -0.212246 0.671051
v -0.590624 -0.467205 0.547121
v -0.517022 -0.690438 0.390594
v -0.394603 -0.869508 0.217352
v -0.222050 -0.971757 0.049127
v -0.112540 0.951579 0.291631
v -0.284104 0.853011 0.442651
v -0.442493 0.707048 0.554504
v -0.575742 0.518695 0.622387
v -0.671617 0.300190 0.641475
v -0.733228 0.056480 0.609572
v -0.741749 -0.197351 0.535731
v -0.698736 -0.445335 0.421919
v -0.600145 -0.667519 0.283973
v -0.449389 -0.848528 0.138929
v -0.252017 -0.964851 0.003035
v 0.068151 0.997164 0.115547
v -0.145260 0.955590 0.255033
v -0.346154 0.860449 0.373237
v -0.528497 0.717464 0.455589
v -0.678777 0.532316 0.497638
v -0.781993 0.316325 0.500067
v -0.837461 0.077261 0.459093
v -0.841143 -0.176276 0.380130
v -0.782020 -0.422713 0.277411
v -0.662874 -0.645768 0.162227
v -0.489861 -0.830416 0.050132
v -0.272537 -0.957081 -0.046788
v -0.169817 0.960115 0.212850
v -0.393595 0.869191 0.291744
v -0.592288 0.729792 0.342301
v -0.753739 0.548318 0.356508
v -0.862174 0.335283 0.339999
v -0.913989 0.099791 0.289824
v -0.908656 -0.152718 0.208763
v -0.836306 -0.399754 0.118726
v -0.701631 -0.625351 0.029342
v -0.513197 -0.814778 -0.045988
v -0.282986 -0.948990 -0.098475
v -0.185269 0.964980 0.166700
v -0.423444 0.878590 0.202591
v -0.631823 0.743482 0.218542
v -0.798211 0.566289 0.204734
v -0.908612 0.356290 0.167539
v -0.956474 0.123382 0.107738
v -0.941249 -0.128419 0.026926
v -0.858345 -0.377367 -0.048717
v -0.713582 -0.606757 -0.110022
v -0.517408 -0.801370 -0.146717
v -0.283112 -0.941067 -0.150002
v -0.191020 0.969999 0.118359
v -0.434554 0.888285 0.109202
v -0.646316 0.757536 0.086659
v -0.811581 0.585144 0.046373
v -0.919242 0.378989 -0.009805
v -0.961505 0.147958 -0.079498
v -0.936447 -0.104610 -0.159067
v -0.845753 -0.356647 -0.218994
v -0.696745 -0.590738 -0.250632
v -0.501092 -0.790916 -0.247881
v -0.273075 -0.933792 -0.199235
v -0.186850 0.974977 0.069683
v -0.426499 0.897903 0.015167
v -0.634021 0.771348 -0.045737
v -0.793428 0.602983 -0.115068
v -0.894484 0.401302 -0.187171
v -0.928628 0.172781 -0.264300
v -0.892883 -0.081681 -0.342022
v -0.797031 -0.338885 -0.385729
v -0.650031 -0.577684 -0.387121
v -0.463444 -0.784308 -0.345720
v -0.253492 -0.927550 -0.244176
v -0.172920 0.979725 0.022543
v -0.399588 0.907075 -0.075899
v -0.595711 0.784343 -0.173746
v -0.743412 0.619620 -0.270790
v -0.835116 0.421139 -0.358764
v -0.859744 0.195471 -0.439729
v -0.810708 -0.060854 -0.514598
v -0.711159 -0.324805 -0.542564
v -0.573645 -0.569034 -0.512689
v -0.408104 -0.775566 -0.426496
v -0.225440 -0.922452 -0.283122
v -0.149765 0.984059 -0.021249
v -0.354855 0.915448 -0.160498
v -0.533037 0.796029 -0.292754
v -0.663657 0.634525 -0.414617
v -0.743614 0.438445 -0.516520
v -0.760440 0.214073 -0.597673
v -0.710205 -0.039320 -0.652971
v -0.601627 -0.311930 -0.668540
v -0.477683 -0.560902 -0.610988
v -0.339229 -0.768991 -0.490725
v -0.190333 -0.919097 -0.314225
v -0.118273 0.987813 -0.060010
v -0.294019 0.922700 -0.235379
v -0.447110 0.806262 -0.398610
v -0.558116 0.647102 -0.541205
v -0.623540 0.452991 -0.654849
v -0.632678 0.226133 -0.736464
v -0.582066 -0.030169 -0.776622
v -0.473583 -0.306286 -0.768180
v -0.367434 -0.557751 -0.685159
v -0.260453 -0.766852 -0.537780
v -0.149830 -0.917839 -0.336538
v -0.079657 0.990843 -0.092251
v -0.219418 0.928553 -0.297663
v -0.341609 0.814539 -0.486693
v -0.430800 0.656988 -0.646673
v -0.478939 0.463912 -0.769453
v -0.479907 0.231086 -0.851150
v -0.431995 -0.027442 -0.876464
v -0.332910 -0.313414 -0.840563
v -0.247674 -0.562444 -0.735180
v -0.175259 -0.769865 -0.567404
v -0.105697 -0.918928 -0.349343
v -0.035400 0.993032 -0.116732
v -0.133919 0.932781 -0.344958
v -0.220695 0.820519 -0.553578
v -0.285463 0.664036 -0.727524
v -0.314058 0.469540 -0.856797
v -0.307408 0.231385 -0.936260
v -0.265763 -0.032173 -0.948254
v -0.188120 -0.342174 -0.884236
v -0.123532 -0.577276 -0.760458
v -0.087271 -0.777756 -0.579692
v -0.059737 -0.922407 -0.352278
v 0.012798 0.994296 -0.132514
v -0.040808 0.935223 -0.375445
v -0.121475 0.229450 -0.987568
v -0.085979 -0.038241 -0.988289
v -0.000606 -0.791216 -0.574194
v -0.013701 -0.928095 -0.345323
v -0.691754 -0.615291 -0.177526
v -0.628931 -0.896302 -0.526897
v -0.741429 -0.661841 -0.060430
v -0.704544 -0.992949 -0.496848
v -0.546649 -0.625680 -0.167117
v -0.503037 -0.951541 -0.470037
v -0.587271 -0.653004 -0.044581
v -0.578650 -1.048188 -0.439988
v -0.729065 -1.383452 -0.511683
v -0.770557 -1.320111 -0.401710
v -0.584487 -1.387686 -0.475801
v -0.631009 -1.336602 -0.353454
v -0.745432 -1.471181 -0.456023
v -0.787795 -1.411491 -0.368834
v -0.600909 -1.475644 -0.421579
v -0.646060 -1.422672 -0.326297
v -0.647297 -1.567787 -0.682854
v -0.692665 -1.503302 -0.681339
v -0.547987 -1.507367 -0.646904
v -0.591171 -1.569364 -0.669495
v -0.708652 -1.589971 -0.624398
v -0.649410 -1.579240 -0.675329
v -0.593284 -1.580817 -0.661970
v -0.563975 -1.594036 -0.589963
vn -0.9836 0.1791 0.0207
vn 0.1899 0.3777 0.9062
vn 0.9833 -0.1814 -0.0122
vn -0.1940 -0.3608 -0.9122
vn 0.0614 0.9971 -0.0458
vn 0.9881 0.0624 -0.1409
vn 0.9953 -0.0062 -0.0969
vn -0.9903 -0.0577 0.1264
vn -0.2454 -0.3930 -0.8862
vn 0.2591 0.3923 0.8826
vn 0.0294 -0.9228 0.3843
vn -0.9947 0.0114 0.1022
vn 0.0055 -0.9233 0.3841
vn 0.2417 0.3837 0.8913
vn -0.9789 0.0730 0.1908
vn -0.2048 -0.3771 -0.9032
vn 0.9790 -0.0725 -0.1906
vn -0.1472 0.3861 -0.9107
vn -0.1425 -0.9194 -0.3667
vn 0.5473 -0.3203 -0.7733
vn -0.8370 -0.2130 -0.5041
vn -0.0064 0.9234 -0.3839
vn -0.0649 -0.9628 -0.2623
vn -0.0351 0.9728 -0.2288
vn 0.0404 -0.5027 -0.8635
vn -0.0892 0.2787 -0.9562
vn -0.0615 0.8970 -0.4377
vn 0.0131 -0.7064 -0.7077
vn -0.0585 -0.0218 -0.9980
vn -0.0877 0.7694 -0.6328
vn -0.0233 -0.8630 -0.5047
vn -0.0071 0.9999 -0.0100
vn 0.0001 -0.2787 -0.9604
vn -0.1002 0.5472 -0.8310
vn 0.1237 -0.0342 -0.9917
vn 0.0523 0.7678 -0.6386
vn 0.0490 -0.8787 -0.4749
vn 0.0144 0.9998 -0.0104
vn 0.1602 -0.2947 -0.9421
vn 0.0673 0.5435 -0.8367
vn -0.0298 -0.9666 -0.2545
vn 0.0275 0.9727 -0.2305
vn 0.1723 -0.5084 -0.8437
vn 0.0923 0.2649 -0.9599
vn 0.0393 0.8966 -0.4410
vn 0.1145 -0.7222 -0.6822
vn 0.2915 -0.5257 -0.7991
vn 0.2750 0.2464 -0.9293
vn 0.1398 0.8942 -0.4253
vn 0.2256 -0.7374 -0.6366
vn 0.3016 -0.0476 -0.9523
vn 0.1903 0.7606 -0.6207
vn 0.1231 -0.8921 -0.4348
vn 0.0356 0.9993 -0.0066
vn 0.3050 -0.3057 -0.9020
vn 0.2352 0.5392 -0.8087
vn 0.0088 -0.9715 -0.2368
vn 0.0896 0.9714 -0.2200
vn 0.0558 0.9984 0.0014
vn 0.4674 -0.3160 -0.8256
vn 0.3976 0.5302 -0.7489
vn 0.0454 -0.9770 -0.2085
vn 0.1491 0.9689 -0.1976
vn 0.4299 -0.5443 -0.7203
vn 0.4529 0.2251 -0.8627
vn 0.2367 0.8896 -0.3905
vn 0.3381 -0.7496 -0.5690
vn 0.4770 -0.0653 -0.8765
vn 0.3239 0.7494 -0.5775
vn 0.1965 -0.9028 -0.3825
vn 0.4488 -0.7564 -0.4759
vn 0.6398 -0.0902 -0.7633
vn 0.4485 0.7349 -0.5088
vn 0.2663 -0.9103 -0.3169
vn 0.0743 0.9972 0.0132
vn 0.6148 -0.3323 -0.7153
vn 0.5482 0.5152 -0.6589
vn 0.0760 -0.9823 -0.1711
vn 0.2039 0.9652 -0.1639
vn 0.5619 -0.5583 -0.6104
vn 0.6176 0.2019 -0.7601
vn 0.3266 0.8828 -0.3375
vn 0.2519 0.9603 -0.1199
vn 0.6866 -0.5657 -0.4567
vn 0.7629 0.1789 -0.6213
vn 0.4066 0.8736 -0.2672
vn 0.5605 -0.7515 -0.3480
vn 0.7770 -0.1101 -0.6198
vn 0.5585 0.7180 -0.4154
vn 0.3335 -0.9132 -0.2341
vn 0.0902 0.9955 0.0285
vn 0.7527 -0.3494 -0.5579
vn 0.6831 0.4920 -0.5397
vn 0.0975 -0.9870 -0.1275
vn 0.4023 -0.9072 -0.1230
vn 0.1030 0.9936 0.0466
vn 0.8407 -0.3630 -0.4018
vn 0.7939 0.4629 -0.3943
vn 0.1085 -0.9906 -0.0834
vn 0.2911 0.9543 -0.0671
vn 0.7535 -0.5712 -0.3257
vn 0.8774 0.1554 -0.4539
vn 0.4731 0.8620 -0.1819
vn 0.6264 -0.7458 -0.2268
vn 0.8837 -0.1275 -0.4504
vn 0.6508 0.6980 -0.2986
vn 0.5224 0.8485 -0.0847
vn 0.6521 -0.7487 -0.1192
vn 0.9540 -0.1442 -0.2628
vn 0.7207 0.6740 -0.1625
vn 0.4325 -0.8991 -0.0674
vn 0.1123 0.9914 0.0669
vn 0.8981 -0.3754 -0.2292
vn 0.8732 0.4320 -0.2259
vn 0.1099 -0.9927 -0.0491
vn 0.3199 0.9474 -0.0072
vn 0.7960 -0.5778 -0.1805
vn 0.9547 0.1322 -0.2666
vn 0.1059 -0.9941 -0.0227
vn 0.3370 0.9398 0.0575
vn 0.8115 -0.5837 -0.0278
vn 0.9918 0.1080 -0.0676
vn 0.5535 0.8325 0.0234
vn 0.6602 -0.7511 -0.0055
vn 0.9853 -0.1584 -0.0639
vn 0.7613 0.6482 -0.0128
vn 0.4455 -0.8953 0.0021
vn 0.1175 0.9891 0.0887
vn 0.9214 -0.3858 -0.0475
vn 0.9140 0.4032 -0.0461
vn 0.7683 0.6248 0.1394
vn 0.4392 -0.8952 0.0751
vn 0.1185 0.9867 0.1111
vn 0.9094 -0.3932 0.1359
vn 0.9169 0.3743 0.1387
vn 0.0991 -0.9951 -0.0029
vn 0.3413 0.9317 0.1246
vn 0.7989 -0.5880 0.1267
vn 0.9871 0.0849 0.1361
vn 0.5629 0.8155 0.1347
vn 0.6491 -0.7528 0.1096
vn 0.9760 -0.1689 0.1372
vn 0.5486 0.7988 0.2469
vn 0.6193 -0.7530 0.2224
vn 0.9269 -0.1758 0.3316
vn 0.7427 0.6029 0.2913
vn 0.4134 -0.8991 0.1438
vn 0.1152 0.9844 0.1332
vn 0.8621 -0.3974 0.3145
vn 0.8815 0.3466 0.3206
vn 0.0910 -0.9958 0.0115
vn 0.3325 0.9234 0.1916
vn 0.7583 -0.5897 0.2778
vn 0.9404 0.0662 0.3335
vn 0.8098 0.3243 0.4889
vn 0.0819 -0.9964 0.0227
vn 0.3108 0.9156 0.2551
vn 0.6908 -0.5876 0.4213
vn 0.8555 0.0574 0.5147
vn 0.5113 0.7838 0.3524
vn 0.5730 -0.7505 0.3294
vn 0.8386 -0.1816 0.5136
vn 0.6875 0.5826 0.4336
vn 0.3701 -0.9074 0.1992
vn 0.1077 0.9822 0.1541
vn 0.7800 -0.3993 0.4818
vn 0.6049 0.5645 0.5616
vn 0.2878 -0.9163 0.2784
vn 0.0963 0.9802 0.1732
vn 0.6668 -0.3966 0.6310
vn 0.7057 0.3076 0.6382
vn 0.0701 -0.9970 0.0330
vn 0.2766 0.9086 0.3129
vn 0.5989 -0.5796 0.5527
vn 0.7372 0.0533 0.6736
vn 0.4529 0.7708 0.4481
vn 0.4855 -0.7523 0.4453
vn 0.7171 -0.1853 0.6718
vn 0.5914 0.0525 0.8046
vn 0.3761 0.7602 0.5297
vn 0.3472 -0.7554 0.5557
vn 0.5658 -0.1915 0.8020
vn 0.4986 0.5498 0.6701
vn 0.2041 -0.9211 0.3316
vn 0.0814 0.9785 0.1894
vn 0.4887 -0.4078 0.7712
vn 0.5743 0.2947 0.7638
vn 0.0583 -0.9975 0.0401
vn 0.2313 0.9028 0.3625
vn 0.4253 -0.5476 0.7205
vn 0.4225 0.2865 0.8599
vn 0.0473 -0.9979 0.0444
vn 0.1768 0.8985 0.4018
vn 0.2940 -0.5251 0.7986
vn 0.4250 0.0533 0.9036
vn 0.2845 0.7526 0.5938
vn 0.2145 -0.7560 0.6185
vn 0.3979 -0.2010 0.8951
vn 0.3734 0.5394 0.7547
vn 0.1214 -0.9250 0.3602
vn 0.0636 0.9772 0.2024
vn 0.3425 -0.4357 0.8324
vn 0.2125 -0.2051 0.9554
vn 0.2339 0.5335 0.8128
vn 0.0412 -0.9301 0.3650
vn 0.0436 0.9764 0.2114
vn 0.1818 -0.4451 0.8768
vn 0.2568 0.2831 0.9241
vn 0.0355 -0.9983 0.0465
vn 0.1153 0.8960 0.4289
vn 0.1348 -0.5255 0.8401
vn 0.2416 0.0550 0.9688
vn 0.1819 0.7484 0.6379
vn 0.0808 -0.7629 0.6415
vn 0.0523 0.0548 0.9971
vn 0.0726 0.7476 0.6601
vn -0.0660 -0.7732 0.6307
vn 0.0228 -0.2000 0.9795
vn 0.0853 0.5338 0.8413
vn -0.0573 -0.9347 0.3509
vn 0.0222 0.9761 0.2161
vn 0.0126 -0.4412 0.8973
vn 0.0806 0.2835 0.9556
vn -0.0026 -0.9990 0.0457
vn 0.0497 0.8952 0.4428
vn -0.0277 -0.5378 0.8426
vn -0.1590 -0.4182 0.8943
vn -0.0984 0.2895 0.9521
vn -0.0443 -0.9984 0.0355
vn -0.0173 0.8963 0.4431
vn -0.1786 -0.5682 0.8033
vn -0.1405 0.0573 0.9884
vn -0.0387 0.7505 0.6598
vn -0.2136 -0.7805 0.5875
vn -0.1714 -0.1898 0.9668
vn -0.0657 0.5396 0.8393
vn -0.1565 -0.9353 0.3173
vn 0.0002 0.9763 0.2164
vn -0.3680 -0.1780 0.9126
vn -0.2125 0.5499 0.8077
vn -0.2553 -0.9301 0.2643
vn -0.0214 0.9770 0.2123
vn -0.3888 -0.3807 0.8390
vn -0.2741 0.2999 0.9137
vn -0.0856 -0.9962 0.0149
vn -0.0829 0.8991 0.4298
vn -0.4008 -0.5845 0.7055
vn -0.3291 0.0649 0.9421
vn -0.1477 0.7566 0.6370
vn -0.3733 -0.7759 0.5086
vn -0.5938 -0.5712 0.5666
vn -0.5051 0.0759 0.8597
vn -0.2496 0.7659 0.5925
vn -0.5313 -0.7487 0.3965
vn -0.5476 -0.1696 0.8194
vn -0.3512 0.5638 0.7475
vn -0.3509 -0.9164 0.1926
vn -0.0419 0.9781 0.2039
vn -0.5802 -0.3685 0.7263
vn -0.4390 0.3142 0.8418
vn -0.1219 -0.9924 -0.0152
vn -0.1444 0.9034 0.4037
vn -0.0605 0.9796 0.1916
vn -0.7105 -0.3727 0.5969
vn -0.5865 0.3326 0.7385
vn -0.1490 -0.9875 -0.0511
vn -0.1994 0.9090 0.3661
vn -0.6859 -0.5668 0.4563
vn -0.6629 0.0892 0.7434
vn -0.3400 0.7777 0.5287
vn -0.6212 -0.7279 0.2903
vn -0.7042 -0.1603 0.6917
vn -0.4746 0.5811 0.6611
vn -0.4427 -0.8909 0.1018
vn -0.6653 -0.7222 0.1893
vn -0.8330 -0.1411 0.5349
vn -0.5774 0.6010 0.5526
vn -0.4840 -0.8737 0.0498
vn -0.0763 0.9815 0.1758
vn -0.8182 -0.3639 0.4451
vn -0.7095 0.3552 0.6086
vn -0.1643 -0.9827 -0.0856
vn -0.2458 0.9155 0.3186
vn -0.7632 -0.5583 0.3255
vn -0.7952 0.1026 0.5976
vn -0.4151 0.7913 0.4490
vn -0.2821 0.9226 0.2632
vn -0.8187 -0.5453 0.1801
vn -0.8910 0.1172 0.4387
vn -0.4726 0.8057 0.3570
vn -0.6975 -0.7125 0.0769
vn -0.9200 -0.1209 0.3727
vn -0.6556 0.6229 0.4269
vn -0.5089 -0.8605 -0.0218
vn -0.0888 0.9836 0.1572
vn -0.8944 -0.3480 0.2810
vn -0.8031 0.3812 0.4579
vn -0.1710 -0.9781 -0.1185
vn -0.5144 -0.8511 -0.1046
vn -0.0976 0.9858 0.1366
vn -0.9389 -0.3283 0.1030
vn -0.8642 0.4100 0.2916
vn -0.1708 -0.9739 -0.1494
vn -0.3071 0.9302 0.2009
vn -0.8484 -0.5288 0.0234
vn -0.9556 0.1429 0.2576
vn -0.5115 0.8204 0.2556
vn -0.7124 -0.7003 -0.0454
vn -0.9770 -0.1003 0.1884
vn -0.7063 0.6459 0.2896
vn -0.5305 0.8346 0.1483
vn -0.7065 -0.6864 -0.1720
vn -0.9970 -0.0767 -0.0093
vn -0.7289 0.6689 0.1458
vn -0.4989 -0.8462 -0.1872
vn -0.1023 0.9881 0.1148
vn -0.9484 -0.3057 -0.0845
vn -0.8902 0.4400 0.1181
vn -0.1649 -0.9703 -0.1770
vn -0.3197 0.9378 0.1354
vn -0.8487 -0.5098 -0.1406
vn -0.9828 0.1729 0.0646
vn -0.1544 -0.9672 -0.2016
vn -0.3197 0.9450 0.0693
vn -0.8163 -0.4895 -0.3067
vn -0.9709 0.2024 -0.1282
vn -0.5284 0.8480 0.0403
vn -0.6786 -0.6702 -0.3005
vn -0.9764 -0.0520 -0.2097
vn -0.7239 0.6899 -0.0007
vn -0.4633 -0.8466 -0.2619
vn -0.1028 0.9904 0.0925
vn -0.9194 -0.2808 -0.2753
vn -0.8815 0.4688 -0.0561
vn -0.6916 0.7083 -0.1413
vn -0.3916 -0.8424 -0.3701
vn -0.0991 0.9926 0.0707
vn -0.8500 -0.2554 -0.4607
vn -0.8394 0.4945 -0.2254
vn -0.1384 -0.9643 -0.2259
vn -0.3072 0.9516 0.0051
vn -0.7491 -0.4688 -0.4681
vn -0.9220 0.2282 -0.3128
vn -0.5061 0.8601 -0.0637
vn -0.6094 -0.6566 -0.4444
vn -0.9154 -0.0320 -0.4013
vn -0.4652 0.8707 -0.1596
vn -0.5024 -0.6514 -0.5685
vn -0.8278 -0.0181 -0.5607
vn -0.6350 0.7235 -0.2709
vn -0.3243 -0.8369 -0.4409
vn -0.0913 0.9946 0.0502
vn -0.7450 -0.2384 -0.6230
vn -0.7670 0.5167 -0.3804
vn -0.1228 -0.9624 -0.2424
vn -0.2831 0.9575 -0.0549
vn -0.6375 -0.4489 -0.6262
vn -0.8409 0.2503 -0.4798
vn -0.6697 0.5344 -0.5157
vn -0.1093 -0.9614 -0.2526
vn -0.2483 0.9626 -0.1085
vn -0.5174 -0.4435 -0.7318
vn -0.7307 0.2685 -0.6277
vn -0.4072 0.8797 -0.2456
vn -0.3975 -0.6496 -0.6481
vn -0.7155 -0.0107 -0.6985
vn -0.5557 0.7366 -0.3855
vn -0.2593 -0.8342 -0.4867
vn -0.0798 0.9963 0.0317
vn -0.6300 -0.2396 -0.7387
vn -0.4577 0.7482 -0.4803
vn -0.1951 -0.8354 -0.5139
vn -0.0650 0.9978 0.0159
vn -0.4964 -0.2489 -0.8316
vn -0.5517 0.5465 -0.6300
vn -0.0986 -0.9611 -0.2581
vn -0.2044 0.9667 -0.1540
vn -0.3961 -0.4523 -0.7991
vn -0.5954 0.2805 -0.7528
vn -0.3352 0.8868 -0.3182
vn -0.2952 -0.6541 -0.6964
vn -0.5779 -0.0068 -0.8161
vn -0.4401 0.2860 -0.8512
vn -0.2517 0.8921 -0.3753
vn -0.1986 -0.6667 -0.7183
vn -0.4204 -0.0073 -0.9073
vn -0.3445 0.7579 -0.5540
vn -0.1311 -0.8406 -0.5256
vn -0.0475 0.9989 0.0034
vn -0.3605 -0.2572 -0.8966
vn -0.4146 0.5524 -0.7231
vn -0.0894 -0.9612 -0.2611
vn -0.1530 0.9698 -0.1900
vn -0.2901 -0.4813 -0.8272
vn -0.2631 0.5518 -0.7914
vn -0.0792 -0.9616 -0.2626
vn -0.0959 0.9719 -0.2152
vn -0.1289 -0.4985 -0.8573
vn -0.2689 0.2854 -0.9199
vn -0.1595 0.8955 -0.4155
vn -0.1077 -0.6873 -0.7184
vn -0.2425 -0.0120 -0.9701
vn -0.2203 0.7653 -0.6048
vn -0.0736 -0.8498 -0.5220
vn -0.0280 0.9996 -0.0053
vn -0.1790 -0.2643 -0.9477
vn -0.8535 0.3530 -0.3833
vn -0.2825 -0.7302 0.6221
vn 0.8608 -0.3205 0.3953
vn 0.3265 0.7180 -0.6147
vn -0.0203 0.9575 0.2876
vn 0.7892 -0.0778 0.6092
vn 0.9236 0.0122 0.3832
vn -0.7735 0.0725 -0.6296
vn 0.3096 -0.0706 -0.9482
vn -0.2727 0.3202 0.9072
vn -0.1706 -0.8729 0.4571
vn -0.9237 -0.0160 -0.3829
vn -0.1543 -0.8234 0.5461
vn -0.2561 0.3513 0.9006
vn -0.9722 0.0306 -0.2320
vn 0.1764 -0.5630 -0.8074
vn 0.9720 -0.0322 0.2328
vn 0.2324 0.1860 -0.9547
vn 0.0170 -0.9822 -0.1872
vn 0.8123 -0.4174 -0.4073
vn -0.5629 -0.3788 -0.7346
vn 0.1562 0.8235 -0.5454
vt 0.375000 0.000000
vt 0.625000 0.000000
vt 0.625000 0.250000
vt 0.375000 0.250000
vt 0.625000 0.500000
vt 0.375000 0.500000
vt 0.625000 0.750000
vt 0.375000 0.750000
vt 0.625000 1.000000
vt 0.375000 1.000000
vt 0.125000 0.500000
vt 0.125000 0.750000
vt 0.875000 0.500000
vt 0.875000 0.750000
vt 0.625000 0.750000
vt 0.625000 0.923493
vt 0.625000 0.826507
vt 0.625000 0.826507
vt 0.625000 0.923493
vt 0.734375 0.000000
vt 0.750000 0.083333
vt 0.718750 0.083333
vt 0.750000 0.833333
vt 0.750000 0.916667
vt 0.718750 0.916667
vt 0.718750 0.833333
vt 0.750000 0.250000
vt 0.750000 0.333333
vt 0.718750 0.333333
vt 0.718750 0.250000
vt 0.750000 0.500000
vt 0.750000 0.583333
vt 0.718750 0.583333
vt 0.718750 0.500000
vt 0.750000 0.750000
vt 0.718750 0.750000
vt 0.750000 0.166667
vt 0.718750 0.166667
vt 0.750000 0.416667
vt 0.718750 0.416667
vt 0.750000 0.666667
vt 0.718750 0.666667
vt 0.734375 1.000000
vt 0.687500 0.500000
vt 0.687500 0.416667
vt 0.687500 0.750000
vt 0.687500 0.666667
vt 0.687500 0.166667
vt 0.687500 0.083333
vt 0.703125 1.000000
vt 0.687500 0.916667
vt 0.687500 0.333333
vt 0.687500 0.583333
vt 0.703125 0.000000
vt 0.687500 0.833333
vt 0.687500 0.250000
vt 0.656250 0.333333
vt 0.656250 0.250000
vt 0.656250 0.583333
vt 0.656250 0.500000
vt 0.656250 0.833333
vt 0.656250 0.750000
vt 0.656250 0.166667
vt 0.656250 0.416667
vt 0.656250 0.666667
vt 0.656250 0.083333
vt 0.671875 1.000000
vt 0.656250 0.916667
vt 0.671875 0.000000
vt 0.640625 1.000000
vt 0.625000 0.916667
vt 0.625000 0.416667
vt 0.625000 0.333333
vt 0.625000 0.666667
vt 0.625000 0.583333
vt 0.640625 0.000000
vt 0.625000 0.083333
vt 0.625000 0.833333
vt 0.625000 0.166667
vt 0.593750 0.250000
vt 0.593750 0.166667
vt 0.593750 0.500000
vt 0.593750 0.416667
vt 0.593750 0.750000
vt 0.593750 0.666667
vt 0.593750 0.083333
vt 0.609375 1.000000
vt 0.593750 0.916667
vt 0.593750 0.333333
vt 0.593750 0.583333
vt 0.609375 0.000000
vt 0.593750 0.833333
vt 0.562500 0.916667
vt 0.562500 0.833333
vt 0.562500 0.333333
vt 0.562500 0.250000
vt 0.562500 0.583333
vt 0.562500 0.500000
vt 0.562500 0.750000
vt 0.562500 0.166667
vt 0.562500 0.416667
vt 0.562500 0.666667
vt 0.562500 0.083333
vt 0.578125 1.000000
vt 0.578125 0.000000
vt 0.531250 0.166667
vt 0.531250 0.083333
vt 0.546875 1.000000
vt 0.531250 0.916667
vt 0.531250 0.416667
vt 0.531250 0.333333
vt 0.531250 0.666667
vt 0.531250 0.583333
vt 0.546875 0.000000
vt 0.531250 0.833333
vt 0.531250 0.250000
vt 0.531250 0.500000
vt 0.531250 0.750000
vt 0.500000 0.833333
vt 0.500000 0.750000
vt 0.500000 0.250000
vt 0.500000 0.166667
vt 0.500000 0.500000
vt 0.500000 0.416667
vt 0.500000 0.666667
vt 0.500000 0.083333
vt 0.515625 1.000000
vt 0.500000 0.916667
vt 0.500000 0.333333
vt 0.500000 0.583333
vt 0.515625 0.000000
vt 0.484375 0.000000
vt 0.468750 0.083333
vt 0.468750 0.916667
vt 0.468750 0.833333
vt 0.468750 0.333333
vt 0.468750 0.250000
vt 0.468750 0.583333
vt 0.468750 0.500000
vt 0.468750 0.750000
vt 0.468750 0.166667
vt 0.468750 0.416667
vt 0.468750 0.666667
vt 0.484375 1.000000
vt 0.437500 0.750000
vt 0.437500 0.666667
vt 0.437500 0.166667
vt 0.437500 0.083333
vt 0.453125 1.000000
vt 0.437500 0.916667
vt 0.437500 0.416667
vt 0.437500 0.333333
vt 0.437500 0.583333
vt 0.453125 0.000000
vt 0.437500 0.833333
vt 0.437500 0.250000
vt 0.437500 0.500000
vt 0.406250 0.833333
vt 0.406250 0.750000
vt 0.406250 0.250000
vt 0.406250 0.166667
vt 0.406250 0.500000
vt 0.406250 0.416667
vt 0.406250 0.666667
vt 0.406250 0.083333
vt 0.421875 1.000000
vt 0.406250 0.916667
vt 0.406250 0.333333
vt 0.406250 0.583333
vt 0.421875 0.000000
vt 0.375000 0.666667
vt 0.375000 0.583333
vt 0.390625 0.000000
vt 0.375000 0.083333
vt 0.375000 0.916667
vt 0.375000 0.833333
vt 0.375000 0.333333
vt 0.375000 0.500000
vt 0.375000 0.750000
vt 0.375000 0.166667
vt 0.375000 0.416667
vt 0.390625 1.000000
vt 0.343750 0.750000
vt 0.343750 0.666667
vt 0.343750 0.166667
vt 0.343750 0.083333
vt 0.359375 1.000000
vt 0.343750 0.916667
vt 0.343750 0.416667
vt 0.343750 0.333333
vt 0.343750 0.583333
vt 0.359375 0.000000
vt 0.343750 0.833333
vt 0.343750 0.250000
vt 0.343750 0.500000
vt 0.312500 0.583333
vt 0.312500 0.500000
vt 0.312500 0.833333
vt 0.312500 0.750000
vt 0.312500 0.250000
vt 0.312500 0.166667
vt 0.312500 0.416667
vt 0.312500 0.666667
vt 0.312500 0.083333
vt 0.328125 1.000000
vt 0.312500 0.916667
vt 0.312500 0.333333
vt 0.328125 0.000000
vt 0.281250 0.666667
vt 0.281250 0.583333
vt 0.296875 0.000000
vt 0.281250 0.083333
vt 0.281250 0.916667
vt 0.281250 0.833333
vt 0.281250 0.333333
vt 0.281250 0.250000
vt 0.281250 0.500000
vt 0.281250 0.750000
vt 0.281250 0.166667
vt 0.281250 0.416667
vt 0.296875 1.000000
vt 0.250000 0.500000
vt 0.250000 0.416667
vt 0.250000 0.750000
vt 0.250000 0.666667
vt 0.250000 0.166667
vt 0.250000 0.083333
vt 0.265625 1.000000
vt 0.250000 0.916667
vt 0.250000 0.333333
vt 0.250000 0.583333
vt 0.265625 0.000000
vt 0.250000 0.833333
vt 0.250000 0.250000
vt 0.218750 0.583333
vt 0.218750 0.500000
vt 0.218750 0.833333
vt 0.218750 0.750000
vt 0.218750 0.250000
vt 0.218750 0.166667
vt 0.218750 0.416667
vt 0.218750 0.666667
vt 0.218750 0.083333
vt 0.234375 1.000000
vt 0.218750 0.916667
vt 0.218750 0.333333
vt 0.234375 0.000000
vt 0.187500 0.416667
vt 0.187500 0.333333
vt 0.187500 0.666667
vt 0.187500 0.583333
vt 0.203125 0.000000
vt 0.187500 0.083333
vt 0.187500 0.916667
vt 0.187500 0.833333
vt 0.187500 0.250000
vt 0.187500 0.500000
vt 0.187500 0.750000
vt 0.187500 0.166667
vt 0.203125 1.000000
vt 0.156250 0.500000
vt 0.156250 0.416667
vt 0.156250 0.750000
vt 0.156250 0.666667
vt 0.156250 0.166667
vt 0.156250 0.083333
vt 0.171875 1.000000
vt 0.156250 0.916667
vt 0.156250 0.333333
vt 0.156250 0.583333
vt 0.171875 0.000000
vt 0.156250 0.833333
vt 0.156250 0.250000
vt 0.125000 0.333333
vt 0.125000 0.250000
vt 0.125000 0.583333
vt 0.125000 0.500000
vt 0.125000 0.833333
vt 0.125000 0.750000
vt 0.125000 0.166667
vt 0.125000 0.416667
vt 0.125000 0.666667
vt 0.125000 0.083333
vt 0.140625 1.000000
vt 0.125000 0.916667
vt 0.140625 0.000000
vt 0.109375 1.000000
vt 0.093750 0.916667
vt 0.093750 0.416667
vt 0.093750 0.333333
vt 0.093750 0.666667
vt 0.093750 0.583333
vt 0.109375 0.000000
vt 0.093750 0.083333
vt 0.093750 0.833333
vt 0.093750 0.250000
vt 0.093750 0.500000
vt 0.093750 0.750000
vt 0.093750 0.166667
vt 0.062500 0.250000
vt 0.062500 0.166667
vt 0.062500 0.500000
vt 0.062500 0.416667
vt 0.062500 0.750000
vt 0.062500 0.666667
vt 0.062500 0.083333
vt 0.078125 1.000000
vt 0.062500 0.916667
vt 0.062500 0.333333
vt 0.062500 0.583333
vt 0.078125 0.000000
vt 0.062500 0.833333
vt 0.031250 0.916667
vt 0.031250 0.833333
vt 0.031250 0.333333
vt 0.031250 0.250000
vt 0.031250 0.583333
vt 0.031250 0.500000
vt 0.031250 0.750000
vt 0.031250 0.166667
vt 0.031250 0.416667
vt 0.031250 0.666667
vt 0.031250 0.083333
vt 0.046875 1.000000
vt 0.046875 0.000000
vt 0.000000 0.166667
vt 0.000000 0.083333
vt 0.015625 1.000000
vt 0.000000 0.916667
vt 0.000000 0.416667
vt 0.000000 0.333333
vt 0.000000 0.666667
vt 0.000000 0.583333
vt 0.015625 0.000000
vt 0.000000 0.833333
vt 0.000000 0.250000
vt 0.000000 0.500000
vt 0.000000 0.750000
vt 1.000000 0.750000
vt 1.000000 0.833333
vt 0.968750 0.833333
vt 0.968750 0.750000
vt 1.000000 0.166667
vt 1.000000 0.250000
vt 0.968750 0.250000
vt 0.968750 0.166667
vt 1.000000 0.416667
vt 1.000000 0.500000
vt 0.968750 0.500000
vt 0.968750 0.416667
vt 1.000000 0.666667
vt 0.968750 0.666667
vt 1.000000 0.083333
vt 0.968750 0.083333
vt 1.000000 0.916667
vt 0.984375 1.000000
vt 0.968750 0.916667
vt 1.000000 0.333333
vt 0.968750 0.333333
vt 1.000000 0.583333
vt 0.968750 0.583333
vt 0.984375 0.000000
vt 0.953125 0.000000
vt 0.937500 0.083333
vt 0.937500 0.916667
vt 0.937500 0.833333
vt 0.937500 0.333333
vt 0.937500 0.250000
vt 0.937500 0.583333
vt 0.937500 0.500000
vt 0.937500 0.750000
vt 0.937500 0.166667
vt 0.937500 0.416667
vt 0.937500 0.666667
vt 0.953125 1.000000
vt 0.906250 0.750000
vt 0.906250 0.666667
vt 0.906250 0.166667
vt 0.906250 0.083333
vt 0.921875 1.000000
vt 0.906250 0.916667
vt 0.906250 0.416667
vt 0.906250 0.333333
vt 0.906250 0.583333
vt 0.921875 0.000000
vt 0.906250 0.833333
vt 0.906250 0.250000
vt 0.906250 0.500000
vt 0.875000 0.833333
vt 0.875000 0.750000
vt 0.875000 0.250000
vt 0.875000 0.166667
vt 0.875000 0.500000
vt 0.875000 0.416667
vt 0.875000 0.666667
vt 0.875000 0.083333
vt 0.890625 1.000000
vt 0.875000 0.916667
vt 0.875000 0.333333
vt 0.875000 0.583333
vt 0.890625 0.000000
vt 0.843750 0.666667
vt 0.843750 0.583333
vt 0.859375 0.000000
vt 0.843750 0.083333
vt 0.843750 0.916667
vt 0.843750 0.833333
vt 0.843750 0.333333
vt 0.843750 0.250000
vt 0.843750 0.500000
vt 0.843750 0.750000
vt 0.843750 0.166667
vt 0.843750 0.416667
vt 0.859375 1.000000
vt 0.812500 0.750000
vt 0.812500 0.666667
vt 0.812500 0.166667
vt 0.812500 0.083333
vt 0.828125 1.000000
vt 0.812500 0.916667
vt 0.812500 0.416667
vt 0.812500 0.333333
vt 0.812500 0.583333
vt 0.828125 0.000000
vt 0.812500 0.833333
vt 0.812500 0.250000
vt 0.812500 0.500000
vt 0.781250 0.583333
vt 0.781250 0.500000
vt 0.781250 0.833333
vt 0.781250 0.750000
vt 0.781250 0.250000
vt 0.781250 0.166667
vt 0.781250 0.416667
vt 0.781250 0.666667
vt 0.781250 0.083333
vt 0.796875 1.000000
vt 0.781250 0.916667
vt 0.781250 0.333333
vt 0.796875 0.000000
vt 0.765625 0.000000
vt 0.765625 1.000000
s 0
f 1/1/1 2/2/1 4/3/1 3/4/1
f 3/4/2 4/3/2 8/5/2 7/6/2
f 7/6/3 8/5/3 6/7/3 5/8/3
f 5/8/4 6/7/4 2/9/4 1/10/4
f 3/11/5 7/6/5 5/8/5 1/12/5
f 6/7/6 8/5/6 12/5/6 11/7/6
f 11/7/7 12/5/7 16/5/7 15/7/7
f 4/3/8 2/2/8 9/2/8 10/3/8
f 2/9/9 6/7/9 11/7/9 9/9/9
f 8/5/10 4/3/10 10/3/10 12/5/10
f 16/5/11 14/13/11 13/14/11 15/7/11
f 10/3/12 9/2/12 13/2/12 14/3/12
f 15/7/13 13/14/13 21/14/13 24/15/13
f 12/5/14 10/3/14 14/3/14 16/5/14
f 13/2/15 9/2/15 18/2/15 21/2/15
f 17/16/16 20/17/16 23/18/16 22/19/16
f 11/7/17 15/7/17 24/7/17 19/7/17
f 20/17/18 17/16/18 18/9/18 19/7/18
f 24/7/19 21/9/19 22/19/19 23/18/19
f 23/18/20 20/17/20 19/7/20 24/7/20
f 17/16/21 22/19/21 21/9/21 18/9/21
f 9/9/22 11/7/22 19/7/22 18/9/22
f 228/20/23 378/21/23 40/22/23
f 374/23/24 373/24/24 30/25/24 31/26/24
f 29/27/25 28/28/25 37/29/25 38/30/25
f 375/31/26 27/32/26 34/33/26 35/34/26
f 25/35/27 374/23/27 31/26/27 32/36/27
f 377/37/28 29/27/28 38/30/28 39/38/28
f 376/39/29 375/31/29 35/34/29 36/40/29
f 26/41/30 25/35/30 32/36/30 33/42/30
f 378/21/31 377/37/31 39/38/31 40/22/31
f 373/24/32 262/43/32 30/25/32
f 28/28/33 376/39/33 36/40/33 37/29/33
f 27/32/34 26/41/34 33/42/34 34/33/34
f 36/40/35 35/34/35 46/44/35 47/45/35
f 33/42/36 32/36/36 43/46/36 44/47/36
f 40/22/37 39/38/37 50/48/37 51/49/37
f 30/25/38 262/50/38 41/51/38
f 37/29/39 36/40/39 47/45/39 48/52/39
f 34/33/40 33/42/40 44/47/40 45/53/40
f 228/54/41 40/22/41 51/49/41
f 31/26/42 30/25/42 41/51/42 42/55/42
f 38/30/43 37/29/43 48/52/43 49/56/43
f 35/34/44 34/33/44 45/53/44 46/44/44
f 32/36/45 31/26/45 42/55/45 43/46/45
f 39/38/46 38/30/46 49/56/46 50/48/46
f 49/56/47 48/52/47 59/57/47 60/58/47
f 46/44/48 45/53/48 56/59/48 57/60/48
f 43/46/49 42/55/49 53/61/49 54/62/49
f 50/48/50 49/56/50 60/58/50 61/63/50
f 47/45/51 46/44/51 57/60/51 58/64/51
f 44/47/52 43/46/52 54/62/52 55/65/52
f 51/49/53 50/48/53 61/63/53 62/66/53
f 41/51/54 262/67/54 52/68/54
f 48/52/55 47/45/55 58/64/55 59/57/55
f 45/53/56 44/47/56 55/65/56 56/59/56
f 228/69/57 51/49/57 62/66/57
f 42/55/58 41/51/58 52/68/58 53/61/58
f 52/68/59 262/70/59 63/71/59
f 59/57/60 58/64/60 69/72/60 70/73/60
f 56/59/61 55/65/61 66/74/61 67/75/61
f 228/76/62 62/66/62 73/77/62
f 53/61/63 52/68/63 63/71/63 64/78/63
f 60/58/64 59/57/64 70/73/64 71/3/64
f 57/60/65 56/59/65 67/75/65 68/5/65
f 54/62/66 53/61/66 64/78/66 65/7/66
f 61/63/67 60/58/67 71/3/67 72/79/67
f 58/64/68 57/60/68 68/5/68 69/72/68
f 55/65/69 54/62/69 65/7/69 66/74/69
f 62/66/70 61/63/70 72/79/70 73/77/70
f 72/79/71 71/3/71 82/80/71 83/81/71
f 69/72/72 68/5/72 79/82/72 80/83/72
f 66/74/73 65/7/73 76/84/73 77/85/73
f 73/77/74 72/79/74 83/81/74 84/86/74
f 63/71/75 262/87/75 74/88/75
f 70/73/76 69/72/76 80/83/76 81/89/76
f 67/75/77 66/74/77 77/85/77 78/90/77
f 228/91/78 73/77/78 84/86/78
f 64/78/79 63/71/79 74/88/79 75/92/79
f 71/3/80 70/73/80 81/89/80 82/80/80
f 68/5/81 67/75/81 78/90/81 79/82/81
f 65/7/82 64/78/82 75/92/82 76/84/82
f 75/92/83 74/88/83 85/93/83 86/94/83
f 82/80/84 81/89/84 92/95/84 93/96/84
f 79/82/85 78/90/85 89/97/85 90/98/85
f 76/84/86 75/92/86 86/94/86 87/99/86
f 83/81/87 82/80/87 93/96/87 94/100/87
f 80/83/88 79/82/88 90/98/88 91/101/88
f 77/85/89 76/84/89 87/99/89 88/102/89
f 84/86/90 83/81/90 94/100/90 95/103/90
f 74/88/91 262/104/91 85/93/91
f 81/89/92 80/83/92 91/101/92 92/95/92
f 78/90/93 77/85/93 88/102/93 89/97/93
f 228/105/94 84/86/94 95/103/94
f 95/103/95 94/100/95 105/106/95 106/107/95
f 85/93/96 262/108/96 96/109/96
f 92/95/97 91/101/97 102/110/97 103/111/97
f 89/97/98 88/102/98 99/112/98 100/113/98
f 228/114/99 95/103/99 106/107/99
f 86/94/100 85/93/100 96/109/100 97/115/100
f 93/96/101 92/95/101 103/111/101 104/116/101
f 90/98/102 89/97/102 100/113/102 101/117/102
f 87/99/103 86/94/103 97/115/103 98/118/103
f 94/100/104 93/96/104 104/116/104 105/106/104
f 91/101/105 90/98/105 101/117/105 102/110/105
f 88/102/106 87/99/106 98/118/106 99/112/106
f 98/118/107 97/115/107 108/119/107 109/120/107
f 105/106/108 104/116/108 115/121/108 116/122/108
f 102/110/109 101/117/109 112/123/109 113/124/109
f 99/112/110 98/118/110 109/120/110 110/125/110
f 106/107/111 105/106/111 116/122/111 117/126/111
f 96/109/112 262/127/112 107/128/112
f 103/111/113 102/110/113 113/124/113 114/129/113
f 100/113/114 99/112/114 110/125/114 111/130/114
f 228/131/115 106/107/115 117/126/115
f 97/115/116 96/109/116 107/128/116 108/119/116
f 104/116/117 103/111/117 114/129/117 115/121/117
f 101/117/118 100/113/118 111/130/118 112/123/118
f 228/132/119 117/126/119 128/133/119
f 108/119/120 107/128/120 118/134/120 119/135/120
f 115/121/121 114/129/121 125/136/121 126/137/121
f 112/123/122 111/130/122 122/138/122 123/139/122
f 109/120/123 108/119/123 119/135/123 120/140/123
f 116/122/124 115/121/124 126/137/124 127/141/124
f 113/124/125 112/123/125 123/139/125 124/142/125
f 110/125/126 109/120/126 120/140/126 121/143/126
f 117/126/127 116/122/127 127/141/127 128/133/127
f 107/128/128 262/144/128 118/134/128
f 114/129/129 113/124/129 124/142/129 125/136/129
f 111/130/130 110/125/130 121/143/130 122/138/130
f 121/143/131 120/140/131 131/145/131 132/146/131
f 128/133/132 127/141/132 138/147/132 139/148/132
f 118/134/133 262/149/133 129/150/133
f 125/136/134 124/142/134 135/151/134 136/152/134
f 122/138/135 121/143/135 132/146/135 133/153/135
f 228/154/136 128/133/136 139/148/136
f 119/135/137 118/134/137 129/150/137 130/155/137
f 126/137/138 125/136/138 136/152/138 137/156/138
f 123/139/139 122/138/139 133/153/139 134/157/139
f 120/140/140 119/135/140 130/155/140 131/145/140
f 127/141/141 126/137/141 137/156/141 138/147/141
f 124/142/142 123/139/142 134/157/142 135/151/142
f 131/145/143 130/155/143 141/158/143 142/159/143
f 138/147/144 137/156/144 148/160/144 149/161/144
f 135/151/145 134/157/145 145/162/145 146/163/145
f 132/146/146 131/145/146 142/159/146 143/164/146
f 139/148/147 138/147/147 149/161/147 150/165/147
f 129/150/148 262/166/148 140/167/148
f 136/152/149 135/151/149 146/163/149 147/168/149
f 133/153/150 132/146/150 143/164/150 144/169/150
f 228/170/151 139/148/151 150/165/151
f 130/155/152 129/150/152 140/167/152 141/158/152
f 137/156/153 136/152/153 147/168/153 148/160/153
f 134/157/154 133/153/154 144/169/154 145/162/154
f 144/169/155 143/164/155 154/171/155 155/172/155
f 228/173/156 150/165/156 161/174/156
f 141/158/157 140/167/157 151/175/157 152/176/157
f 148/160/158 147/168/158 158/177/158 159/4/158
f 145/162/159 144/169/159 155/172/159 156/178/159
f 142/159/160 141/158/160 152/176/160 153/179/160
f 149/161/161 148/160/161 159/4/161 160/180/161
f 146/163/162 145/162/162 156/178/162 157/181/162
f 143/164/163 142/159/163 153/179/163 154/171/163
f 150/165/164 149/161/164 160/180/164 161/174/164
f 140/167/165 262/182/165 151/175/165
f 147/168/166 146/163/166 157/181/166 158/177/166
f 154/171/167 153/179/167 164/183/167 165/184/167
f 161/174/168 160/180/168 171/185/168 172/186/168
f 151/175/169 262/187/169 162/188/169
f 158/177/170 157/181/170 168/189/170 169/190/170
f 155/172/171 154/171/171 165/184/171 166/191/171
f 228/192/172 161/174/172 172/186/172
f 152/176/173 151/175/173 162/188/173 163/193/173
f 159/4/174 158/177/174 169/190/174 170/194/174
f 156/178/175 155/172/175 166/191/175 167/195/175
f 153/179/176 152/176/176 163/193/176 164/183/176
f 160/180/177 159/4/177 170/194/177 171/185/177
f 157/181/178 156/178/178 167/195/178 168/189/178
f 167/195/179 166/191/179 177/196/179 178/197/179
f 164/183/180 163/193/180 174/198/180 175/199/180
f 171/185/181 170/194/181 181/200/181 182/201/181
f 168/189/182 167/195/182 178/197/182 179/202/182
f 165/184/183 164/183/183 175/199/183 176/203/183
f 172/186/184 171/185/184 182/201/184 183/204/184
f 162/188/185 262/205/185 173/206/185
f 169/190/186 168/189/186 179/202/186 180/207/186
f 166/191/187 165/184/187 176/203/187 177/196/187
f 228/208/188 172/186/188 183/204/188
f 163/193/189 162/188/189 173/206/189 174/198/189
f 170/194/190 169/190/190 180/207/190 181/200/190
f 177/196/191 176/203/191 187/209/191 188/210/191
f 228/211/192 183/204/192 194/212/192
f 174/198/193 173/206/193 184/213/193 185/214/193
f 181/200/194 180/207/194 191/215/194 192/216/194
f 178/197/195 177/196/195 188/210/195 189/217/195
f 175/199/196 174/198/196 185/214/196 186/218/196
f 182/201/197 181/200/197 192/216/197 193/219/197
f 179/202/198 178/197/198 189/217/198 190/220/198
f 176/203/199 175/199/199 186/218/199 187/209/199
f 183/204/200 182/201/200 193/219/200 194/212/200
f 173/206/201 262/221/201 184/213/201
f 180/207/202 179/202/202 190/220/202 191/215/202
f 190/220/203 189/217/203 200/222/203 201/223/203
f 187/209/204 186/218/204 197/224/204 198/225/204
f 194/212/205 193/219/205 204/226/205 205/227/205
f 184/213/206 262/228/206 195/229/206
f 191/215/207 190/220/207 201/223/207 202/230/207
f 188/210/208 187/209/208 198/225/208 199/231/208
f 228/232/209 194/212/209 205/227/209
f 185/214/210 184/213/210 195/229/210 196/233/210
f 192/216/211 191/215/211 202/230/211 203/234/211
f 189/217/212 188/210/212 199/231/212 200/222/212
f 186/218/213 185/214/213 196/233/213 197/224/213
f 193/219/214 192/216/214 203/234/214 204/226/214
f 200/222/215 199/231/215 210/235/215 211/236/215
f 197/224/216 196/233/216 207/237/216 208/238/216
f 204/226/217 203/234/217 214/239/217 215/240/217
f 201/223/218 200/222/218 211/236/218 212/241/218
f 198/225/219 197/224/219 208/238/219 209/242/219
f 205/227/220 204/226/220 215/240/220 216/243/220
f 195/229/221 262/244/221 206/245/221
f 202/230/222 201/223/222 212/241/222 213/246/222
f 199/231/223 198/225/223 209/242/223 210/235/223
f 228/247/224 205/227/224 216/243/224
f 196/233/225 195/229/225 206/245/225 207/237/225
f 203/234/226 202/230/226 213/246/226 214/239/226
f 213/246/227 212/241/227 223/248/227 224/249/227
f 210/235/228 209/242/228 220/250/228 221/251/228
f 228/252/229 216/243/229 227/253/229
f 207/237/230 206/245/230 217/254/230 218/255/230
f 214/239/231 213/246/231 224/249/231 225/256/231
f 211/236/232 210/235/232 221/251/232 222/257/232
f 208/238/233 207/237/233 218/255/233 219/258/233
f 215/240/234 214/239/234 225/256/234 226/259/234
f 212/241/235 211/236/235 222/257/235 223/248/235
f 209/242/236 208/238/236 219/258/236 220/250/236
f 216/243/237 215/240/237 226/259/237 227/253/237
f 206/245/238 262/260/238 217/254/238
f 223/248/239 222/257/239 234/261/239 235/262/239
f 220/250/240 219/258/240 231/263/240 232/264/240
f 227/253/241 226/259/241 238/265/241 239/266/241
f 217/254/242 262/267/242 229/268/242
f 224/249/243 223/248/243 235/262/243 236/269/243
f 221/251/244 220/250/244 232/264/244 233/270/244
f 228/271/245 227/253/245 239/266/245
f 218/255/246 217/254/246 229/268/246 230/272/246
f 225/256/247 224/249/247 236/269/247 237/273/247
f 222/257/248 221/251/248 233/270/248 234/261/248
f 219/258/249 218/255/249 230/272/249 231/263/249
f 226/259/250 225/256/250 237/273/250 238/265/250
f 237/273/251 236/269/251 247/274/251 248/275/251
f 234/261/252 233/270/252 244/276/252 245/277/252
f 231/263/253 230/272/253 241/278/253 242/279/253
f 238/265/254 237/273/254 248/275/254 249/280/254
f 235/262/255 234/261/255 245/277/255 246/281/255
f 232/264/256 231/263/256 242/279/256 243/282/256
f 239/266/257 238/265/257 249/280/257 250/283/257
f 229/268/258 262/284/258 240/285/258
f 236/269/259 235/262/259 246/281/259 247/274/259
f 233/270/260 232/264/260 243/282/260 244/276/260
f 228/286/261 239/266/261 250/283/261
f 230/272/262 229/268/262 240/285/262 241/278/262
f 240/285/263 262/287/263 251/288/263
f 247/274/264 246/281/264 257/289/264 258/290/264
f 244/276/265 243/282/265 254/291/265 255/292/265
f 228/293/266 250/283/266 261/294/266
f 241/278/267 240/285/267 251/288/267 252/295/267
f 248/275/268 247/274/268 258/290/268 259/296/268
f 245/277/269 244/276/269 255/292/269 256/297/269
f 242/279/270 241/278/270 252/295/270 253/298/270
f 249/280/271 248/275/271 259/296/271 260/299/271
f 246/281/272 245/277/272 256/297/272 257/289/272
f 243/282/273 242/279/273 253/298/273 254/291/273
f 250/283/274 249/280/274 260/299/274 261/294/274
f 260/299/275 259/296/275 271/300/275 272/301/275
f 257/289/276 256/297/276 268/302/276 269/303/276
f 254/291/277 253/298/277 265/304/277 266/305/277
f 261/294/278 260/299/278 272/301/278 273/306/278
f 251/288/279 262/307/279 263/308/279
f 258/290/280 257/289/280 269/303/280 270/309/280
f 255/292/281 254/291/281 266/305/281 267/310/281
f 228/311/282 261/294/282 273/306/282
f 252/295/283 251/288/283 263/308/283 264/312/283
f 259/296/284 258/290/284 270/309/284 271/300/284
f 256/297/285 255/292/285 267/310/285 268/302/285
f 253/298/286 252/295/286 264/312/286 265/304/286
f 264/312/287 263/308/287 274/313/287 275/314/287
f 271/300/288 270/309/288 281/315/288 282/316/288
f 268/302/289 267/310/289 278/317/289 279/318/289
f 265/304/290 264/312/290 275/314/290 276/319/290
f 272/301/291 271/300/291 282/316/291 283/320/291
f 269/303/292 268/302/292 279/318/292 280/321/292
f 266/305/293 265/304/293 276/319/293 277/322/293
f 273/306/294 272/301/294 283/320/294 284/323/294
f 263/308/295 262/324/295 274/313/295
f 270/309/296 269/303/296 280/321/296 281/315/296
f 267/310/297 266/305/297 277/322/297 278/317/297
f 228/325/298 273/306/298 284/323/298
f 284/323/299 283/320/299 294/326/299 295/327/299
f 274/313/300 262/328/300 285/329/300
f 281/315/301 280/321/301 291/330/301 292/331/301
f 278/317/302 277/322/302 288/332/302 289/333/302
f 228/334/303 284/323/303 295/327/303
f 275/314/304 274/313/304 285/329/304 286/335/304
f 282/316/305 281/315/305 292/331/305 293/336/305
f 279/318/306 278/317/306 289/333/306 290/337/306
f 276/319/307 275/314/307 286/335/307 287/338/307
f 283/320/308 282/316/308 293/336/308 294/326/308
f 280/321/309 279/318/309 290/337/309 291/330/309
f 277/322/310 276/319/310 287/338/310 288/332/310
f 287/339/311 286/340/311 297/341/311 298/342/311
f 294/343/312 293/344/312 304/345/312 305/346/312
f 291/347/313 290/348/313 301/349/313 302/350/313
f 288/351/314 287/339/314 298/342/314 299/352/314
f 295/353/315 294/343/315 305/346/315 306/354/315
f 285/355/316 262/356/316 296/357/316
f 292/358/317 291/347/317 302/350/317 303/359/317
f 289/360/318 288/351/318 299/352/318 300/361/318
f 228/362/319 295/353/319 306/354/319
f 286/340/320 285/355/320 296/357/320 297/341/320
f 293/344/321 292/358/321 303/359/321 304/345/321
f 290/348/322 289/360/322 300/361/322 301/349/322
f 228/363/323 306/354/323 317/364/323
f 297/341/324 296/357/324 307/365/324 308/366/324
f 304/345/325 303/359/325 314/367/325 315/368/325
f 301/349/326 300/361/326 311/369/326 312/370/326
f 298/342/327 297/341/327 308/366/327 309/371/327
f 305/346/328 304/345/328 315/368/328 316/372/328
f 302/350/329 301/349/329 312/370/329 313/373/329
f 299/352/330 298/342/330 309/371/330 310/374/330
f 306/354/331 305/346/331 316/372/331 317/364/331
f 296/357/332 262/375/332 307/365/332
f 303/359/333 302/350/333 313/373/333 314/367/333
f 300/361/334 299/352/334 310/374/334 311/369/334
f 310/374/335 309/371/335 320/376/335 321/377/335
f 317/364/336 316/372/336 327/378/336 328/379/336
f 307/365/337 262/380/337 318/381/337
f 314/367/338 313/373/338 324/382/338 325/383/338
f 311/369/339 310/374/339 321/377/339 322/384/339
f 228/385/340 317/364/340 328/379/340
f 308/366/341 307/365/341 318/381/341 319/386/341
f 315/368/342 314/367/342 325/383/342 326/387/342
f 312/370/343 311/369/343 322/384/343 323/388/343
f 309/371/344 308/366/344 319/386/344 320/376/344
f 316/372/345 315/368/345 326/387/345 327/378/345
f 313/373/346 312/370/346 323/388/346 324/382/346
f 320/376/347 319/386/347 330/389/347 331/390/347
f 327/378/348 326/387/348 337/391/348 338/392/348
f 324/382/349 323/388/349 334/393/349 335/394/349
f 321/377/350 320/376/350 331/390/350 332/395/350
f 328/379/351 327/378/351 338/392/351 339/396/351
f 318/381/352 262/397/352 329/398/352
f 325/383/353 324/382/353 335/394/353 336/399/353
f 322/384/354 321/377/354 332/395/354 333/400/354
f 228/401/355 328/379/355 339/396/355
f 319/386/356 318/381/356 329/398/356 330/389/356
f 326/387/357 325/383/357 336/399/357 337/391/357
f 323/388/358 322/384/358 333/400/358 334/393/358
f 333/400/359 332/395/359 343/402/359 344/403/359
f 228/404/360 339/396/360 350/405/360
f 330/389/361 329/398/361 340/406/361 341/407/361
f 337/391/362 336/399/362 347/408/362 348/409/362
f 334/393/363 333/400/363 344/403/363 345/410/363
f 331/390/364 330/389/364 341/407/364 342/411/364
f 338/392/365 337/391/365 348/409/365 349/412/365
f 335/394/366 334/393/366 345/410/366 346/413/366
f 332/395/367 331/390/367 342/411/367 343/402/367
f 339/396/368 338/392/368 349/412/368 350/405/368
f 329/398/369 262/414/369 340/406/369
f 336/399/370 335/394/370 346/413/370 347/408/370
f 343/402/371 342/411/371 353/415/371 354/416/371
f 350/405/372 349/412/372 360/417/372 361/418/372
f 340/406/373 262/419/373 351/420/373
f 347/408/374 346/413/374 357/421/374 358/422/374
f 344/403/375 343/402/375 354/416/375 355/423/375
f 228/424/376 350/405/376 361/418/376
f 341/407/377 340/406/377 351/420/377 352/425/377
f 348/409/378 347/408/378 358/422/378 359/426/378
f 345/410/379 344/403/379 355/423/379 356/427/379
f 342/411/380 341/407/380 352/425/380 353/415/380
f 349/412/381 348/409/381 359/426/381 360/417/381
f 346/413/382 345/410/382 356/427/382 357/421/382
f 356/427/383 355/423/383 366/428/383 367/429/383
f 353/415/384 352/425/384 363/430/384 364/431/384
f 360/417/385 359/426/385 370/432/385 371/433/385
f 357/421/386 356/427/386 367/429/386 368/434/386
f 354/416/387 353/415/387 364/431/387 365/435/387
f 361/418/388 360/417/388 371/433/388 372/436/388
f 351/420/389 262/437/389 362/438/389
f 358/422/390 357/421/390 368/434/390 369/439/390
f 355/423/391 354/416/391 365/435/391 366/428/391
f 228/440/392 361/418/392 372/436/392
f 352/425/393 351/420/393 362/438/393 363/430/393
f 359/426/394 358/422/394 369/439/394 370/432/394
f 366/428/395 365/435/395 26/41/395 27/32/395
f 228/441/396 372/436/396 378/21/396
f 363/430/397 362/438/397 373/24/397 374/23/397
f 370/432/398 369/439/398 28/28/398 29/27/398
f 367/429/399 366/428/399 27/32/399 375/31/399
f 364/431/400 363/430/400 374/23/400 25/35/400
f 371/433/401 370/432/401 29/27/401 377/37/401
f 368/434/402 367/429/402 375/31/402 376/39/402
f 365/435/403 364/431/403 25/35/403 26/41/403
f 372/436/404 371/433/404 377/37/404 378/21/404
f 362/438/405 262/442/405 373/24/405
f 369/439/406 368/434/406 376/39/406 28/28/406
f 379/1/407 380/2/407 382/3/407 381/4/407
f 381/4/408 382/3/408 386/5/408 385/6/408
f 385/6/409 386/5/409 384/7/409 383/8/409
f 383/8/410 384/7/410 380/9/410 379/10/410
f 381/11/411 385/6/411 383/8/411 379/12/411
f 384/7/412 386/5/412 390/5/412 389/7/412
f 389/7/413 390/5/413 394/5/413 393/7/413
f 382/3/414 380/2/414 387/2/414 388/3/414
f 380/9/415 384/7/415 389/7/415 387/9/415
f 386/5/416 382/3/416 388/3/416 390/5/416
f 394/5/417 392/13/417 391/14/417 393/7/417
f 388/3/418 387/2/418 391/2/418 392/3/418
f 393/7/419 391/14/419 399/14/419 402/15/419
f 390/5/420 388/3/420 392/3/420 394/5/420
f 391/2/421 387/2/421 396/2/421 399/2/421
f 395/16/422 398/17/422 401/18/422 400/19/422
f 389/7/423 393/7/423 402/7/423 397/7/423
f 398/17/424 395/16/424 396/9/424 397/7/424
f 402/7/425 399/9/425 400/19/425 401/18/425
f 401/18/426 398/17/426 397/7/426 402/7/426
f 395/16/427 400/19/427 399/9/427 396/9/427
f 387/9/428 389/7/428 397/7/428 396/9/428
