# Blender 4.4.0
# www.blender.org
mtllib window.mtl
o Window
v 1.000000 2.432724 -1.532775
v 1.000000 -0.601434 -1.532775
v 1.000000 2.432724 1.174180
v 1.000000 -0.601434 1.174180
v 0.738452 2.432724 -1.532775
v 0.738452 -0.601434 -1.532775
v 0.738452 2.432724 1.174180
v 0.738452 -0.601434 1.174180
v 0.738452 2.343613 1.008063
v 0.738452 2.344286 -1.343806
v 0.738452 -0.466262 1.006150
v 0.738452 -0.465589 -1.345719
v 1.000000 2.343077 1.008057
v 1.000000 2.343750 -1.343812
v 1.000000 -0.466124 -1.345724
v 1.000000 -0.466798 1.006145
v 0.922269 2.353023 -1.383653
v 0.922269 -0.488266 -1.394224
v 0.922269 2.344780 1.002255
v 0.922269 -0.496509 0.991685
v 0.791714 2.353023 -1.383653
v 0.791714 -0.488266 -1.394224
v 0.791714 2.344780 1.002255
v 0.791714 -0.496509 0.991685
v 0.791714 2.263415 0.855557
v 0.791714 2.271195 -1.217377
v 0.791714 -0.371808 0.844012
v 0.791714 -0.364027 -1.228922
v 0.922269 2.262923 0.855551
v 0.922269 2.270703 -1.217384
v 0.922269 -0.364520 -1.228928
v 0.922269 -0.372300 0.844006
v 1.092160 -0.452327 -1.710353
v 1.092160 -0.594575 -1.710353
v 1.092160 -0.452327 1.378143
v 1.092160 -0.594574 1.378143
v 1.531251 -0.452327 -1.710353
v 1.531251 -0.594575 -1.710353
v 1.531251 -0.452327 1.378143
v 1.531251 -0.594574 1.378143
v 1.232316 -0.586534 -0.551626
v 1.232316 -0.663854 -0.551626
v 1.232316 -0.586534 -0.594260
v 1.232316 -0.663854 -0.594260
v 1.195375 -0.586534 -0.551626
v 1.195375 -0.663854 -0.551626
v 1.195375 -0.586534 -0.594260
v 1.195375 -0.663854 -0.594260
v 1.233524 -0.585137 0.290532
v 1.233524 -0.662458 0.290532
v 1.233524 -0.585137 0.247898
v 1.233524 -0.662458 0.247898
v 1.196584 -0.585137 0.290532
v 1.196584 -0.662458 0.290532
v 1.196584 -0.585137 0.247898
v 1.196584 -0.662458 0.247898
v 1.198100 -0.641640 -0.553150
v 0.943430 -0.641640 -0.553150
v 1.198100 -0.662885 -0.553150
v 0.943430 -0.662885 -0.553150
v 1.198100 -0.641640 -0.594027
v 0.943430 -0.641640 -0.594027
v 1.198100 -0.662885 -0.594027
v 0.943430 -0.662885 -0.594027
v 1.198100 -0.641640 0.289540
v 0.943430 -0.641640 0.289540
v 1.198100 -0.662885 0.289540
v 0.943430 -0.662885 0.289540
v 1.198100 -0.641640 0.248663
v 0.943430 -0.641640 0.248663
v 1.198100 -0.662885 0.248663
v 0.943430 -0.662885 0.248663
v 0.731684 -0.659132 1.080533
v 0.793738 -0.659132 2.553473
v 0.622258 -0.659132 1.085143
v 0.684312 -0.659132 2.558083
v 0.731684 2.465442 1.080533
v 0.793738 2.465442 2.553473
v 0.622258 2.465442 1.085143
v 0.684313 2.465442 2.558083
v 0.726763 -0.640514 -2.923578
v 0.726564 -0.640514 -1.449332
v 0.617240 -0.640514 -2.923593
v 0.617041 -0.640514 -1.449346
v 0.726763 2.484060 -2.923578
v 0.726564 2.484060 -1.449332
v 0.617241 2.484060 -2.923593
v 0.617041 2.484060 -1.449346
v 0.917495 2.335498 -0.117520
v 0.905222 -0.410965 -0.128802
v 0.917495 2.335832 -0.198857
v 0.905222 -0.410631 -0.210140
v 0.821849 2.335926 -0.117518
v 0.809576 -0.410538 -0.128801
v 0.821849 2.336260 -0.198855
v 0.809576 -0.410204 -0.210138
v 0.807472 0.787761 0.850698
v 0.807436 0.795805 -1.223598
v 0.871084 0.787761 0.850697
v 0.871048 0.795805 -1.223599
v 0.807472 0.880435 0.851058
v 0.807436 0.888479 -1.223238
v 0.871084 0.880435 0.851057
v 0.871048 0.888479 -1.223239
v 0.922269 -0.456639 0.991833
v 0.922269 -0.488427 -1.347631
v 1.000000 -0.476367 -1.532775
v 1.000000 -0.477398 1.174180
v 0.791714 -0.384229 0.992103
v 0.791714 -0.358676 -1.342255
vn -0.0000 1.0000 -0.0000
vn -0.0000 -0.0000 1.0000
vn -1.0000 -0.0000 -0.0000
vn -0.0000 -1.0000 -0.0000
vn 1.0000 -0.0000 -0.0000
vn -0.0000 -0.0000 -1.0000
vn -0.0020 -1.0000 -0.0003
vn -0.0000 0.0007 -1.0000
vn 0.0020 1.0000 0.0003
vn -0.0000 -0.0007 1.0000
vn -0.0000 1.0000 0.0035
vn -0.0000 -0.0037 1.0000
vn -0.0000 -1.0000 -0.0035
vn -0.0000 0.0037 -1.0000
vn -0.0038 -1.0000 -0.0038
vn -0.0000 0.0044 -1.0000
vn 0.0038 1.0000 0.0038
vn -0.0000 -0.0044 1.0000
vn -0.9991 -0.0000 0.0421
vn 0.9991 -0.0000 -0.0421
vn -0.0421 -0.0000 -0.9991
vn 0.0421 -0.0000 0.9991
vn -1.0000 -0.0000 -0.0001
vn 1.0000 -0.0000 0.0001
vn 0.0001 -0.0000 -1.0000
vn -0.0001 -0.0000 1.0000
vn 1.0000 -0.0045 -0.0000
vn -0.0000 0.0041 -1.0000
vn -1.0000 0.0045 -0.0000
vn -0.0000 -0.0041 1.0000
vn 0.0045 1.0000 0.0041
vn -0.0045 -1.0000 -0.0041
vn -0.0000 -1.0000 -0.0039
vn -0.0000 1.0000 0.0039
vn -0.0000 -0.0039 1.0000
vn -0.0000 0.0039 -1.0000
vt 0.914185 0.000000
vt 0.877608 0.245486
vt 0.877608 -0.000000
vt 0.768744 0.843946
vt 0.805321 0.436969
vt 0.805321 0.861293
vt 0.245483 0.424324
vt 0.000000 0.424324
vt 0.228520 0.405326
vt 0.000000 0.000000
vt 0.228346 0.012368
vt 0.015065 0.012462
vt 0.915053 0.436969
vt 0.878475 0.682455
vt 0.878475 0.436969
vt 0.475901 0.012537
vt 0.490966 0.406978
vt 0.475728 0.405496
vt 0.262620 0.012443
vt 0.490966 0.000000
vt 0.805321 0.436969
vt 0.841898 0.436969
vt 0.841898 0.843802
vt 0.878475 0.682455
vt 0.915053 0.895739
vt 0.878475 0.895739
vt 0.877608 0.000075
vt 0.841031 0.392958
vt 0.841031 0.000000
vt 0.437508 0.704412
vt 0.400930 0.917695
vt 0.400930 0.704411
vt 0.841898 0.437044
vt 0.878475 0.829927
vt 0.841898 0.830002
vt 0.743853 0.717056
vt 0.725595 0.933429
vt 0.725595 0.717056
vt 0.932443 0.381650
vt 0.932443 0.397352
vt 0.914185 0.391776
vt 0.707337 -0.000000
vt 0.707337 0.397353
vt 0.702668 0.379218
vt 0.490966 0.000631
vt 0.692231 0.011407
vt 0.504242 0.012042
vt 0.725595 0.721281
vt 0.725595 0.933429
vt 0.707337 0.933429
vt 0.707337 0.398615
vt 0.693903 0.778629
vt 0.694061 0.410095
vt 0.506072 0.409460
vt 0.462337 0.424324
vt 0.480595 0.821676
vt 0.462337 0.821676
vt 0.743853 0.717056
vt 0.762111 0.905046
vt 0.743853 0.905046
vt 0.950701 0.000069
vt 0.932443 0.368534
vt 0.932443 -0.000000
vt 0.895866 0.245486
vt 0.877608 0.433476
vt 0.877608 0.245486
vt 0.915053 0.437038
vt 0.933310 0.805503
vt 0.915053 0.805572
vt 0.985898 0.000000
vt 0.966005 0.280084
vt 0.966005 0.000000
vt 0.602841 0.857374
vt 0.622734 0.795967
vt 0.622734 0.857374
vt 0.437508 0.984495
vt 0.457401 0.704411
vt 0.457401 0.984495
vt 0.602841 0.795967
vt 0.582948 0.857374
vt 0.582948 0.795967
vt 0.707337 0.717056
vt 0.768744 0.436969
vt 0.768744 0.717056
vt 0.400930 0.704411
vt 0.462337 0.424324
vt 0.462337 0.704411
vt 0.674643 0.806781
vt 0.670777 0.795967
vt 0.674643 0.795967
vt 0.767277 0.799099
vt 0.762111 0.788286
vt 0.767277 0.788286
vt 0.678510 0.806781
vt 0.674643 0.795968
vt 0.678510 0.795967
vt 0.660445 0.806781
vt 0.655279 0.795967
vt 0.660445 0.795968
vt 0.690109 0.795967
vt 0.693975 0.801134
vt 0.690109 0.801134
vt 0.682376 0.801134
vt 0.678510 0.795968
vt 0.682376 0.795968
vt 0.462337 0.786455
vt 0.458470 0.775642
vt 0.462337 0.775642
vt 0.665611 0.806781
vt 0.660445 0.795967
vt 0.665611 0.795967
vt 0.462337 0.797268
vt 0.458470 0.786455
vt 0.462337 0.786455
vt 0.670777 0.806781
vt 0.665611 0.795967
vt 0.670777 0.795967
vt 0.686242 0.795968
vt 0.686242 0.801134
vt 0.686242 0.801134
vt 0.682376 0.795967
vt 0.686242 0.795967
vt 0.483566 0.495555
vt 0.480595 0.459940
vt 0.483566 0.459940
vt 0.762111 0.717056
vt 0.765818 0.752671
vt 0.762111 0.752671
vt 0.483566 0.566785
vt 0.480595 0.531170
vt 0.483566 0.531170
vt 0.762111 0.752671
vt 0.765818 0.788286
vt 0.762111 0.788286
vt 0.480595 0.566785
vt 0.483566 0.570492
vt 0.480595 0.570492
vt 0.483566 0.581614
vt 0.480595 0.577907
vt 0.483566 0.577907
vt 0.483566 0.531170
vt 0.480595 0.495555
vt 0.483566 0.495555
vt 0.458630 0.740027
vt 0.462337 0.775642
vt 0.458630 0.775642
vt 0.480595 0.424324
vt 0.483566 0.424324
vt 0.458630 0.704411
vt 0.462337 0.740027
vt 0.458630 0.740027
vt 0.480595 0.570492
vt 0.483566 0.574199
vt 0.480595 0.574199
vt 0.483566 0.577906
vt 0.480595 0.574199
vt 0.483566 0.574199
vt 0.534523 0.796542
vt 0.519225 0.929826
vt 0.519225 0.795968
vt 0.133694 0.861293
vt 0.267312 0.424327
vt 0.267312 0.861296
vt 0.519225 0.929826
vt 0.503927 0.796542
vt 0.519225 0.795967
vt 0.400930 0.424324
vt 0.267312 0.861296
vt 0.267312 0.424327
vt 0.950701 -0.000000
vt 0.966005 0.436969
vt 0.950701 0.436968
vt 0.979248 0.873937
vt 0.963944 0.436969
vt 0.979248 0.436969
vt 0.549839 0.929663
vt 0.534523 0.795969
vt 0.549839 0.795967
vt 0.707337 0.436969
vt 0.841031 0.000000
vt 0.841031 0.436969
vt 0.565156 0.795969
vt 0.549839 0.929663
vt 0.549839 0.795968
vt 0.133694 0.424325
vt 0.000000 0.861293
vt 0.000000 0.424324
vt 0.933310 0.436969
vt 0.948627 0.873937
vt 0.933310 0.873937
vt 0.963944 0.873937
vt 0.948627 0.436969
vt 0.963944 0.436969
vt 1.000000 0.436996
vt 0.992624 0.821061
vt 0.992624 0.436969
vt 0.992624 0.436969
vt 0.979248 0.821064
vt 0.979248 0.436969
vt 0.490966 0.808416
vt 0.483590 0.424351
vt 0.490966 0.424324
vt 0.999274 0.384095
vt 0.985898 -0.000000
vt 0.999274 -0.000000
vt 0.640527 0.809344
vt 0.647903 0.795968
vt 0.647903 0.809344
vt 0.655279 0.809344
vt 0.647903 0.795967
vt 0.565156 0.984081
vt 0.574052 0.795968
vt 0.574052 0.984082
vt 0.895866 0.245531
vt 0.908826 0.433599
vt 0.895866 0.433644
vt 0.574052 0.795968
vt 0.582948 0.984081
vt 0.574052 0.984082
vt 0.490966 0.984081
vt 0.503927 0.796012
vt 0.503927 0.984126
vt 0.622734 0.795968
vt 0.631630 0.808928
vt 0.622734 0.808928
vt 0.640526 0.808928
vt 0.631630 0.795967
vt 0.640526 0.795968
vt 0.914185 0.245486
vt 0.495192 0.795349
vt 0.707337 0.795967
vt 0.490966 0.397984
vt 0.505915 0.777994
vt 0.490966 0.795336
vt 0.245483 0.406833
vt 0.262446 0.405401
vt 0.490966 0.382281
vt 0.504400 0.380577
vt 0.692389 0.379942
vt 0.490966 0.397984
vt 0.768744 0.861293
vt 0.768744 0.436969
vt 0.245483 0.000000
vt 0.015238 0.405421
vt 0.915053 0.682455
vt 0.841898 0.861293
vt 0.805321 0.861293
vt 0.877608 0.393033
vt 0.437508 0.917696
vt 0.743853 0.933429
vt 0.914185 0.397352
vt 0.914185 0.000000
vt 0.932443 0.000000
vt 0.707337 0.717056
vt 0.725595 0.717056
vt 0.707337 0.790392
vt 0.480595 0.424324
vt 0.762111 0.717056
vt 0.950701 0.368603
vt 0.895866 0.433477
vt 0.933310 0.436969
vt 0.985898 0.280084
vt 0.437508 0.704411
vt 0.602841 0.857374
vt 0.707337 0.436969
vt 0.400930 0.424324
vt 0.670777 0.806781
vt 0.762111 0.799099
vt 0.655279 0.806781
vt 0.693975 0.795967
vt 0.678510 0.801134
vt 0.660445 0.806781
vt 0.458470 0.797268
vt 0.665611 0.806781
vt 0.690109 0.795968
vt 0.682376 0.801134
vt 0.480595 0.495555
vt 0.765818 0.717056
vt 0.480595 0.566785
vt 0.765818 0.752671
vt 0.480595 0.581614
vt 0.462337 0.740027
vt 0.480595 0.459940
vt 0.462337 0.704411
vt 0.483566 0.570492
vt 0.480595 0.577906
vt 0.534523 0.930401
vt 0.133694 0.424324
vt 0.503927 0.930401
vt 0.400930 0.861293
vt 0.966005 0.000000
vt 0.963944 0.873937
vt 0.534523 0.929664
vt 0.707337 0.000000
vt 0.565156 0.929665
vt 0.133694 0.861293
vt 1.000000 0.821088
vt 0.992624 0.821064
vt 0.483590 0.808443
vt 0.985898 0.384095
vt 0.640527 0.795968
vt 0.647903 0.809344
vt 0.565156 0.795968
vt 0.908826 0.245486
vt 0.582948 0.795968
vt 0.490966 0.795967
vt 0.631630 0.795968
vt 0.631630 0.808928
vt 0.490966 0.424324
s 0
usemtl Material.001
f 5/1/1 3/2/1 1/3/1
f 108/4/2 7/5/2 8/6/2
f 6/7/3 8/8/3 12/9/3
f 7/10/3 10/11/3 9/12/3
f 2/13/4 8/14/4 6/15/4
f 13/16/5 108/17/5 16/18/5
f 14/19/5 3/20/5 13/16/5
f 5/21/6 1/22/6 107/23/6
f 10/24/7 13/25/7 9/26/7
f 13/27/8 11/28/8 9/29/8
f 12/30/9 16/31/9 15/32/9
f 14/33/10 12/34/10 15/35/10
f 21/36/11 19/37/11 17/38/11
f 109/39/12 24/40/12 105/41/12
f 21/42/3 22/43/3 110/44/3
f 23/45/3 26/46/3 25/47/3
f 106/48/13 20/49/13 24/50/13
f 19/51/5 32/52/5 29/53/5
f 30/54/5 19/51/5 29/53/5
f 21/55/14 18/56/14 22/57/14
f 26/58/15 29/59/15 25/60/15
f 29/61/16 27/62/16 25/63/16
f 28/64/17 32/65/17 31/66/17
f 30/67/18 28/68/18 31/69/18
f 34/70/3 35/71/3 33/72/3
f 36/73/2 39/74/2 35/75/2
f 40/76/5 37/77/5 39/78/5
f 38/79/6 33/80/6 37/81/6
f 39/82/1 33/83/1 35/84/1
f 36/85/4 38/86/4 40/87/4
f 42/88/5 43/89/5 41/90/5
f 44/91/6 47/92/6 43/93/6
f 48/94/3 45/95/3 47/96/3
f 46/97/2 41/98/2 45/99/2
f 47/100/1 41/101/1 43/102/1
f 44/103/4 46/104/4 48/105/4
f 50/106/5 51/107/5 49/108/5
f 52/109/6 55/110/6 51/111/6
f 56/112/3 53/113/3 55/114/3
f 54/115/2 49/116/2 53/117/2
f 55/118/1 49/102/1 51/119/1
f 52/120/4 54/121/4 56/122/4
f 58/123/2 59/124/2 57/125/2
f 60/126/4 63/127/4 59/128/4
f 64/129/6 61/130/6 63/131/6
f 62/132/1 57/133/1 61/134/1
f 63/135/5 57/136/5 59/137/5
f 60/138/3 62/139/3 64/140/3
f 66/141/2 67/142/2 65/143/2
f 68/144/4 71/145/4 67/146/4
f 72/125/6 69/147/6 71/148/6
f 70/149/1 65/150/1 69/151/1
f 71/152/5 65/153/5 67/154/5
f 68/155/3 70/156/3 72/157/3
f 73/158/4 76/159/4 75/160/4
f 76/161/19 79/162/19 75/163/19
f 80/164/1 77/165/1 79/166/1
f 78/167/20 73/168/20 77/169/20
f 79/170/21 73/171/21 75/172/21
f 76/173/22 78/174/22 80/175/22
f 82/176/4 83/177/4 81/178/4
f 84/179/23 87/180/23 83/181/23
f 87/182/1 86/183/1 85/184/1
f 86/185/24 81/186/24 85/187/24
f 87/188/25 81/189/25 83/190/25
f 84/191/26 86/192/26 88/193/26
f 89/194/27 92/195/27 91/196/27
f 91/197/28 96/198/28 95/199/28
f 96/200/29 93/201/29 95/202/29
f 94/203/30 89/204/30 93/205/30
f 91/206/31 93/207/31 89/208/31
f 92/209/32 94/210/32 96/98/32
f 97/211/33 100/212/33 99/213/33
f 100/214/5 103/215/5 99/216/5
f 104/217/34 101/218/34 103/219/34
f 101/220/3 98/221/3 97/222/3
f 103/223/35 97/224/35 99/225/35
f 100/226/36 102/227/36 104/228/36
f 5/1/1 7/229/1 3/2/1
f 106/230/5 32/52/5 20/231/5
f 17/232/5 31/233/5 18/234/5
f 107/235/5 14/19/5 15/236/5
f 2/7/5 107/235/5 15/236/5
f 109/237/3 25/47/3 27/238/3
f 28/239/3 24/240/3 27/238/3
f 8/6/2 4/241/2 108/4/2
f 108/4/2 3/242/2 7/5/2
f 12/9/3 10/11/3 5/243/3
f 8/8/3 7/10/3 11/244/3
f 7/10/3 9/12/3 11/244/3
f 12/9/3 5/243/3 6/7/3
f 8/8/3 11/244/3 12/9/3
f 7/10/3 5/243/3 10/11/3
f 2/13/4 4/245/4 8/14/4
f 13/16/5 3/20/5 108/17/5
f 14/19/5 1/243/5 3/20/5
f 2/246/6 6/247/6 107/23/6
f 6/247/6 5/21/6 107/23/6
f 10/24/7 14/245/7 13/25/7
f 13/27/8 16/248/8 11/28/8
f 12/30/9 11/249/9 16/31/9
f 14/33/10 10/15/10 12/34/10
f 21/36/11 23/250/11 19/37/11
f 24/40/12 20/251/12 105/41/12
f 105/41/12 19/252/12 109/39/12
f 19/252/12 23/253/12 109/39/12
f 28/239/3 26/46/3 110/44/3
f 26/46/3 21/42/3 110/44/3
f 23/45/3 21/42/3 26/46/3
f 24/50/13 22/254/13 106/48/13
f 22/254/13 18/255/13 106/48/13
f 19/51/5 105/256/5 32/52/5
f 30/54/5 17/232/5 19/51/5
f 21/55/14 17/257/14 18/56/14
f 26/58/15 30/258/15 29/59/15
f 29/61/16 32/259/16 27/62/16
f 28/64/17 27/260/17 32/65/17
f 30/67/18 26/261/18 28/68/18
f 34/70/3 36/262/3 35/71/3
f 36/73/2 40/79/2 39/74/2
f 40/76/5 38/263/5 37/77/5
f 38/79/6 34/264/6 33/80/6
f 39/82/1 37/265/1 33/83/1
f 36/85/4 34/266/4 38/86/4
f 42/88/5 44/267/5 43/89/5
f 44/91/6 48/268/6 47/92/6
f 48/94/3 46/88/3 45/95/3
f 46/97/2 42/269/2 41/98/2
f 47/100/1 45/270/1 41/101/1
f 44/103/4 42/271/4 46/104/4
f 50/106/5 52/113/5 51/107/5
f 52/109/6 56/272/6 55/110/6
f 56/112/3 54/273/3 53/113/3
f 54/115/2 50/274/2 49/116/2
f 55/118/1 53/275/1 49/102/1
f 52/120/4 50/276/4 54/121/4
f 58/123/2 60/277/2 59/124/2
f 60/126/4 64/278/4 63/127/4
f 64/129/6 62/279/6 61/130/6
f 62/132/1 58/280/1 57/133/1
f 63/135/5 61/129/5 57/136/5
f 60/138/3 58/281/3 62/139/3
f 66/141/2 68/130/2 67/142/2
f 68/144/4 72/282/4 71/145/4
f 72/125/6 70/283/6 69/147/6
f 70/149/1 66/284/1 65/150/1
f 71/152/5 69/285/5 65/153/5
f 68/155/3 66/286/3 70/156/3
f 73/158/4 74/287/4 76/159/4
f 76/161/19 80/288/19 79/162/19
f 80/164/1 78/289/1 77/165/1
f 78/167/20 74/290/20 73/168/20
f 79/170/21 77/291/21 73/171/21
f 76/173/22 74/292/22 78/174/22
f 82/176/4 84/293/4 83/177/4
f 84/179/23 88/294/23 87/180/23
f 87/182/1 88/295/1 86/183/1
f 86/185/24 82/296/24 81/186/24
f 87/188/25 85/192/25 81/189/25
f 84/191/26 82/189/26 86/192/26
f 89/194/27 90/297/27 92/195/27
f 91/197/28 92/298/28 96/198/28
f 96/200/29 94/299/29 93/201/29
f 94/203/30 90/300/30 89/204/30
f 91/206/31 95/301/31 93/207/31
f 92/209/32 90/302/32 94/210/32
f 97/211/33 98/303/33 100/212/33
f 100/214/5 104/304/5 103/215/5
f 104/217/34 102/305/34 101/218/34
f 101/220/3 102/306/3 98/221/3
f 103/223/35 101/307/35 97/224/35
f 100/226/36 98/308/36 102/227/36
f 31/233/5 32/52/5 106/230/5
f 32/52/5 105/256/5 20/231/5
f 30/54/5 31/233/5 17/232/5
f 31/233/5 106/230/5 18/234/5
f 107/235/5 1/243/5 14/19/5
f 15/236/5 16/18/5 4/309/5
f 16/18/5 108/17/5 4/309/5
f 4/309/5 2/7/5 15/236/5
f 109/237/3 23/45/3 25/47/3
f 28/239/3 110/44/3 22/43/3
f 22/43/3 24/240/3 28/239/3
f 24/240/3 109/237/3 27/238/3
